<svg width="157" height="122" viewBox="0 0 157 122" fill="none" xmlns="http://www.w3.org/2000/svg">
<g clip-path="url(#clip0_323_304)">
<path d="M47.8935 101.18C47.9134 101.18 47.9333 101.178 47.9532 101.178H47.8353C27.1351 101.099 27.1321 80.3594 27.1321 80.3594C27.1321 80.3594 27.1305 101.099 6.43036 101.178H6.3125C6.3324 101.178 6.3523 101.18 6.37219 101.18C6.3523 101.18 6.3324 101.181 6.3125 101.181H6.43036C27.1305 101.261 27.1321 122 27.1321 122C27.1321 122 27.1336 101.261 47.8338 101.181H47.9516C47.9333 101.18 47.9134 101.18 47.8935 101.18Z" fill="#39372A"/>
</g>
<path d="M26.6516 85.4376C26.9902 81.8829 29.8001 74.3672 38.3313 72.7422C46.8626 71.1172 52.6422 72.5288 56.2762 77.5696C60.4059 83.2979 73.1402 86.8008 80.7212 79.3014C86.9157 73.1735 93.2434 67.1122 101.808 68.6797C106.209 69.8646 112.881 71.8329 113.958 78.8352C114.974 85.4367 124.893 89.639 133.141 83.8307C142.599 77.17 169.791 41.2578 146.051 29.6416" stroke="#39372A"/>
<path d="M91.8911 29.4891C91.5561 29.6988 91.101 29.9826 90.5381 30.331C89.237 31.1363 87.3597 32.287 85.056 33.6679C80.448 36.43 74.1357 40.1121 67.3162 43.7937C60.4951 47.476 53.1746 51.1534 46.5486 53.9088C39.9009 56.6734 34.0244 58.4782 30.0623 58.4782C14.0521 58.4782 1.07324 45.4993 1.07324 29.4891C1.07324 13.4789 14.0521 0.5 30.0623 0.5C34.0244 0.5 39.9009 2.3048 46.5486 5.06934C53.1746 7.82479 60.4951 11.5022 67.3162 15.1845C74.1357 18.866 80.448 22.5482 85.056 25.3103C87.3597 26.6912 89.237 27.8419 90.5381 28.6471C91.101 28.9956 91.5561 29.2793 91.8911 29.4891Z" fill="#FACB98" stroke="#39372A"/>
<path d="M146.571 29.8386C146.236 30.0483 145.781 30.3321 145.218 30.6805C143.917 31.4858 142.04 32.6365 139.736 34.0174C135.128 36.7795 128.816 40.4616 121.996 44.1431C115.175 47.8255 107.855 51.5029 101.229 54.2583C94.5811 57.0229 88.7046 58.8277 84.7425 58.8277C68.7323 58.8277 55.7534 45.8488 55.7534 29.8386C55.7534 13.8283 68.7323 0.849487 84.7425 0.849487C88.7046 0.849487 94.5811 2.65428 101.229 5.41883C107.855 8.17428 115.175 11.8517 121.996 15.534C128.816 19.2155 135.128 22.8977 139.736 25.6598C142.04 27.0407 143.917 28.1914 145.218 28.9966C145.781 29.3451 146.236 29.6288 146.571 29.8386Z" fill="#55804A" stroke="#39372A"/>
<ellipse cx="79.1803" cy="29.838" rx="18.6479" ry="18.8932" transform="rotate(-90 79.1803 29.838)" fill="#39372A"/>
<path d="M76.2276 16.2564C81.5274 16.2564 85.8126 20.4953 85.8126 25.7105C85.8126 30.9257 81.5274 35.1646 76.2276 35.1646C70.9278 35.1646 66.6426 30.9257 66.6426 25.7105C66.6426 20.4953 70.9278 16.2564 76.2276 16.2564Z" fill="#DDC5F7" stroke="#39372A"/>
<ellipse cx="24.885" cy="28.2897" rx="20.3333" ry="20.7754" transform="rotate(-90 24.885 28.2897)" fill="#39372A"/>
<path d="M21.2669 16.4132C26.5667 16.4132 30.8519 20.652 30.8519 25.8672C30.8519 31.0824 26.5667 35.3213 21.2669 35.3213C15.9671 35.3213 11.6819 31.0824 11.6819 25.8672C11.6819 20.652 15.9671 16.4132 21.2669 16.4132Z" fill="#F9F5F0" stroke="#39372A"/>
<defs>
<clipPath id="clip0_323_304">
<rect width="41.6407" height="41.6407" fill="white" transform="translate(6.3125 80.3594)"/>
</clipPath>
</defs>
</svg>
