<svg width="150" height="109" viewBox="0 0 150 109" fill="none" xmlns="http://www.w3.org/2000/svg">
<path d="M46.4009 73.3629C46.4009 82.9446 43.7985 91.5967 39.617 97.8389C35.4334 104.084 29.7081 107.871 23.4505 107.871C17.1929 107.871 11.4675 104.084 7.2839 97.8389C3.10248 91.5967 0.5 82.9446 0.5 73.3629C0.5 63.7811 3.10248 55.129 7.2839 48.8868C11.4675 42.6414 17.1929 38.855 23.4505 38.855C29.7081 38.855 35.4334 42.6414 39.617 48.8868C43.7985 55.129 46.4009 63.7811 46.4009 73.3629Z" fill="#F9F5F0" stroke="black"/>
<path d="M46.4006 73.3628C46.4006 79.1285 44.8342 84.3258 42.328 88.0672C39.8196 91.8119 36.4084 94.0515 32.7071 94.0515C29.0057 94.0515 25.5946 91.8119 23.0861 88.0672C20.5799 84.3258 19.0135 79.1285 19.0135 73.3628C19.0135 67.5971 20.5799 62.3998 23.0861 58.6584C25.5946 54.9137 29.0057 52.6741 32.7071 52.6741C36.4084 52.6741 39.8196 54.9137 42.328 58.6584C44.8342 62.3998 46.4006 67.5971 46.4006 73.3628Z" fill="#55804A" stroke="black"/>
<path d="M93.3012 73.3629C93.3012 82.9446 90.6987 91.5967 86.5173 97.8389C82.3337 104.084 76.6083 107.871 70.3507 107.871C64.0931 107.871 58.3678 104.084 54.1842 97.8389C50.0028 91.5967 47.4003 82.9446 47.4003 73.3629C47.4003 63.7811 50.0028 55.129 54.1842 48.8868C58.3678 42.6414 64.0931 38.855 70.3507 38.855C76.6083 38.855 82.3337 42.6414 86.5173 48.8868C90.6987 55.129 93.3012 63.7811 93.3012 73.3629Z" fill="#F9F5F0" stroke="#39372A"/>
<path d="M93.3008 73.3628C93.3008 79.1285 91.7345 84.3258 89.2283 88.0672C86.7198 91.8119 83.3087 94.0515 79.6073 94.0515C75.906 94.0515 72.4948 91.8119 69.9864 88.0672C67.4802 84.3258 65.9138 79.1285 65.9138 73.3628C65.9138 67.5971 67.4802 62.3998 69.9864 58.6584C72.4948 54.9137 75.906 52.6741 79.6073 52.6741C83.3087 52.6741 86.7198 54.9137 89.2283 58.6584C91.7345 62.3998 93.3008 67.5971 93.3008 73.3628Z" fill="#FACB98" stroke="black"/>
<path d="M84.045 65.993C84.045 67.9427 83.5147 69.6853 82.6837 70.9259C81.8504 72.1699 80.7534 72.8628 79.6083 72.8628C78.4631 72.8628 77.3661 72.1699 76.5329 70.9259C75.7018 69.6853 75.1715 67.9427 75.1715 65.993C75.1715 64.0433 75.7018 62.3007 76.5329 61.06C77.3661 59.816 78.4631 59.1232 79.6083 59.1232C80.7534 59.1232 81.8504 59.816 82.6837 61.06C83.5147 62.3007 84.045 64.0433 84.045 65.993Z" fill="white" stroke="black"/>
<path d="M37.1433 65.993C37.1433 67.9427 36.613 69.6853 35.7819 70.9259C34.9486 72.1699 33.8517 72.8628 32.7065 72.8628C31.5614 72.8628 30.4644 72.1699 29.6311 70.9259C28.8 69.6853 28.2698 67.9427 28.2698 65.993C28.2698 64.0433 28.8 62.3007 29.6311 61.06C30.4644 59.816 31.5614 59.1232 32.7065 59.1232C33.8517 59.1232 34.9486 59.816 35.7819 61.06C36.613 62.3007 37.1433 64.0433 37.1433 65.993Z" fill="white" stroke="black"/>
<path d="M1.85004 66.1252C-0.20702 53.5771 2.46716 24.5314 29.6203 8.73323C63.5618 -11.0145 143.17 9.35034 112.932 43.9089" stroke="black"/>
<path d="M127.74 20.3238L118.203 41.0877L136.158 55.2194L115.394 45.6818L101.263 63.6374L110.8 42.8734L92.8448 28.7417L113.609 38.2793L127.74 20.3238Z" fill="#39372A"/>
</svg>
