<svg width="72" height="67" viewBox="0 0 72 67" fill="none" xmlns="http://www.w3.org/2000/svg">
<path d="M65.5293 30.5361C65.5293 30.5361 65.8797 32.7306 66.668 34.0479C67.4556 35.3652 67.6304 38.0871 67.5426 39.8425C67.4556 41.5984 67.3678 46.427 68.0684 47.8324C68.7683 49.237 70.8967 51.9589 71.4821 54.0661C72.0682 56.1727 72.2697 59.0708 71.4821 60.9145C70.6945 62.758 69.9864 65.4799 68.7642 65.9185C67.5426 66.3579 63.7787 65.9185 63.7787 65.9185C63.7787 65.9185 63.7786 64.602 64.3037 64.1626C64.8295 63.724 66.6679 62.8458 66.8427 61.4407C67.0175 60.0361 67.2801 57.6654 67.2801 57.6654C67.2801 57.6654 62.8155 55.8214 60.5397 53.6267C58.2639 51.4322 55.3753 48.3246 55.3753 48.3246C55.3753 48.3246 54.4122 51.8708 53.5368 53.5389C52.6615 55.2075 53.2743 56.6121 53.5368 57.2269C53.7994 57.8413 50.4734 61.5005 46.7964 64.2507C43.1202 67 40.0561 65.304 40.0561 65.304C40.0561 65.304 39.531 63.0212 40.4941 62.5818C41.4565 62.1432 43.3827 62.3194 43.3827 62.3194C43.3827 62.3194 47.9343 58.9828 47.4093 56.524C46.8842 54.0661 45.3083 51.2563 45.1335 49.4123C44.9587 47.5689 44.8709 46.6909 44.8709 46.6909C44.8709 46.6909 39.664 47.3935 36.3586 47.2176C33.0539 47.0423 31.0399 46.3397 31.0399 46.3397C31.0399 46.3397 29.5517 55.4707 30.5141 56.788C31.4779 58.1048 34.5414 60.5632 34.8039 62.2313C35.0664 63.8991 34.6284 66.309 32.7029 66.1137C30.7774 65.9185 30.8644 64.7771 30.9522 63.1974C30.9522 63.1974 28.2383 60.4754 27.6262 59.4221C27.0134 58.3688 23.6867 49.1488 23.6867 49.1488C23.6867 49.1488 18.5216 59.1581 18.3468 60.9145C18.172 62.6699 16.7715 63.8991 16.4213 63.9872C16.071 64.0745 15.2834 67 14.0577 67C12.8321 67 9.8564 66.4459 9.8564 66.4459C9.8564 66.4459 9.94345 64.5139 11.2568 63.8991C12.5695 63.2846 14.4073 63.0212 14.4073 60.4754C14.4073 57.9294 15.8955 47.9196 15.8084 47.5689C15.7207 47.2176 13.0069 42.2131 12.5695 40.4572C12.1315 38.701 11.1691 34.6626 11.1691 34.6626C11.1691 34.6626 9.41837 29.1307 8.01724 27.7261C6.61679 26.3215 4.60421 26.3215 3.11603 26.1455C1.62784 25.9702 1.55449 25.3563 1.10207 24.3902C0.649646 23.4241 -0.371026 21.317 0.13966 21.0535C0.64966 20.7904 3.37788 19.6489 3.72816 19.1223C4.07844 18.5956 4.34099 17.4544 5.47889 17.015C6.61679 16.5757 9.41836 14.7325 10.8188 14.7325C12.2192 14.7325 14.9331 17.1904 15.5452 17.7176C16.1587 18.2438 17.9095 20.0883 18.8719 21.317C19.835 22.5462 20.5355 25.8829 24.1241 25.9701C27.7133 26.0583 58.6142 26.7608 60.1017 25.8829C61.5899 25.0042 63.5161 25.9702 64.1289 18.8591C64.7417 11.7471 65.092 7.09341 64.3037 5.95197C63.5161 4.8106 64.3037 4.54741 62.8155 4.28395C61.328 4.02069 59.4896 3.66943 58.9638 2.61613C58.4394 1.56276 58.789 1.49384e-06 60.1894 1.49384e-06C61.5899 1.49384e-06 68.0684 -0.0180098 69.1186 8.58583C70.1687 17.1904 67.3678 22.5462 66.755 25.8829C66.1422 29.2187 65.2243 29.1589 65.5293 30.5361" fill="#21352D"/>
<path d="M42.0001 45.764C42.0076 45.6852 42.8089 45.9039 44.0538 45.541C44.6756 45.3752 45.3929 45.0738 46.2024 44.7467C47.0098 44.4283 47.9265 44.0693 48.9503 44.007C49.9754 43.9501 50.9412 44.247 51.7288 44.6799C52.5199 45.1136 53.1533 45.6557 53.6372 46.1594C54.1225 46.664 54.4706 47.1213 54.691 47.4528C54.9129 47.7832 55.0152 47.9824 54.9982 47.9979C54.9483 48.0448 54.4603 47.3096 53.4734 46.3766C52.9813 45.9133 52.3534 45.4136 51.5903 45.0193C50.8313 44.6245 49.9242 44.3589 48.968 44.4113C48.0097 44.4697 47.117 44.8013 46.3068 45.1002C45.4973 45.4062 44.7554 45.6861 44.107 45.8214C43.46 45.9608 42.9194 45.9772 42.5536 45.9179C42.1884 45.8634 41.996 45.7849 42.0001 45.764Z" fill="#33535F"/>
<path d="M15 18C14.5661 15.7555 13.8081 13.5718 12.7556 11.5332C12.6347 11.299 12.472 11.0391 12.207 11.0042C11.8102 10.951 11.5719 11.418 11.4758 11.7991C11.2211 12.8016 11.0618 13.8282 11 14.8595" fill="#203836"/>
<path d="M9 15.3143C8.70962 14.1972 8.11216 13.1617 7.29274 12.3523C7.06744 12.132 6.75286 11.9124 6.46331 12.0355C6.18461 12.1519 6.11118 12.5074 6.08364 12.8088C5.95263 14.2025 5.976 15.6115 6.1504 17" fill="#203836"/>
<path d="M11.0258 14.5358C10.9707 14.5289 11.0061 14.1612 11.1108 13.5688C11.1785 13.2251 11.247 12.8804 11.3162 12.5304C11.3383 12.4376 11.3446 12.3309 11.4288 12.1994C11.4689 12.1394 11.5327 12.0591 11.6728 12.0167C11.8066 11.9755 11.9735 12.0155 12.0593 12.0834C12.2254 12.2181 12.2411 12.3372 12.2962 12.4356C12.3426 12.5423 12.3891 12.6495 12.4363 12.7586C12.7984 13.636 12.9519 14.4678 12.9897 15.0685C13.018 15.3664 12.9896 15.6346 12.8857 15.7997C12.7818 15.9663 12.6551 16.0119 12.6425 15.9975C12.6181 15.98 12.6937 15.9076 12.7354 15.7574C12.7779 15.607 12.7653 15.3839 12.7016 15.0921C12.5906 14.509 12.397 13.7096 12.0467 12.8585C12.001 12.753 11.9562 12.6483 11.9129 12.5448C11.8664 12.4407 11.82 12.3353 11.7877 12.3177C11.8326 12.2298 11.7295 12.3852 11.6846 12.5947C11.5878 12.9377 11.4918 13.2743 11.3965 13.6104C11.2194 14.188 11.0817 14.5426 11.0258 14.5358" fill="#33535F"/>
<path d="M5.00146 16.9865C4.95962 16.8972 5.82004 16.3827 6.92408 15.8376C8.02812 15.2927 8.95602 14.9234 8.99854 15.0135C9.04038 15.1036 8.17996 15.6174 7.07592 16.1625C5.97323 16.7076 5.04398 17.0766 5.00146 16.9865Z" fill="#33535F"/>
<path d="M15.0123 40.0003C15.0862 39.9835 15.1594 40.7521 15.828 41.7804C16.4762 42.8048 17.75 44.0379 19.3483 45.1027C20.1683 45.5938 21.086 45.9376 21.787 46.4638C22.5028 46.9716 22.9799 47.5929 23.2931 48.1354C23.595 48.6854 23.7794 49.1521 23.8773 49.4796C23.9758 49.8095 24.0173 49.9932 23.9934 49.9995C23.9258 50.0214 23.7048 49.2896 23.0672 48.2503C22.7343 47.7408 22.2642 47.1727 21.5801 46.7076C20.9108 46.2235 20.0177 45.8997 19.1457 45.3823C17.484 44.2751 16.2256 42.9976 15.6013 41.8953C15.2846 41.3503 15.1277 40.8666 15.0601 40.5297C14.989 40.1924 14.9926 40.0016 15.0123 40.0003" fill="#33535F"/>
<path d="M14.0656 38.0001C14.1344 38.0014 14.1419 38.9643 14.4026 40.0614C14.6536 41.164 15.0492 41.9343 14.995 41.9961C14.9557 42.0593 14.4538 41.3415 14.1847 40.169C13.909 39.0015 14.0078 37.9859 14.0656 38.0001Z" fill="#33535F"/>
<path d="M8 19.0008C8 19.5514 7.77665 20 7.50028 20C7.22392 20 7 19.5514 7 19.0008C7 18.4484 7.22392 18 7.50028 18C7.77665 18 8 18.4484 8 19.0008Z" fill="#33535F"/>
<path d="M8.99208 18.7131C8.90823 18.7875 8.32889 18.2819 7.38823 18.3098C6.97354 18.3116 6.6549 18.5572 6.43079 18.7268C6.20592 18.9029 6.06261 19.0212 6.01382 18.9968C5.97037 18.9761 6.02753 18.816 6.21124 18.5888C6.30424 18.4764 6.43308 18.3474 6.6206 18.2266C6.80279 18.1065 7.08025 18.0017 7.37755 18.0001C7.92563 17.9952 8.41959 18.1599 8.6742 18.3502C8.93642 18.534 9.02944 18.6864 8.99208 18.7131" fill="#33535F"/>
</svg>
