<svg width="419" height="153" viewBox="0 0 419 153" fill="none" xmlns="http://www.w3.org/2000/svg">
<path fill-rule="evenodd" clip-rule="evenodd" d="M0 149.284L0.304826 114.112L15.7514 114.411L20.3238 114.759L20.2725 135.036H22.9143L23.1175 133.292C23.1175 133.292 25.5561 133.142 25.8107 133.142C26.0652 133.142 36.4303 134.138 36.4303 134.138L36.7351 114.111L44.2552 114.26L48.6254 115.306L49.0822 135.483L50.8608 135.733L58.6344 135.982L58.6857 124.873L57.0087 124.375L57.06 117.649L59.7018 116.852L59.905 114.262L61.6324 113.863V105.095C61.6324 105.095 60.8195 104.946 65.7994 104.946C70.7792 104.946 79.9753 106.89 79.9753 106.89L80.1272 116.206L80.1775 117.8L87.7479 118.099V103.004C87.7479 103.004 91.8133 102.257 94.4551 102.108C97.0969 101.959 97.7065 102.058 97.7065 102.058L99.5355 102.805L99.9933 142.112L102.229 142.511L101.974 107.19L104.921 106.941L105.074 106.044L111.781 105.945L113.102 106.792L113.559 105.048L121.18 104.575L126.185 106.268L126.617 107.638L126.693 115.46L127.201 115.584L127.278 115.036L128.091 114.886L128.244 110.926L132.232 110.178L137.263 110.627L137.288 115.31L139.904 119.071L143.309 118.971L143.665 117.178L154.996 116.829L154.945 104.125C154.945 104.125 157.536 102.879 158.222 102.755C158.908 102.63 158.985 102.63 158.985 102.63L161.652 103.004L161.906 112.071L167.419 112.321L167.902 130.156L171.154 130.205L171.408 85.5183L175.473 80.7856C175.473 80.7856 175.396 66.4631 175.524 66.3881C175.651 66.3142 175.93 66.3635 175.93 66.3635L176.26 77.274L179.487 77.1991C179.487 77.1991 179.462 66.2638 179.588 66.2145C179.715 66.1642 180.046 66.1396 180.046 66.1396L180.579 80.9602L184.187 85.3448L184.797 107.364L185.914 101.983L196.584 106.268L197.092 109.556L198.413 109.755L198.616 86.2414L208.473 85.3448L213.961 87.138L214.774 130.182L221.685 130.48L222.091 136.061L226.562 136.559L226.359 122.61H230.221L230.374 114.988L234.591 112.746H250.139V109.159H255.526L256.237 121.713L259.082 121.813V114.739L270.921 114.539L270.871 118.225L275.036 117.927V109.258L276.281 108.361L276.434 106.668L276.917 106.544V105.173L279.051 102.832L281.184 104.775L281.54 108.262L284.945 108.213L284.843 104.526L288.4 101.487L293.277 101.089L299.526 101.288L302.371 104.974V120.219L305.521 120.518L307.756 123.108L315.683 122.311L316.089 99.2945L318.833 98.9463L319.189 98.0496L323.761 98.0989L323.812 99.4444L325.539 99.2955L325.641 98.1996L329.705 97.95L330.01 98.9463L334.532 98.8466C334.532 98.8466 333.516 45.1175 333.669 44.8186C333.822 44.5197 334.125 43.7977 334.125 43.7977C334.125 43.7977 333.644 29.7237 333.847 29.0767C334.05 28.4286 334.508 27.7312 334.508 27.7312C334.508 27.7312 334.431 17.7173 334.686 17.0199C334.94 16.3225 335.422 15.6251 335.422 15.6251C335.422 15.6251 335.372 13.0349 335.752 11.8886C336.134 10.7424 336.54 10.3439 336.54 10.3439C336.54 10.3439 337.633 6.43284 338.801 4.38999C339.968 2.34715 340.934 1.15164 341.392 0.85276C341.85 0.553882 342.128 0.529233 342.128 0.529233C342.128 0.529233 348.201 -0.317074 349.319 0.130729C350.436 0.579559 353.739 7.90258 354.755 11.0906C355.771 14.2786 356.534 24.84 356.534 24.84L357.143 26.0858L357.423 41.5792C357.423 41.5792 358.008 42.027 358.008 42.3012C358.008 42.5755 358.339 61.4561 358.414 61.6061C358.491 61.755 358.642 61.9799 358.669 62.2542C358.694 62.5284 358.821 109.083 358.821 109.083L358.871 112.471L359.684 134.192H364.358L367.203 132.1L371.573 131.801L371.37 110.579L376.095 109.682H388.797L390.118 132.799L398.857 132.998L397.435 102.609L399.264 88.0614L411.662 86.8659L414.507 88.3602L417.454 100.117L419 153H0.174934L0 149.288V149.284Z" fill="#F9F5F0"/>
</svg>
