<svg width="421" height="211" viewBox="0 0 421 211" fill="none" xmlns="http://www.w3.org/2000/svg">
<g opacity="0.5">
<path fill-rule="evenodd" clip-rule="evenodd" d="M0 142.454L0.306281 108.891L15.8266 109.176L20.4208 109.509L20.3692 128.857H23.0237L23.2279 127.193C23.2279 127.193 25.6781 127.05 25.9339 127.05C26.1896 127.05 36.6042 128.001 36.6042 128.001L36.9105 108.89L44.4665 109.032L48.8575 110.031L49.3164 129.285L51.1036 129.523L58.9143 129.761L58.9658 119.16L57.2808 118.684L57.3323 112.267L59.9868 111.506L60.191 109.034L61.9266 108.654V100.287C61.9266 100.287 61.1098 100.145 66.1135 100.145C71.1171 100.145 80.3571 101.999 80.3571 101.999L80.5097 110.89L80.5602 112.411L88.1667 112.696V98.2916C88.1667 98.2916 92.2515 97.5781 94.9059 97.436C97.5604 97.2939 98.1729 97.389 98.1729 97.389L100.011 98.1015L100.471 135.61L102.717 135.99L102.461 102.285L105.422 102.048L105.575 101.193L112.314 101.098L113.642 101.906L114.101 100.242L121.759 99.7902L126.788 101.406L127.221 102.714L127.298 110.177L127.808 110.296L127.885 109.773L128.702 109.63L128.856 105.851L132.864 105.137L137.918 105.566L137.943 110.034L140.572 113.623L143.993 113.528L144.351 111.817L155.736 111.484L155.684 99.3609C155.684 99.3609 158.288 98.172 158.977 98.0535C159.667 97.9349 159.744 97.9349 159.744 97.9349L162.423 98.2916L162.679 106.944L168.219 107.182L168.704 124.201L171.971 124.248L172.227 81.6057L176.31 77.0895C176.31 77.0895 176.233 63.4223 176.362 63.3507C176.489 63.2802 176.77 63.3272 176.77 63.3272L177.102 73.7386L180.343 73.6671C180.343 73.6671 180.318 63.2322 180.446 63.1851C180.573 63.1371 180.906 63.1136 180.906 63.1136L181.441 77.2561L185.066 81.4401L185.679 102.452L186.802 97.3174L197.523 101.406L198.033 104.544L199.36 104.734L199.564 82.2957L209.469 81.4401L214.983 83.1513L215.799 124.226L222.743 124.511L223.151 129.836L227.643 130.311L227.439 117H231.32L231.473 109.727L235.711 107.588H251.333V104.165H256.745L257.46 116.145L260.318 116.24V109.489L272.214 109.299L272.163 112.816L276.349 112.531V104.259L277.6 103.404L277.753 101.788L278.239 101.669V100.362L280.382 98.127L282.526 99.9813L282.884 103.309L286.305 103.262L286.203 99.7441L289.776 96.844L294.677 96.4638L300.956 96.6539L303.815 100.171V114.719L306.979 115.004L309.225 117.476L317.19 116.715L317.598 94.7516L320.355 94.4193L320.713 93.5637L325.307 93.6107L325.357 94.8947L327.093 94.7525L327.195 93.7068L331.279 93.4686L331.585 94.4193L336.129 94.3243C336.129 94.3243 335.108 43.0533 335.261 42.7681C335.415 42.4829 335.72 41.7939 335.72 41.7939C335.72 41.7939 335.236 28.3638 335.44 27.7464C335.645 27.1279 336.105 26.4625 336.105 26.4625C336.105 26.4625 336.028 16.9067 336.283 16.2412C336.539 15.5757 337.023 14.9102 337.023 14.9102C337.023 14.9102 336.973 12.4385 337.355 11.3447C337.738 10.2509 338.146 9.87067 338.146 9.87067C338.146 9.87067 339.244 6.13852 340.418 4.18914C341.591 2.23976 342.562 1.09895 343.022 0.813745C343.482 0.528541 343.762 0.50502 343.762 0.50502C343.762 0.50502 349.863 -0.302567 350.986 0.124748C352.109 0.553043 355.428 7.54102 356.448 10.5832C357.469 13.6254 358.236 23.7035 358.236 23.7035L358.848 24.8924L359.129 39.6769C359.129 39.6769 359.717 40.1042 359.717 40.3659C359.717 40.6276 360.049 58.6444 360.125 58.7875C360.202 58.9296 360.354 59.1442 360.381 59.4059C360.406 59.6676 360.533 104.093 360.533 104.093L360.584 107.325L361.401 128.053H366.097L368.955 126.056L373.347 125.771L373.142 105.52L377.89 104.664H390.653L391.98 126.723L400.761 126.913L399.332 97.9143L401.17 84.0324L413.627 82.8916L416.486 84.3176L419.446 95.5366L421 146H0.175769L0 142.458V142.454Z" fill="#F9F5F0"/>
<rect y="142" width="421" height="69" fill="#F9F5F0"/>
</g>
</svg>
