<svg width="66" height="134" viewBox="0 0 66 134" fill="none" xmlns="http://www.w3.org/2000/svg">
<path d="M33 69C33.0583 59.8493 39.6949 54 39.6949 54C41.7202 61.5269 33 69 33 69Z" fill="#F9F5F0"/>
<path d="M42 64.984C50.8472 60.8428 59 64.4697 59 64.4697C52.5094 69.8455 42 64.984 42 64.984Z" fill="#F9F5F0"/>
<path d="M43.4134 60C41.6599 52.683 46.052 47 46.052 47C49.2257 52.7054 43.4134 60 43.4134 60Z" fill="#F9F5F0"/>
<path d="M8 41C21.6684 44.7509 29 57 29 57C17.3178 57.0079 8 41 8 41Z" fill="#F9F5F0"/>
<path d="M29.026 47C28.3008 32.4584 43 16 43 16C40.7808 34.0558 29.026 47 29.026 47Z" fill="#F9F5F0"/>
<path d="M28.9595 6C29.5066 17.324 24.3238 26 24.3238 26C22.5024 17.0179 28.9595 6 28.9595 6Z" fill="#F9F5F0"/>
<path d="M24 35C13.6377 33.8323 8 23 8 23C20.5318 26.6887 24 35 24 35Z" fill="#F9F5F0"/>
<path d="M1 79.4172C9.26301 74.4788 18 76.3463 18 76.3463C12.2897 81.9834 1 79.4172 1 79.4172" fill="#F9F5F0"/>
<path d="M29 84C26.7427 89.525 21 92 21 92C21.5088 87.1234 29 84 29 84Z" fill="#F9F5F0"/>
<path d="M27 82.4643C21.2933 86.1681 15 84.7219 15 84.7219C18.8632 80.478 27 82.4643 27 82.4643Z" fill="#F9F5F0"/>
<path d="M32.8041 96.8437C32.7958 96.8432 32.7877 96.7711 32.7779 96.6289C32.7702 96.4588 32.7602 96.2518 32.7484 95.9991C32.7329 95.4051 32.7108 94.5966 32.6834 93.5765C32.6677 92.5248 32.6357 91.2378 32.5667 89.7456C32.5053 88.2524 32.4596 86.5525 32.3323 84.6759C32.1472 80.92 31.7658 76.4579 31.2547 71.5133C30.6965 66.5734 29.9546 61.1572 28.9764 55.5034C27.0041 44.1921 24.4441 34.1032 22.4071 26.8585C21.382 23.2378 20.5204 20.3152 19.895 18.3051C19.6014 17.326 19.3693 16.5518 19.1979 15.9824C19.1299 15.7378 19.0741 15.5383 19.0283 15.3744C18.9929 15.2363 18.9785 15.1645 18.9868 15.1615C18.9937 15.1593 19.0239 15.2259 19.0752 15.3588C19.1335 15.5197 19.2044 15.7146 19.2904 15.9526C19.4825 16.5159 19.743 17.2819 20.0732 18.2498C20.7538 20.2441 21.6652 23.1537 22.7333 26.7672C24.8562 33.9953 27.474 44.0896 29.449 55.4229C30.4288 61.087 31.1599 66.5158 31.6947 71.4673C32.1831 76.4228 32.5293 80.8954 32.6715 84.6592C32.7766 86.5392 32.7994 88.2429 32.8351 89.7376C32.8792 91.233 32.8833 92.5213 32.8705 93.5741C32.8597 94.5959 32.8512 95.4048 32.8458 95.9988C32.8381 96.2513 32.8322 96.4586 32.8267 96.6293C32.8197 96.7711 32.8125 96.8435 32.8041 96.8437" fill="#BDBDBD"/>
<path d="M12.5581 71.7031C12.6257 71.5892 17.1309 74.0927 22.6203 77.2934C28.1126 80.4959 32.5085 83.183 32.4415 83.2969C32.3753 83.4112 27.8702 80.9085 22.3793 77.7066C16.8892 74.5053 12.4918 71.8169 12.5581 71.7031Z" fill="#BDBDBD"/>
<path d="M32.0014 72.9981C31.9793 72.9732 32.2159 72.718 32.6602 72.2753C33.1865 71.767 33.8231 71.1521 34.5688 70.4321C36.2856 68.8164 38.497 66.7367 40.9423 64.437C43.3882 62.1379 45.5996 60.0589 47.3179 58.4446C48.0718 57.7349 48.716 57.1291 49.2485 56.6276C49.7093 56.2029 49.9749 55.9782 49.9983 56.0017C50.0218 56.0245 49.8011 56.2929 49.381 56.7583C48.963 57.2273 48.3346 57.8816 47.5524 58.6859C45.9838 60.2878 43.7641 62.4478 41.2678 64.7862C38.7729 67.124 36.4781 69.201 34.7957 70.6811C33.9549 71.4219 33.2671 72.0132 32.7843 72.413C32.3015 72.8134 32.0235 73.0223 32.0014 72.9981" fill="#BDBDBD"/>
<path d="M0 64.0005C0 64.0005 10.5416 63.7771 15 72.9986C15 72.9986 6.00822 73.3267 0 64.0005Z" fill="#F9F5F0"/>
<path d="M15.003 60C15.003 60 23.1583 66.3434 21.8599 76C21.8599 76 14.8335 70.6926 15.003 60Z" fill="#F9F5F0"/>
<path d="M61 44C61 44 57.6487 56.7152 47 59C47 59 49.7217 48.1078 61 44Z" fill="#F9F5F0"/>
<path d="M10 -7.66477e-07C10 -7.66477e-07 23.3652 9.137 21.8856 24C21.8856 24 10.3791 16.3681 10 -7.66477e-07Z" fill="#F9F5F0"/>
<path d="M59.9993 76.0024C60.0174 76.0284 59.7012 76.2783 59.1163 76.7055C58.5275 77.1274 57.6895 77.7586 56.6737 78.5585C54.6413 80.1555 51.9495 82.5139 49.3041 85.432C46.6634 88.3572 44.5887 91.2664 43.2076 93.444C42.5147 94.5323 41.9735 95.426 41.6136 96.0527C41.2484 96.6752 41.0315 97.0136 41.0033 96.9996C40.9744 96.985 41.1369 96.6185 41.4545 95.9681C41.7667 95.3128 42.2669 94.3904 42.9283 93.274C44.2463 91.0404 46.2961 88.074 48.959 85.1247C51.6272 82.182 54.3781 79.8407 56.4736 78.3012C57.521 77.5293 58.3925 76.9361 59.0143 76.5582C59.6327 76.1743 59.9825 75.9757 59.9993 76.0024Z" fill="#BDBDBD"/>
<path d="M44.2968 89C42.9216 79.3723 46.7718 72 46.7718 72C47.9311 82.6011 44.2968 89 44.2968 89Z" fill="#F9F5F0"/>
<path d="M53 83.5533C58.9274 79.5815 65 81.4292 65 81.4292C58.3626 85.4492 53 83.5533 53 83.5533Z" fill="#F9F5F0"/>
<path d="M21 100L26.1491 134H56.0579L63 100.491L21 100" fill="#F9F5F0"/>
<path d="M28.9868 132C28.9244 132.017 28.6556 130.017 28.3869 127.532C28.1177 125.047 27.9504 123.017 28.0132 123C28.0756 122.982 28.3439 124.983 28.6131 127.469C28.8819 129.954 29.0497 131.982 28.9868 132" fill="#DDDDDD"/>
<path d="M34.9798 132C34.8934 132.017 34.5123 130.026 34.2548 127.534C33.9936 125.042 33.9545 123.006 34.0422 123C34.1349 122.994 34.3198 125.01 34.5798 127.491C34.8366 129.972 35.0713 131.982 34.9798 132" fill="#DDDDDD"/>
<path d="M37.9087 132C37.7147 132.008 37.2108 130.001 37.0545 127.51C36.8898 125.018 37.1327 122.998 37.3267 123C37.5318 123.002 37.6128 125.016 37.776 127.497C37.9337 129.978 38.1124 131.991 37.9087 132" fill="#DDDDDD"/>
<path d="M49.0371 132C48.9328 131.99 49.0561 129.968 49.3114 127.483C49.5675 124.997 49.8586 122.99 49.9629 123C50.0672 123.01 49.9439 125.032 49.6879 127.517C49.4325 130.002 49.1407 132.01 49.0371 132Z" fill="#DDDDDD"/>
<path d="M53.0318 131C52.9206 130.989 53.0956 129.38 53.6401 127.438C54.1797 125.494 54.8754 123.974 54.9833 124C55.0994 124.028 54.5893 125.58 54.0538 127.508C53.5142 129.436 53.152 131.013 53.0318 131" fill="#DDDDDD"/>
<path d="M17 93V99.4575C17 100.862 18.1324 102 19.5286 102H63.4714C64.8676 102 66 100.862 66 99.4575V93H17Z" fill="#F9F5F0"/>
<path d="M21 102L21.3652 104.072L61.9711 107L63 102H21" fill="#BDBDBD"/>
</svg>
