<svg width="392" height="410" viewBox="0 0 392 410" fill="none" xmlns="http://www.w3.org/2000/svg">
<g opacity="0.9">
<path d="M333.286 106.524C334.509 106.524 335.5 107.527 335.5 108.763C335.5 107.527 336.492 106.524 337.714 106.524C336.492 106.524 335.5 105.521 335.5 104.284C335.5 105.521 334.509 106.524 333.286 106.524Z" fill="#F9F5F0"/>
<path d="M292.797 34.2115C294.019 34.2115 295.012 35.2145 295.012 36.4513C295.012 35.2145 296.002 34.2115 297.225 34.2115C296.002 34.2115 295.012 33.2086 295.012 31.9718C295.012 33.2086 294.019 34.2115 292.797 34.2115Z" fill="#F9F5F0"/>
<path d="M14.9709 119.335C16.1934 119.335 17.1848 120.337 17.1848 121.574C17.1848 120.337 18.1755 119.335 19.3987 119.335C18.1755 119.335 17.1848 118.332 17.1848 117.095C17.1848 118.332 16.1934 119.335 14.9709 119.335" fill="#F9F5F0"/>
<path d="M387.572 98.6579C388.795 98.6579 389.787 99.6608 389.787 100.898C389.787 99.6608 390.777 98.6579 392 98.6579C390.777 98.6579 389.787 97.655 389.787 96.4182C389.787 97.655 388.795 98.6579 387.572 98.6579Z" fill="#F9F5F0"/>
<path d="M351.156 2.23974C352.379 2.23974 353.37 3.2427 353.37 4.47946C353.37 3.2427 354.361 2.23974 355.584 2.23974C354.361 2.23974 353.37 1.23678 353.37 9.43391e-06C353.37 1.23678 352.379 2.23974 351.156 2.23974Z" fill="#F9F5F0"/>
<path d="M276.573 96.4182C277.795 96.4182 278.787 97.4212 278.787 98.658C278.787 97.4212 279.777 96.4182 281 96.4182C279.777 96.4182 278.787 95.4162 278.787 94.1785C278.787 95.4162 277.795 96.4182 276.573 96.4182Z" fill="#F9F5F0"/>
<path d="M375.062 55.7096C376.284 55.7096 377.276 56.7126 377.276 57.9503C377.276 56.7126 378.267 55.7096 379.49 55.7096C378.267 55.7096 377.276 54.7076 377.276 53.4699C377.276 54.7076 376.284 55.7096 375.062 55.7096Z" fill="#F9F5F0"/>
<path d="M64.0637 90.1821C65.2872 90.1821 66.2777 91.185 66.2777 92.4218C66.2777 91.185 67.2691 90.1821 68.4917 90.1821C67.2691 90.1821 66.2777 89.1791 66.2777 87.9423C66.2777 89.1791 65.2872 90.1821 64.0637 90.1821Z" fill="#F9F5F0"/>
<path d="M261.168 123.814C262.392 123.814 263.382 124.816 263.382 126.053C263.382 124.816 264.374 123.814 265.597 123.814C264.374 123.814 263.382 122.811 263.382 121.574C263.382 122.811 262.392 123.814 261.168 123.814Z" fill="#F9F5F0"/>
<path d="M112.107 21.0296C113.33 21.0296 114.321 22.0326 114.321 23.2693C114.321 22.0326 115.313 21.0296 116.535 21.0296C115.313 21.0296 114.321 20.0276 114.321 18.7908C114.321 20.0276 113.33 21.0296 112.107 21.0296Z" fill="#F9F5F0"/>
<path d="M193.244 3.4847C194.467 3.4847 195.458 4.48766 195.458 5.72443C195.458 4.48766 196.45 3.4847 197.672 3.4847C196.45 3.4847 195.458 2.48174 195.458 1.24497C195.458 2.48174 194.467 3.4847 193.244 3.4847Z" fill="#F9F5F0"/>
<path d="M0 68.747C1.22247 68.747 2.2139 69.7491 2.2139 70.9859C2.2139 69.7491 3.20524 68.747 4.42771 68.747C3.20524 68.747 2.2139 67.7441 2.2139 66.5073C2.2139 67.7441 1.22247 68.747 0 68.747Z" fill="#F9F5F0"/>
<path d="M178.177 130.493C179.401 130.493 180.391 131.496 180.391 132.733C180.391 131.496 181.383 130.493 182.605 130.493C181.383 130.493 180.391 129.491 180.391 128.254C180.391 129.491 179.401 130.493 178.177 130.493Z" fill="#F9F5F0"/>
<path d="M72.7329 146.115C73.9564 146.115 74.9469 147.117 74.9469 148.354C74.9469 147.117 75.9383 146.115 77.1609 146.115C75.9383 146.115 74.9469 145.112 74.9469 143.875C74.9469 145.112 73.9564 146.115 72.7329 146.115Z" fill="#F9F5F0"/>
<path d="M254.778 184.03C256.001 184.03 256.992 185.033 256.992 186.27C256.992 185.033 257.983 184.03 259.206 184.03C257.983 184.03 256.992 183.028 256.992 181.79C256.992 183.028 256.001 184.03 254.778 184.03Z" fill="#F9F5F0"/>
<path d="M220.645 134.604C221.868 134.604 222.859 135.607 222.859 136.844C222.859 135.607 223.85 134.604 225.072 134.604C223.85 134.604 222.859 133.602 222.859 132.365C222.859 133.602 221.868 134.604 220.645 134.604Z" fill="#F9F5F0"/>
<path d="M209.267 53.357C210.49 53.357 211.481 54.36 211.481 55.5967C211.481 54.36 212.472 53.357 213.695 53.357C212.472 53.357 211.481 52.355 211.481 51.1173C211.481 52.355 210.49 53.357 209.267 53.357Z" fill="#F9F5F0"/>
<path d="M259.463 66.8983C260.686 66.8983 261.677 67.9012 261.677 69.138C261.677 67.9012 262.668 66.8983 263.891 66.8983C262.668 66.8983 261.677 65.8962 261.677 64.6585C261.677 65.8962 260.686 66.8983 259.463 66.8983Z" fill="#F9F5F0"/>
<path d="M238.046 70.9607C239.269 70.9607 240.26 71.9636 240.26 73.2004C240.26 71.9636 241.251 70.9607 242.474 70.9607C241.251 70.9607 240.26 69.9586 240.26 68.7209C240.26 69.9586 239.269 70.9607 238.046 70.9607Z" fill="#F9F5F0"/>
<path d="M200.566 89.9184C201.789 89.9184 202.78 90.9213 202.78 92.1581C202.78 90.9213 203.771 89.9184 204.994 89.9184C203.771 89.9184 202.78 88.9163 202.78 87.6786C202.78 88.9163 201.789 89.9184 200.566 89.9184Z" fill="#F9F5F0"/>
<path d="M182.605 34.2115C183.828 34.2115 184.819 35.2145 184.819 36.4513C184.819 35.2145 185.811 34.2115 187.033 34.2115C185.811 34.2115 184.819 33.2086 184.819 31.9718C184.819 33.2086 183.828 34.2115 182.605 34.2115Z" fill="#F9F5F0"/>
<path d="M4.42773 2.23974C5.65065 2.23974 6.64199 3.2427 6.64199 4.47946C6.64199 3.2427 7.63297 2.23974 8.85589 2.23974C7.63297 2.23974 6.64199 1.23678 6.64199 9.43391e-06C6.64199 1.23678 5.65065 2.23974 4.42773 2.23974Z" fill="#F9F5F0"/>
<path d="M327.171 62.3304C328.394 62.3304 329.384 63.3325 329.384 64.5701C329.384 63.3325 330.377 62.3304 331.599 62.3304C330.377 62.3304 329.384 61.3274 329.384 60.0907C329.384 61.3274 328.394 62.3304 327.171 62.3304Z" fill="#F9F5F0"/>
<path d="M242.668 21.0296C243.893 21.0296 244.883 22.0326 244.883 23.2693C244.883 22.0326 245.874 21.0296 247.097 21.0296C245.874 21.0296 244.883 20.0276 244.883 18.7908C244.883 20.0276 243.893 21.0296 242.668 21.0296Z" fill="#F9F5F0"/>
<path d="M25.4155 43.8411C26.6384 43.8411 27.6293 44.8432 27.6293 46.0809C27.6293 44.8432 28.6208 43.8411 29.8436 43.8411C28.6208 43.8411 27.6293 42.8382 27.6293 41.6014C27.6293 42.8382 26.6384 43.8411 25.4155 43.8411Z" fill="#F9F5F0"/>
<path d="M112.107 108.763C113.33 108.763 114.321 109.766 114.321 111.004C114.321 109.766 115.313 108.763 116.535 108.763C115.313 108.763 114.321 107.761 114.321 106.524C114.321 107.761 113.33 108.763 112.107 108.763Z" fill="#F9F5F0"/>
<path d="M58.7141 141.68C57.4909 141.68 56.4999 140.677 56.4999 139.44C56.4999 140.677 55.5088 141.68 54.2856 141.68C55.5088 141.68 56.4999 142.682 56.4999 143.92C56.4999 142.682 57.4909 141.68 58.7141 141.68Z" fill="#F9F5F0"/>
<path d="M129.822 154.882C128.6 154.882 127.608 153.879 127.608 152.642C127.608 153.879 126.618 154.882 125.394 154.882C126.618 154.882 127.608 155.885 127.608 157.122C127.608 155.885 128.6 154.882 129.822 154.882Z" fill="#F9F5F0"/>
<path d="M99.2029 213.992C97.9803 213.992 96.9889 212.989 96.9889 211.753C96.9889 212.989 95.9975 213.992 94.7749 213.992C95.9975 213.992 96.9889 214.994 96.9889 216.232C96.9889 214.994 97.9803 213.992 99.2029 213.992Z" fill="#F9F5F0"/>
<path d="M4.42771 149.545C3.20524 149.545 2.2139 148.543 2.2139 147.305C2.2139 148.543 1.22247 149.545 0 149.545C1.22247 149.545 2.2139 150.548 2.2139 151.785C2.2139 150.548 3.20524 149.545 4.42771 149.545Z" fill="#F9F5F0"/>
<path d="M4.42771 228.135C3.20524 228.135 2.2139 227.133 2.2139 225.896C2.2139 227.133 1.22247 228.135 0 228.135C1.22247 228.135 2.2139 229.138 2.2139 230.375C2.2139 229.138 3.20524 228.135 4.42771 228.135Z" fill="#F9F5F0"/>
<path d="M16.9388 192.493C15.716 192.493 14.7246 191.491 14.7246 190.253C14.7246 191.491 13.7336 192.493 12.5107 192.493C13.7336 192.493 14.7246 193.496 14.7246 194.734C14.7246 193.496 15.716 192.493 16.9388 192.493Z" fill="#F9F5F0"/>
<path d="M388.776 139.44C387.553 139.44 386.563 138.438 386.563 137.2C386.563 138.438 385.57 139.44 384.348 139.44C385.57 139.44 386.563 140.443 386.563 141.68C386.563 140.443 387.553 139.44 388.776 139.44Z" fill="#F9F5F0"/>
<path d="M292.386 190.254C291.162 190.254 290.172 189.251 290.172 188.014C290.172 189.251 289.181 190.254 287.957 190.254C289.181 190.254 290.172 191.257 290.172 192.493C290.172 191.257 291.162 190.254 292.386 190.254Z" fill="#F9F5F0"/>
<path d="M319.917 157.122C318.695 157.122 317.703 156.119 317.703 154.882C317.703 156.119 316.712 157.122 315.489 157.122C316.712 157.122 317.703 158.125 317.703 159.361C317.703 158.125 318.695 157.122 319.917 157.122Z" fill="#F9F5F0"/>
<path d="M355.584 170.827C354.361 170.827 353.37 169.825 353.37 168.587C353.37 169.825 352.379 170.827 351.156 170.827C352.379 170.827 353.37 171.83 353.37 173.068C353.37 171.83 354.361 170.827 355.584 170.827Z" fill="#F9F5F0"/>
<path d="M353.37 202.182C352.147 202.182 351.156 201.179 351.156 199.942C351.156 201.179 350.164 202.182 348.942 202.182C350.164 202.182 351.156 203.184 351.156 204.421C351.156 203.184 352.147 202.182 353.37 202.182Z" fill="#F9F5F0"/>
<path d="M270.025 223.655C268.803 223.655 267.811 222.653 267.811 221.416C267.811 222.653 266.82 223.655 265.597 223.655C266.82 223.655 267.811 224.659 267.811 225.896C267.811 224.659 268.803 223.655 270.025 223.655Z" fill="#F9F5F0"/>
<path d="M209.394 213.992C208.171 213.992 207.18 212.989 207.18 211.753C207.18 212.989 206.19 213.992 204.966 213.992C206.19 213.992 207.18 214.994 207.18 216.232C207.18 214.994 208.171 213.992 209.394 213.992Z" fill="#F9F5F0"/>
<path d="M64.8291 185.873C63.6065 185.873 62.6151 184.87 62.6151 183.634C62.6151 184.87 61.6237 185.873 60.4011 185.873C61.6237 185.873 62.6151 186.876 62.6151 188.113C62.6151 186.876 63.6065 185.873 64.8291 185.873Z" fill="#F9F5F0"/>
<path d="M155.354 194.734C154.131 194.734 153.14 193.731 153.14 192.493C153.14 193.731 152.148 194.734 150.926 194.734C152.148 194.734 153.14 195.736 153.14 196.974C153.14 195.736 154.131 194.734 155.354 194.734Z" fill="#F9F5F0"/>
<path d="M197.672 165.178C196.45 165.178 195.458 164.175 195.458 162.938C195.458 164.175 194.467 165.178 193.244 165.178C194.467 165.178 195.458 166.181 195.458 167.418C195.458 166.181 196.45 165.178 197.672 165.178Z" fill="#F9F5F0"/>
<path d="M392 219.176C390.777 219.176 389.787 218.174 389.787 216.937C389.787 218.174 388.795 219.176 387.572 219.176C388.795 219.176 389.787 220.18 389.787 221.416C389.787 220.18 390.777 219.176 392 219.176Z" fill="#F9F5F0"/>
<path d="M290.172 127.261C288.949 127.261 287.957 126.258 287.957 125.021C287.957 126.258 286.966 127.261 285.744 127.261C286.966 127.261 287.957 128.264 287.957 129.5C287.957 128.264 288.949 127.261 290.172 127.261Z" fill="#F9F5F0"/>
<path d="M178.315 58.723C179.537 58.723 180.529 59.7259 180.529 60.9627C180.529 59.7259 181.52 58.723 182.743 58.723C181.52 58.723 180.529 57.72 180.529 56.4832C180.529 57.72 179.537 58.723 178.315 58.723Z" fill="#F9F5F0"/>
<path d="M121.601 48.6176C122.824 48.6176 123.815 49.6206 123.815 50.8573C123.815 49.6206 124.806 48.6176 126.029 48.6176C124.806 48.6176 123.815 47.6155 123.815 46.3779C123.815 47.6155 122.824 48.6176 121.601 48.6176Z" fill="#F9F5F0"/>
<path d="M106.197 76.0132C107.42 76.0132 108.411 77.0153 108.411 78.252C108.411 77.0153 109.402 76.0132 110.626 76.0132C109.402 76.0132 108.411 75.0103 108.411 73.7735C108.411 75.0103 107.42 76.0132 106.197 76.0132Z" fill="#F9F5F0"/>
<path d="M164.946 109.321C163.723 109.321 162.732 108.318 162.732 107.081C162.732 108.318 161.74 109.321 160.518 109.321C161.74 109.321 162.732 110.324 162.732 111.561C162.732 110.324 163.723 109.321 164.946 109.321Z" fill="#F9F5F0"/>
<path d="M135.2 79.46C133.977 79.46 132.985 78.457 132.985 77.2203C132.985 78.457 131.995 79.46 130.772 79.46C131.995 79.46 132.985 80.4629 132.985 81.6997C132.985 80.4629 133.977 79.46 135.2 79.46Z" fill="#F9F5F0"/>
<path opacity="0.9" d="M328.134 202.974L328.733 203.979C329.404 205.106 330.38 206.017 331.546 206.6L332.585 207.12L331.591 207.725C330.476 208.404 329.577 209.392 329 210.572L328.487 211.623L327.889 210.618C327.219 209.491 326.241 208.58 325.075 207.997L324.037 207.477L325.029 206.871C326.145 206.193 327.044 205.205 327.621 204.025L328.134 202.974" fill="#F9F5F0"/>
<path opacity="0.9" d="M366.493 85.249L367.092 86.2544C367.764 87.3816 368.739 88.2923 369.905 88.8755L370.944 89.3951L369.951 89.9999C368.835 90.6792 367.936 91.667 367.36 92.847L366.846 93.8984L366.248 92.893C365.578 91.7658 364.6 90.8551 363.434 90.2719L362.396 89.7523L363.388 89.1461C364.504 88.4682 365.403 87.4804 365.981 86.3004L366.493 85.249" fill="#F9F5F0"/>
<path opacity="0.9" d="M72.4928 46.684L73.0921 47.6894C73.7636 48.8166 74.7387 49.7272 75.9051 50.3104L76.9444 50.8301L75.9506 51.4349C74.835 52.1142 73.9361 53.102 73.3596 54.282L72.846 55.3334L72.248 54.328C71.5779 53.2008 70.6001 52.2901 69.4337 51.7069L68.3958 51.1873L69.3882 50.5811C70.5038 49.9031 71.4027 48.9153 71.9805 47.7354L72.4928 46.684" fill="#F9F5F0"/>
<path opacity="0.7" d="M119.451 361.293L120.051 362.299C120.722 363.426 121.697 364.337 122.864 364.92L123.903 365.439L122.909 366.044C121.794 366.724 120.895 367.711 120.318 368.891L119.804 369.943L119.207 368.937C118.536 367.81 117.559 366.9 116.392 366.316L115.354 365.797L116.347 365.19C117.462 364.513 118.361 363.525 118.939 362.345L119.451 361.293" fill="#F9F5F0"/>
<path opacity="0.6" d="M43.9096 400.873L44.5088 401.879C45.1803 403.006 46.1554 403.917 47.3218 404.5L48.3612 405.019L47.3673 405.624C46.2518 406.304 45.3529 407.291 44.7764 408.471L44.2627 409.523L43.6648 408.517C42.9947 407.39 42.0169 406.479 40.8505 405.896L39.8125 405.377L40.805 404.77C41.9206 404.092 42.8194 403.105 43.3973 401.925L43.9096 400.873" fill="#F9F5F0"/>
<path opacity="0.6" d="M176.618 280.104L177.217 281.109C177.889 282.236 178.864 283.147 180.03 283.73L181.069 284.25L180.076 284.855C178.96 285.534 178.061 286.522 177.485 287.702L176.971 288.753L176.373 287.748C175.703 286.621 174.725 285.71 173.559 285.127L172.521 284.607L173.513 284.001C174.629 283.323 175.528 282.335 176.106 281.155L176.618 280.104" fill="#F9F5F0"/>
<path opacity="0.9" d="M102.097 131.933L102.696 132.938C103.368 134.066 104.343 134.976 105.509 135.559L106.549 136.079L105.555 136.684C104.439 137.363 103.54 138.351 102.964 139.531L102.45 140.582L101.852 139.577C101.182 138.45 100.204 137.539 99.038 136.956L98 136.436L98.9925 135.83C100.108 135.152 101.007 134.164 101.585 132.984L102.097 131.933" fill="#F9F5F0"/>
<path opacity="0.9" d="M64.2897 240.524L64.8876 241.528C65.5591 242.657 66.5356 243.566 67.702 244.149L68.7413 244.669L67.7475 245.274C66.6319 245.951 65.733 246.941 65.1565 248.121L64.6428 249.172L64.0449 248.167C63.3735 247.039 62.397 246.129 61.2306 245.545L60.1926 245.026L61.1851 244.42C62.3007 243.742 63.1996 242.754 63.7761 241.574L64.2897 240.524" fill="#F9F5F0"/>
</g>
</svg>
