<svg width="364" height="374" viewBox="0 0 364 374" fill="none" xmlns="http://www.w3.org/2000/svg">
<path fill-rule="evenodd" clip-rule="evenodd" d="M125.258 60.9757C125.062 60.4062 124.609 59.9873 124.027 59.9085C123.432 59.8272 122.838 60.117 122.507 60.648L122.419 60.79C122.353 60.8946 122.276 61.014 122.187 61.1477C121.933 61.5293 121.637 61.949 121.3 62.3955C120.343 63.665 119.254 64.8961 118.054 65.9914C115.465 68.3546 112.735 69.7509 109.952 69.825C109.517 69.8366 109.166 70.2123 109.168 70.6642C109.168 70.8935 112.405 73.869 116.381 74.4027C120.237 74.9204 124.834 73.0033 124.918 72.8116L125.077 72.4079L125.127 72.2719C126.205 69.3166 126.615 65.7616 125.553 61.927C125.464 61.6084 125.366 61.2913 125.258 60.9757Z" fill="#E7EAEE"/>
<path fill-rule="evenodd" clip-rule="evenodd" d="M132.778 63.9345L132.715 64.0893C131.896 66.0662 130.375 68.7173 128.43 70.5032C126.035 72.7021 123.114 74.0919 120.375 74.7579C116.424 75.7186 112.579 75.0583 109.541 71.6207L109.408 71.4673C107.822 69.6196 106.52 68.5857 104.358 68.5716C102.195 68.5575 100.801 69.8336 99.5459 71.0279L99.4897 71.0775C99.2975 71.2354 99.0567 71.3159 98.8133 71.3018L94.811 70.9095L95.7209 73.0962C95.9937 73.7582 96.1861 74.2343 96.2981 74.5246L97.2659 77.0484C100.158 84.5424 103.474 91.8462 113.623 92.3448L113.968 92.359C116.668 92.4494 118.374 94.607 120.421 97.6618L120.857 98.3178C121.397 99.133 123.007 101.677 123.628 102.86L123.829 103.25L124.014 103.618C124.052 103.695 124.088 103.769 124.122 103.84L124.309 104.235L124.532 104.073C126.952 102.28 129.015 99.1142 130.369 96.4094C130.88 95.3874 131.285 94.3861 131.594 93.4449L131.634 93.3222C131.722 93.0467 131.794 92.8045 131.849 92.6011L131.89 92.45L131.594 92.4605C128.178 92.5509 124.593 91.6902 121.232 90.3404C120.42 90.0143 131.714 84.6855 132.53 74.0835C132.715 71.6672 133.266 68.5175 133.074 66.2279C133.013 65.5058 132.929 64.8377 132.829 64.2338L132.778 63.9345Z" fill="white"/>
<path fill-rule="evenodd" clip-rule="evenodd" d="M125.258 60.9757C125.062 60.4062 124.609 59.9873 124.027 59.9085C123.432 59.8272 122.838 60.117 122.507 60.648L122.419 60.79C122.353 60.8946 122.276 61.014 122.187 61.1477C121.933 61.5293 121.637 61.949 121.3 62.3955C120.343 63.665 119.254 64.8961 118.054 65.9914C115.465 68.3546 112.735 69.7509 109.952 69.825C109.517 69.8366 109.166 70.2123 109.168 70.6642C109.169 71.116 116.231 69.8103 119.078 67.2107C120.36 66.0405 121.516 64.7339 122.532 63.3872C122.838 62.9809 123.113 62.5946 123.357 62.2353L123.476 62.0579C123.573 61.9127 123.657 61.7821 123.73 61.6662C123.764 61.5788 123.782 61.5511 123.782 61.5832C127.293 65.8542 123.52 73.1077 123.927 73.2569C124.316 73.3994 124.747 73.201 124.918 72.8116L125.077 72.4079L125.127 72.2719V72.2719C126.205 69.3166 126.615 65.7616 125.553 61.927C125.464 61.6084 125.366 61.2913 125.258 60.9757Z" fill="#E7EAEE"/>
<path fill-rule="evenodd" clip-rule="evenodd" d="M134.309 63.376L134.356 63.5803L134.412 63.8408C134.444 64.0008 134.479 64.1857 134.516 64.3937C134.642 65.1144 134.749 65.9204 134.822 66.7975C135.03 69.2664 134.946 71.8483 134.461 74.4318C133.804 77.9377 132.46 81.0529 130.469 83.6806L130.3 83.9007C128.706 85.9433 126.719 87.6735 124.366 89.0731L124.133 89.2092L124.287 89.2588C126.913 90.0877 129.608 90.5432 132.125 90.392C132.665 90.3597 133.182 90.5897 133.526 91.0145C133.869 91.4385 134 92.008 133.882 92.5569L133.842 92.7268L133.787 92.9501V92.9501L133.764 93.0356C133.681 93.3458 133.579 93.6912 133.456 94.0666C133.115 95.1035 132.672 96.2014 132.111 97.3215C130.527 100.486 128.315 103.254 125.363 105.295C124.972 105.566 124.496 105.664 124.044 105.57L123.941 105.545C123.468 105.408 123.089 105.086 122.874 104.652L122.722 104.317L122.646 104.156V104.156L122.484 103.82L122.304 103.459C122.241 103.335 122.175 103.208 122.107 103.077C121.522 101.964 120.851 100.835 120.103 99.7616C118.032 96.7868 115.793 94.8204 113.551 94.3679C109.884 93.6282 106.945 92.6518 104.392 91.0968C101.092 89.0863 98.8322 86.2711 97.8504 82.4905L97.7962 82.2755C97.3034 80.2603 96.4226 77.8551 95.3084 75.2986C94.964 74.5086 94.6182 73.7524 94.2839 73.0492L94.1413 72.7511C93.9126 72.2756 93.7229 71.8947 93.6424 71.7388C93.3455 71.1617 93.3775 70.4565 93.7247 69.8968L93.7738 69.8218C94.1285 69.3069 94.7117 69.0113 95.3165 69.0466L98.5599 69.235L98.6102 69.1904C100.148 67.8508 102.089 66.8872 104.324 66.8885C106.655 66.8898 108.809 68.0089 110.704 70.156L110.836 70.3075C113.379 73.271 116.497 73.9805 119.861 73.1626C122.264 72.5784 124.783 71.168 126.935 69.1922C128.936 67.3553 130.406 65.2126 130.966 63.3604C131.201 62.5864 131.895 62.0541 132.671 62.057C133.447 62.0597 134.115 62.5985 134.309 63.376ZM132.778 63.9346L132.715 64.0894C131.896 66.0662 130.375 68.7173 128.43 70.5032C126.035 72.7021 123.114 74.0919 120.375 74.758C116.424 75.7186 112.579 75.0583 109.541 71.6207L109.408 71.4673C107.822 69.6196 106.52 68.5857 104.358 68.5716C102.195 68.5575 100.801 69.8336 99.5459 71.0279L99.4897 71.0776C99.2975 71.2355 99.0567 71.3159 98.8133 71.3018L94.8109 70.9096L95.7208 73.0962C95.9936 73.7582 96.1861 74.2344 96.2981 74.5246L97.2659 77.0484C100.158 84.5424 103.474 91.8462 113.623 92.3448L113.968 92.3591C116.668 92.4494 118.374 94.607 120.421 97.6618L120.857 98.3178C121.397 99.133 123.007 101.677 123.628 102.86L123.829 103.25L124.014 103.618C124.052 103.695 124.088 103.769 124.122 103.84L124.309 104.235L124.532 104.073C126.952 102.28 129.015 99.1142 130.369 96.4094C130.88 95.3874 131.285 94.3861 131.594 93.4449L131.634 93.3223C131.722 93.0467 131.794 92.8045 131.849 92.6011L131.89 92.45L131.594 92.4605C128.178 92.551 124.593 91.6903 121.232 90.3404C120.42 90.0143 131.714 84.6855 132.53 74.0835C132.715 71.6672 133.266 68.5175 133.074 66.2279C133.013 65.5058 132.929 64.8377 132.829 64.2339L132.778 63.9346Z" fill="#E7EAEE"/>
<path fill-rule="evenodd" clip-rule="evenodd" d="M103.967 75.3389C104.698 75.5349 105.46 75.0721 105.665 74.307C105.87 73.542 105.442 72.7602 104.71 72.5641C103.979 72.3681 103.217 72.8309 103.012 73.596C102.807 74.3609 103.235 75.1428 103.967 75.3389Z" fill="#00160A"/>
<ellipse cx="104.095" cy="79.4094" rx="2.15872" ry="1.84668" transform="rotate(15 104.095 79.4094)" fill="#FFB61D"/>
<ellipse cx="104.095" cy="79.4094" rx="2.15872" ry="1.84668" transform="rotate(15 104.095 79.4094)" fill="#FFB61D"/>
<path fill-rule="evenodd" clip-rule="evenodd" d="M134.309 63.376L134.356 63.5803L134.412 63.8408C134.444 64.0008 134.479 64.1857 134.516 64.3937C134.642 65.1144 134.749 65.9204 134.822 66.7975C135.03 69.2664 134.946 71.8483 134.461 74.4318C133.804 77.9377 132.46 81.0529 130.469 83.6806L130.3 83.9007C128.706 85.9433 126.719 87.6735 124.366 89.0731L124.133 89.2092L124.287 89.2588C126.913 90.0877 129.608 90.5432 132.125 90.392C132.665 90.3597 133.182 90.5897 133.526 91.0145C133.869 91.4385 134 92.008 133.882 92.5569L133.842 92.7268L133.787 92.9501L133.764 93.0356C133.681 93.3458 133.579 93.6912 133.456 94.0666C133.115 95.1035 132.672 96.2014 132.111 97.3215C130.527 100.486 128.315 103.254 125.363 105.295C124.972 105.566 124.496 105.664 124.044 105.57L123.941 105.545C123.468 105.408 123.089 105.086 122.874 104.652L122.722 104.317L122.646 104.156L122.484 103.82L122.304 103.459C122.241 103.335 122.175 103.208 122.107 103.077C121.522 101.964 120.851 100.835 120.103 99.7616C118.032 96.7868 115.793 94.8204 113.551 94.3679C109.884 93.6282 106.945 92.6518 104.392 91.0968C101.092 89.0863 98.8322 86.2711 97.8504 82.4905L97.7962 82.2755C97.3034 80.2603 96.4226 77.8551 95.3084 75.2986C94.964 74.5086 94.6182 73.7524 94.2839 73.0492L94.1413 72.7511C93.9126 72.2756 93.7229 71.8947 93.6424 71.7388C93.3455 71.1617 93.3775 70.4565 93.7247 69.8968L93.7738 69.8218C94.1285 69.3069 94.7117 69.0113 95.3165 69.0466L98.5599 69.235L98.6102 69.1904C100.148 67.8508 102.089 66.8872 104.324 66.8885C106.524 66.8897 108.566 67.8864 110.382 69.8031C113.015 69.6046 115.598 68.2329 118.054 65.9914C119.254 64.8961 120.343 63.665 121.3 62.3955C121.637 61.949 121.933 61.5293 122.187 61.1477C122.276 61.014 122.353 60.8946 122.419 60.79L122.507 60.648C122.837 60.117 123.432 59.8272 124.027 59.9085C124.609 59.9872 125.062 60.4062 125.258 60.9757C125.366 61.2913 125.464 61.6084 125.553 61.9269C126.377 64.9036 126.315 67.7117 125.741 70.2017C126.149 69.8845 126.548 69.5475 126.935 69.1922C128.936 67.3553 130.406 65.2126 130.966 63.3604C131.201 62.5864 131.895 62.0541 132.671 62.057C133.447 62.0597 134.115 62.5985 134.309 63.376ZM119.861 73.1626C116.593 73.957 113.558 73.3104 111.056 70.5567C113.355 70.1181 117.166 68.956 119.078 67.2107C120.36 66.0405 121.516 64.7339 122.532 63.3872C122.838 62.9809 123.113 62.5946 123.357 62.2353L123.476 62.0579C123.573 61.9127 123.657 61.7821 123.73 61.6662C123.764 61.5788 123.782 61.5511 123.782 61.5832C126.116 64.4222 125.231 68.5791 124.495 71.0912C122.987 72.075 121.4 72.7883 119.861 73.1626ZM120.375 74.758C121.701 74.4355 123.07 73.9434 124.401 73.272C124.497 73.2439 124.587 73.1973 124.667 73.1349C125.991 72.4404 127.272 71.5664 128.43 70.5033C130.375 68.7173 131.896 66.0662 132.715 64.0894L132.778 63.9346L132.829 64.2339C132.929 64.8377 133.013 65.5058 133.074 66.2279C133.208 67.8213 132.982 69.8312 132.769 71.7206L132.769 71.7207C132.676 72.5462 132.586 73.3488 132.53 74.0835C131.904 82.2095 125.124 87.2377 122.356 89.2899C121.513 89.9153 121.042 90.2643 121.232 90.3404C124.593 91.6903 128.178 92.551 131.594 92.4605L131.89 92.45L131.849 92.6011C131.794 92.8045 131.722 93.0467 131.634 93.3223L131.594 93.4449C131.285 94.3861 130.88 95.3874 130.369 96.4094C129.015 99.1142 126.952 102.28 124.532 104.073L124.309 104.235L124.122 103.84C124.088 103.769 124.052 103.695 124.014 103.618L123.829 103.25L123.628 102.86C123.007 101.677 121.397 99.133 120.857 98.3178L120.421 97.6618C118.374 94.607 116.668 92.4494 113.968 92.3591L113.623 92.3448C103.474 91.8462 100.158 84.5424 97.2659 77.0484L96.2981 74.5246C96.1861 74.2344 95.9936 73.7582 95.7208 73.0962L94.8109 70.9096L98.8133 71.3018C99.0567 71.3159 99.2975 71.2355 99.4897 71.0776L99.5459 71.0279C100.801 69.8336 102.195 68.5575 104.358 68.5716C106.52 68.5857 107.822 69.6196 109.408 71.4673L109.541 71.6207C112.579 75.0583 116.424 75.7186 120.375 74.758ZM105.665 74.307C105.46 75.072 104.698 75.5349 103.967 75.3388C103.235 75.1428 102.807 74.3608 103.012 73.5959C103.216 72.8309 103.978 72.368 104.71 72.5641C105.442 72.7601 105.87 73.542 105.665 74.307Z" fill="#00160A"/>
</svg>
