<svg width="319" height="374" viewBox="0 0 319 374" fill="none" xmlns="http://www.w3.org/2000/svg">
<path fill-rule="evenodd" clip-rule="evenodd" d="M88.0376 256.755C124.623 279.073 155.955 239.44 189.069 251.967C207.197 258.824 241.79 278.232 260.17 209.307C271.881 164.768 235.651 143.121 189.1 155.098C175.896 156.775 166.906 152.75 158.001 145.182C149.096 137.615 141.76 112.518 118.225 101.452C47.399 68.1541 -48.9752 173.172 88.0376 256.755Z" fill="#DDC5F7"/>
<path fill-rule="evenodd" clip-rule="evenodd" d="M212.401 170.129C213.248 169.95 214.388 171.043 213.296 172.017C210.877 174.175 216.117 181.183 215.22 176.004C215.124 175.451 214.868 171.731 216.051 173.933C217.233 176.135 217.457 184.525 215.248 186.804C213.309 188.803 209.546 188.993 204.782 187.859L204.568 187.807L204.465 187.786C201.642 187.175 200.012 184.805 199.588 180.927L199.569 180.738C199.173 176.691 200.341 173.846 203.107 172.457C203.157 172.432 203.21 172.411 203.263 172.395L203.344 172.374L212.401 170.129Z" fill="white"/>
<path fill-rule="evenodd" clip-rule="evenodd" d="M80.2576 60.9758C80.0617 60.4063 79.6093 59.9873 79.0273 59.9086C78.4316 59.8273 77.8375 60.1171 77.5073 60.6481L77.4191 60.7901C77.3531 60.8947 77.2759 61.014 77.187 61.1477C76.9332 61.5293 76.637 61.9491 76.3004 62.3956C75.3433 63.6651 74.254 64.8962 73.0541 65.9915C70.4651 68.3547 67.7345 69.751 64.9523 69.8251C64.5174 69.8367 64.1661 70.2124 64.1675 70.6642C64.1683 70.8936 67.4053 73.869 71.3808 74.4028C75.2369 74.9205 79.8337 73.0034 79.918 72.8117L80.0765 72.4079L80.1271 72.272C81.2051 69.3166 81.6146 65.7616 80.5526 61.927C80.4644 61.6085 80.3661 61.2914 80.2576 60.9758Z" fill="#E7EAEE"/>
<path fill-rule="evenodd" clip-rule="evenodd" d="M87.778 63.9346L87.7153 64.0894C86.8962 66.0663 85.3749 68.7173 83.4297 70.5033C81.0349 72.7022 78.1143 74.092 75.3751 74.758C71.4236 75.7187 67.5794 75.0583 64.5413 71.6207L64.4078 71.4674C62.8222 69.6197 61.5204 68.5858 59.3578 68.5717C57.1952 68.5576 55.8011 69.8337 54.5459 71.0279L54.4898 71.0776C54.2975 71.2355 54.0567 71.316 53.8133 71.3018L49.811 70.9096L50.7209 73.0963C50.9937 73.7583 51.1861 74.2344 51.2981 74.5246L52.2659 77.0485C55.1578 84.5424 58.4738 91.8463 68.623 92.3449L68.9677 92.3591C71.6678 92.4495 73.3737 94.6071 75.4206 97.6619L75.8571 98.3178C76.3966 99.1331 78.0066 101.677 78.6276 102.86L78.8295 103.25L79.0138 103.618C79.052 103.695 79.0882 103.769 79.1225 103.84L79.3091 104.235L79.532 104.073C81.9522 102.28 84.0152 99.1143 85.3689 96.4094C85.8803 95.3875 86.285 94.3861 86.5939 93.445L86.6337 93.3223C86.7223 93.0467 86.7938 92.8046 86.8494 92.6012L86.8899 92.4501L86.5941 92.4606C83.1784 92.551 79.5933 91.6903 76.2317 90.3405C75.4196 90.0144 86.714 84.6855 87.5295 74.0835C87.7154 71.6672 88.2664 68.5176 88.0738 66.228C88.013 65.5058 87.9285 64.8377 87.8292 64.2339L87.778 63.9346Z" fill="white"/>
<path fill-rule="evenodd" clip-rule="evenodd" d="M212.468 171.484L203.519 173.376C201.182 174.55 200.191 176.962 200.548 180.612C200.674 181.893 201.024 184.958 201.316 183.869C201.407 183.529 210.054 180.493 211.325 181.357C212.501 182.156 211.263 177.459 211.112 175.411L212.495 171.381L212.821 171.03" fill="#E7EAEE"/>
<path fill-rule="evenodd" clip-rule="evenodd" d="M201.155 171.672C201.678 171.813 198.321 172.476 197.754 175.207C197.186 177.938 197.868 183.434 197.327 183.498C196.785 183.563 196.245 181.869 196.196 181.308C195.885 177.815 196.013 176.458 196.552 174.614C197.257 172.2 198.871 171.061 201.155 171.672Z" fill="#E7EAEE"/>
<ellipse cx="213.64" cy="177.873" rx="2.11953" ry="5.00624" transform="rotate(15 213.64 177.873)" fill="#E7EAEE"/>
<path fill-rule="evenodd" clip-rule="evenodd" d="M56.9758 190.541C59.224 182.151 61.0931 178.742 71.8946 176.728C93.7401 173.693 93.8257 173.373 135.491 168.25C146.505 166.916 164.898 182.109 175.088 180.538C181.881 179.49 188.096 179.026 193.827 177.717C193.424 181.166 195.06 187.627 195.909 188.89C189.684 188.605 183.463 189.076 177.246 190.303C163.804 192.956 171.269 193.252 147.485 206.761C145.47 207.905 138.651 209.92 129.179 211.383C129.179 211.383 112.76 204.416 106.715 199.607C100.563 194.713 92.5874 182.273 92.5874 182.273C92.5874 182.273 78.0317 187.369 69.9459 189.247C66.1612 190.126 56.9758 190.541 56.9758 190.541Z" fill="white"/>
<path fill-rule="evenodd" clip-rule="evenodd" d="M58.1439 186.181C58.6716 184.212 58.841 182.783 59.4473 181.317C61.4242 176.534 64.6462 174.679 72.9123 173.138C94.7578 170.103 94.9938 169.013 136.659 163.889C147.673 162.555 166.066 177.749 176.256 176.177C183.049 175.13 189.264 174.665 194.995 173.356C194.984 173.455 193.246 177.851 193.246 177.851C193.246 177.851 179.02 181.373 170.433 180.627C161.31 179.835 151.262 169.48 138.374 169.795C118.748 170.275 72.3161 175.871 66.2267 178.76C61.442 181.03 58.1439 186.181 58.1439 186.181Z" fill="#E7EAEE"/>
<path fill-rule="evenodd" clip-rule="evenodd" d="M80.2576 60.9758C80.0617 60.4063 79.6093 59.9873 79.0273 59.9086C78.4316 59.8273 77.8375 60.1171 77.5073 60.6481L77.4191 60.7901C77.3531 60.8947 77.2759 61.014 77.187 61.1477C76.9332 61.5293 76.637 61.9491 76.3004 62.3956C75.3433 63.6651 74.254 64.8962 73.0541 65.9915C70.4651 68.3547 67.7345 69.751 64.9523 69.8251C64.5174 69.8367 64.1661 70.2124 64.1675 70.6642C64.169 71.1161 71.2305 69.8104 74.0784 67.2108C75.3604 66.0406 76.5164 64.734 77.5318 63.3872C77.8381 62.9809 78.1134 62.5946 78.3569 62.2353L78.476 62.0579C78.5726 61.9128 78.6571 61.7821 78.7302 61.6663C78.7643 61.5788 78.7816 61.5511 78.7821 61.5832C82.2934 65.8542 78.5196 73.1077 78.9268 73.257C79.3155 73.3995 79.7467 73.2011 79.918 72.8117L80.0765 72.4079L80.1271 72.272C81.2051 69.3166 81.6146 65.7616 80.5526 61.927C80.4644 61.6085 80.3661 61.2914 80.2576 60.9758Z" fill="#E7EAEE"/>
<path fill-rule="evenodd" clip-rule="evenodd" d="M89.3086 63.376L89.3565 63.5803L89.4118 63.8409C89.4443 64.0009 89.4795 64.1858 89.5159 64.3937C89.6421 65.1145 89.7487 65.9204 89.8225 66.7976C90.0302 69.2664 89.9462 71.8484 89.4614 74.4319C88.8036 77.9378 87.4605 81.0529 85.4689 83.6807L85.2997 83.9007C83.7064 85.9434 81.7189 87.6735 79.3658 89.0731L79.1332 89.2093L79.2867 89.2589C81.9132 90.0878 84.6082 90.5433 87.1252 90.3921C87.6649 90.3597 88.1822 90.5897 88.526 91.0145C88.869 91.4385 89 92.008 88.8815 92.557L88.8425 92.7269L88.7867 92.9501L88.7638 93.0356C88.6807 93.3458 88.5788 93.6912 88.4556 94.0667C88.1153 95.1035 87.6716 96.2015 87.111 97.3215C85.5274 100.486 83.3146 103.254 80.3633 105.295C79.9716 105.566 79.4964 105.664 79.0445 105.57L78.9409 105.545C78.468 105.408 78.0888 105.086 77.8743 104.652L77.7219 104.317L77.6463 104.156L77.4841 103.82L77.3041 103.459C77.2413 103.336 77.1755 103.208 77.1069 103.077C76.5224 101.964 75.8507 100.835 75.1035 99.7616C73.0323 96.7868 70.7926 94.8204 68.5511 94.3679C64.8843 93.6282 61.9452 92.6519 59.3925 91.0968C56.0923 89.0864 53.8323 86.2712 52.8505 82.4906L52.7963 82.2756C52.3035 80.2604 51.4226 77.8551 50.3084 75.2987C49.964 74.5087 49.6182 73.7525 49.2839 73.0493L49.1413 72.7512C48.9126 72.2757 48.7229 71.8948 48.6424 71.7388C48.3455 71.1618 48.3775 70.4566 48.7247 69.8969L48.7738 69.8219C49.1285 69.307 49.7117 69.0113 50.3165 69.0466L53.5599 69.235L53.6102 69.1905C55.1478 67.8509 57.0888 66.8873 59.3238 66.8886C61.6551 66.8899 63.8088 68.0089 65.7044 70.1561L65.8362 70.3076C68.3794 73.2711 71.4971 73.9805 74.8612 73.1627C77.2641 72.5784 79.7831 71.168 81.9349 69.1923C83.9355 67.3553 85.4063 65.2126 85.9665 63.3605C86.2006 62.5865 86.8953 62.0542 87.6708 62.0571C88.4471 62.0597 89.1153 62.5985 89.3086 63.376ZM87.778 63.9346L87.7152 64.0894C86.8962 66.0663 85.3749 68.7173 83.4297 70.5033C81.0349 72.7022 78.1143 74.092 75.3751 74.758C71.4236 75.7187 67.5794 75.0584 64.5413 71.6207L64.4078 71.4674C62.8222 69.6197 61.5204 68.5858 59.3578 68.5717C57.1952 68.5576 55.8011 69.8337 54.5459 71.0279L54.4898 71.0776C54.2975 71.2355 54.0567 71.316 53.8133 71.3018L49.811 70.9096L50.7209 73.0963C50.9937 73.7583 51.1861 74.2344 51.2981 74.5246L52.2659 77.0485C55.1578 84.5424 58.4738 91.8463 68.623 92.3449L68.9677 92.3591C71.6678 92.4495 73.3737 94.6071 75.4206 97.6619L75.8571 98.3179C76.3966 99.1331 78.0066 101.677 78.6276 102.86L78.8295 103.25L79.0138 103.618C79.052 103.695 79.0882 103.769 79.1225 103.84L79.3091 104.235L79.532 104.073C81.9522 102.28 84.0152 99.1143 85.3688 96.4095C85.8803 95.3875 86.285 94.3861 86.5939 93.445L86.6337 93.3223C86.7223 93.0468 86.7938 92.8046 86.8494 92.6012L86.8899 92.4501L86.5941 92.4606C83.1784 92.551 79.5932 91.6903 76.2317 90.3405C75.4196 90.0144 86.714 84.6856 87.5295 74.0836C87.7154 71.6672 88.2664 68.5176 88.0738 66.228C88.013 65.5059 87.9285 64.8377 87.8292 64.2339L87.778 63.9346Z" fill="#E7EAEE"/>
<path fill-rule="evenodd" clip-rule="evenodd" d="M58.9667 75.3389C59.6984 75.5349 60.4604 75.0721 60.6654 74.307C60.8704 73.542 60.4419 72.7602 59.7102 72.5641C58.9785 72.3681 58.2165 72.8309 58.0115 73.596C57.8066 74.3609 58.235 75.1428 58.9667 75.3389Z" fill="#00160A"/>
<ellipse cx="59.0951" cy="79.4093" rx="2.15872" ry="1.84668" transform="rotate(15 59.0951 79.4093)" fill="#FFB61D"/>
<ellipse cx="59.0951" cy="79.4093" rx="2.15872" ry="1.84668" transform="rotate(15 59.0951 79.4093)" fill="#FFB61D"/>
<path fill-rule="evenodd" clip-rule="evenodd" d="M89.3086 63.376L89.3565 63.5803L89.4118 63.8409C89.4443 64.0008 89.4795 64.1858 89.5159 64.3937C89.6421 65.1145 89.7487 65.9204 89.8225 66.7976C90.0302 69.2664 89.9462 71.8484 89.4614 74.4319C88.8036 77.9378 87.4605 81.0529 85.4689 83.6807L85.2997 83.9007C83.7064 85.9434 81.7189 87.6735 79.3658 89.0731L79.1332 89.2093L79.2867 89.2588C81.9132 90.0878 84.6082 90.5433 87.1252 90.3921C87.6649 90.3597 88.1822 90.5897 88.526 91.0145C88.869 91.4385 89 92.008 88.8815 92.557L88.8425 92.7269L88.7867 92.9501L88.7638 93.0356C88.6807 93.3458 88.5788 93.6912 88.4556 94.0666C88.1153 95.1035 87.6716 96.2014 87.111 97.3215C85.5274 100.486 83.3146 103.254 80.3633 105.295C79.9716 105.566 79.4964 105.664 79.0445 105.57L78.9409 105.545C78.468 105.408 78.0888 105.086 77.8743 104.652L77.7219 104.317L77.6463 104.156L77.4841 103.82L77.3041 103.459C77.2413 103.336 77.1755 103.208 77.1069 103.077C76.5224 101.964 75.8507 100.835 75.1035 99.7616C73.0323 96.7868 70.7926 94.8204 68.5511 94.3679C64.8843 93.6282 61.9452 92.6519 59.3925 91.0968C56.0923 89.0864 53.8323 86.2712 52.8505 82.4906L52.7963 82.2756C52.3035 80.2604 51.4226 77.8551 50.3084 75.2987C49.964 74.5086 49.6182 73.7525 49.2839 73.0493L49.1413 72.7512C48.9126 72.2757 48.7229 71.8948 48.6424 71.7388C48.3455 71.1618 48.3775 70.4566 48.7247 69.8969L48.7738 69.8219C49.1285 69.307 49.7117 69.0113 50.3165 69.0466L53.5599 69.235L53.6102 69.1905C55.1478 67.8509 57.0888 66.8873 59.3238 66.8886C61.5238 66.8898 63.5657 67.8864 65.3817 69.8032C68.0154 69.6046 70.5985 68.233 73.0541 65.9915C74.254 64.8962 75.3433 63.6651 76.3004 62.3956C76.637 61.9491 76.9332 61.5293 77.187 61.1477C77.2759 61.014 77.3531 60.8947 77.4191 60.7901L77.5073 60.6481C77.8375 60.1171 78.4315 59.8273 79.0273 59.9086C79.6093 59.9873 80.0617 60.4063 80.2576 60.9758C80.3661 61.2913 80.4644 61.6085 80.5526 61.927C81.3769 64.9036 81.3147 67.7117 80.7413 70.2017C81.1492 69.8845 81.548 69.5475 81.9349 69.1923C83.9355 67.3553 85.4063 65.2126 85.9665 63.3605C86.2006 62.5865 86.8953 62.0542 87.6708 62.0571C88.4471 62.0597 89.1153 62.5985 89.3086 63.376ZM74.8612 73.1627C71.5935 73.9571 68.5582 73.3104 66.0562 70.5567C68.3551 70.1181 72.1663 68.9561 74.0783 67.2108C75.3604 66.0406 76.5164 64.734 77.5318 63.3872C77.8381 62.9809 78.1134 62.5946 78.3569 62.2353L78.476 62.0579C78.5726 61.9128 78.6571 61.7821 78.7302 61.6663C78.7643 61.5788 78.7816 61.5511 78.7821 61.5832C81.1162 64.4223 80.2312 68.5792 79.4951 71.0913C77.9875 72.0751 76.4005 72.7884 74.8612 73.1627ZM75.3751 74.758C76.7013 74.4356 78.07 73.9435 79.4009 73.272C79.4967 73.2439 79.5872 73.1974 79.6673 73.135C80.991 72.4405 82.2718 71.5664 83.4297 70.5033C85.3749 68.7173 86.8962 66.0663 87.7153 64.0894L87.778 63.9346L87.8292 64.2339C87.9285 64.8377 88.013 65.5058 88.0738 66.228C88.2079 67.8214 87.9818 69.8313 87.7692 71.7207L87.7692 71.7207C87.6763 72.5463 87.5861 73.3488 87.5295 74.0836C86.9044 82.2095 80.1235 87.2378 77.356 89.29C76.5127 89.9153 76.042 90.2643 76.2317 90.3405C79.5933 91.6903 83.1784 92.551 86.5941 92.4606L86.8899 92.4501L86.8494 92.6012C86.7938 92.8046 86.7223 93.0467 86.6338 93.3223L86.5939 93.445C86.285 94.3861 85.8803 95.3875 85.3689 96.4095C84.0152 99.1143 81.9522 102.28 79.532 104.073L79.3091 104.235L79.1225 103.84C79.0882 103.769 79.052 103.695 79.0138 103.618L78.8295 103.25L78.6276 102.86C78.0066 101.677 76.3966 99.1331 75.8571 98.3179L75.4206 97.6619C73.3737 94.6071 71.6678 92.4495 68.9677 92.3591L68.623 92.3449C58.4738 91.8463 55.1578 84.5424 52.2659 77.0485L51.2981 74.5246C51.1861 74.2344 50.9937 73.7583 50.7209 73.0963L49.811 70.9096L53.8133 71.3018C54.0567 71.316 54.2975 71.2355 54.4897 71.0776L54.5459 71.0279C55.8011 69.8337 57.1952 68.5576 59.3578 68.5717C61.5204 68.5858 62.8222 69.6197 64.4078 71.4674L64.5413 71.6207C67.5794 75.0583 71.4236 75.7187 75.3751 74.758ZM212.401 170.13C213.248 169.95 214.388 171.043 213.296 172.018C211.642 173.493 211.833 177.998 211.949 180.742C212.003 182.011 212.041 182.904 211.873 182.945C211.341 183.074 210.818 182.733 210.706 182.183C210.097 179.204 209.902 176.917 210.139 175.281C210.256 174.467 210.44 173.698 210.69 172.976L210.72 172.893L203.824 174.351L203.727 174.404C201.997 175.381 200.976 176.78 201.238 179.812L201.255 179.988C201.567 183.178 202.852 185.75 204.793 186.177L204.945 186.209C209.229 187.261 212.134 186.603 213.48 185.215C215.173 183.469 216.117 181.183 215.22 176.004C215.124 175.451 214.868 171.731 216.051 173.933C217.233 176.135 217.457 184.525 215.248 186.804C213.403 188.706 209.908 188.97 205.471 188.015C205.466 188.138 205.438 188.263 205.387 188.384C204.184 191.216 202.403 192.723 200.111 192.683C198.359 192.652 196.738 191.636 195.471 189.896C189.448 189.649 183.427 190.12 177.408 191.308L176.516 191.487C173.439 192.115 171.639 192.607 170.267 193.185C169.461 193.525 168.769 193.907 167.994 194.432L167.868 194.52C167.487 194.791 166.647 195.423 165.69 196.142C164.418 197.099 162.94 198.21 162.07 198.829L161.651 199.126C158.125 201.608 153.788 204.335 147.942 207.656L147.779 207.745C145.612 208.9 140.271 210.404 133.785 211.627C149.799 215.286 162.927 212.022 173.283 201.853C173.738 201.406 174.465 201.494 174.789 202.035C183.856 217.171 196.571 226.458 212.984 229.938C229.44 233.427 242.529 232.208 252.275 226.334C252.75 226.048 253.35 226.211 253.614 226.698C253.879 227.186 253.709 227.812 253.234 228.099C243.01 234.26 224.357 235.941 207.467 232.36C191.041 228.878 183.246 219.311 173.963 204.532L173.736 204.168L173.581 204.313C162.433 214.617 143.007 219.105 126.005 214.687L125.473 214.546C108.118 209.896 100.463 198.428 91.9716 183.281L91.9056 183.163L91.8539 183.189C91.4292 183.399 91.008 183.608 90.59 183.814C77.032 190.528 66.9155 195.538 54.108 194.078L53.6999 194.03C39.028 193.247 20.0665 179.781 17.8581 175.079C15.8345 170.771 18.7078 173.882 19.4965 174.735L19.497 174.736C19.5688 174.814 19.6233 174.873 19.6552 174.906C27.371 182.869 37.4053 187.803 50.6035 189.397C52.425 189.616 54.2571 189.752 56.0997 189.804L56.132 189.604C57.0539 183.943 57.6962 181.533 59.2369 178.982C61.3326 175.512 64.7396 173.362 70.0996 172.363L71.5698 172.109C78.1633 170.977 83.3683 170.196 88.7312 169.518L89.1239 169.469C89.7252 169.394 90.334 169.319 90.955 169.244L91.5631 169.173C91.7814 169.152 94.6589 168.773 99.0331 168.196L99.0359 168.195L99.0437 168.194L99.0464 168.194L99.0468 168.194L99.0519 168.193C109.145 166.862 127.182 164.483 138.923 163.039C141.462 162.732 144.321 163.169 147.677 164.265L147.966 164.361C150.475 165.201 152.887 166.236 156.801 168.082L160.237 169.712C164.077 171.524 165.955 172.336 168.193 173.117C168.896 173.363 169.561 173.612 170.192 173.849C172.53 174.725 174.412 175.431 176.133 175.165C177.664 174.929 179.162 174.707 180.63 174.489C185.432 173.776 189.911 173.111 194.153 172.173C194.873 170.51 195.867 169.407 197.116 168.839C199.041 167.963 201.279 168.539 203.005 169.845C203.44 170.174 203.527 170.813 203.201 171.273C203.095 171.421 202.721 171.24 202.192 170.982C201.086 170.445 199.301 169.578 197.871 170.71C196.281 171.97 195.247 174.276 195.011 179.298C194.839 182.937 198.135 190.087 200.188 190.637C202.477 191.25 203.636 189.07 204.292 187.833L204.333 187.756C201.591 187.1 200.005 184.744 199.588 180.927L199.569 180.738C199.173 176.691 200.341 173.846 203.107 172.457C203.138 172.442 203.169 172.428 203.201 172.416C203.221 172.408 203.242 172.401 203.263 172.395L203.344 172.374L212.401 170.13ZM194.203 187.636C194.139 187.488 194.078 187.338 194.018 187.186C193.993 187.136 193.97 187.088 193.95 187.043L193.9 186.926L193.825 186.754L193.775 186.637C193.287 185.518 192.723 184.221 192.469 182.501L192.433 182.25C192.034 179.46 192.661 176.613 193.348 174.311L193.43 174.045L193.365 174.059C188.336 175.162 182.916 176.167 177.107 177.076L176.379 177.189C173.894 177.573 170.931 177.52 167.477 176.34L167.21 176.247C164.854 175.424 162.912 174.582 158.879 172.676L155.869 171.248C147.379 167.242 142.981 165.793 138.916 166.246C138.916 166.246 78.2621 173.124 70.3938 174.379C65.5721 175.278 63.6066 176.812 61.004 179.456C59.6578 180.823 58.5587 185.294 57.7953 188.4L57.7951 188.401L57.794 188.405C57.6664 188.925 57.5482 189.405 57.4398 189.827C68.542 189.894 80.0265 186.926 91.9029 180.913C92.3711 180.676 92.9279 180.852 93.1785 181.315C93.7338 182.341 94.3096 183.344 94.9057 184.322L139.044 177.649C139.165 177.631 139.284 177.636 139.396 177.662C139.733 177.595 140.086 177.559 140.456 177.556C144.158 177.521 146.492 179.817 147.366 184.162L151.514 182.458C152.125 182.206 152.786 182.627 152.839 183.302C153.602 193.026 151.056 198.866 145.094 200.415C139.081 201.978 135.196 198.32 133.641 189.971C133.562 189.547 133.749 189.132 134.075 188.906C134.192 185.097 134.8 182.2 135.928 180.287L96.9139 187.414C100.913 193.195 105.709 198.032 111.307 201.928C111.486 201.824 111.672 201.743 111.846 201.697C117.866 200.107 131.66 200.061 135.067 200.049L135.068 200.049C135.362 200.048 135.579 200.048 135.707 200.046C137.309 200.028 135.392 201.075 134.884 201.171L134.82 201.181L114.028 203.709C119.165 206.867 124.921 209.3 131.297 211.008C131.659 211.106 132.02 211.199 132.38 211.29L132.876 211.117L132.877 211.117C137.621 209.465 145.555 206.702 147.028 205.865L147.716 205.473C152.63 202.588 156.514 199.598 159.903 196.988C163.623 194.124 166.748 191.718 169.988 190.41C172.508 189.394 173.364 189.237 175.377 188.868C175.916 188.769 176.537 188.655 177.295 188.505C182.655 187.447 188.395 187.541 193.784 187.629L194.203 187.636ZM140.43 179.602C143.364 179.574 145.049 181.463 145.605 185.624L145.585 185.892C145.329 189.155 144.615 190.828 143.702 191.079C142.838 191.317 142.217 190.692 141.746 188.643C141.724 188.543 141.688 188.45 141.64 188.365C141.451 188.032 141.085 187.831 140.687 187.882L140.679 187.883L136.058 188.485L136.082 187.98C136.389 182.274 137.895 179.625 140.43 179.602ZM82.4962 212.325C83.0158 212.147 86.4694 211.411 82.983 213.599C79.4966 215.788 55.1119 222.501 43.5533 220.137C32.4128 217.859 23.9612 210.463 17.1708 201.928L16.9463 201.644L16.8701 201.704C16.362 202.101 15.8559 202.448 15.3515 202.747L15.1355 202.872C14.2294 203.384 12.7743 203.848 10.7322 204.294C10.1979 204.411 8.47987 204.189 9.58315 203.504C10.6864 202.819 12.9176 202.005 14.2138 201.543C15.0609 201.241 15.4413 200.724 15.8188 200.211C16.0189 199.94 16.2182 199.669 16.4857 199.432C16.9154 199.051 17.5554 199.111 17.8953 199.564C24.4914 208.343 33.3102 214.445 44.4673 216.726C55.6705 219.017 68.3698 217.17 82.4962 212.325ZM145.651 236.019C146.135 235.751 146.845 233.103 146.361 233.372C141.001 236.339 131.117 237.564 119.938 235.278C108.745 232.989 100.569 228.857 95.3858 222.913C95.0249 222.499 93.0553 221.132 93.9963 222.859C94.9373 224.587 107.736 235.713 119.304 238.078L119.651 238.149C131.061 240.439 139.863 239.224 145.651 236.019ZM150.971 185.06L150.962 184.867L147.525 186.279L147.495 186.601C147.129 190.264 146.123 192.453 144.263 193.028L144.166 193.057C142.246 193.585 140.869 192.479 140.099 190.131L140.065 190.026L135.794 190.619L135.837 190.811C137.288 197.131 140.126 199.541 144.514 198.467L144.656 198.431C149.082 197.281 151.221 193.085 150.988 185.527L150.971 185.06ZM60.6654 74.307C60.4604 75.0721 59.6984 75.5349 58.9667 75.3389C58.235 75.1428 57.8066 74.3609 58.0115 73.5959C58.2165 72.8309 58.9785 72.3681 59.7102 72.5641C60.4419 72.7602 60.8704 73.542 60.6654 74.307Z" fill="#00160A"/>
</svg>
