<svg width="364" height="374" viewBox="0 0 364 374" fill="none" xmlns="http://www.w3.org/2000/svg">
<path fill-rule="evenodd" clip-rule="evenodd" d="M257.401 170.13C258.248 169.95 259.388 171.043 258.296 172.018C255.877 174.175 261.117 181.183 260.22 176.005C260.124 175.451 259.868 171.731 261.051 173.933C262.233 176.135 262.457 184.525 260.248 186.804C258.309 188.803 254.546 188.993 249.782 187.859L249.568 187.807L249.466 187.786C246.642 187.175 245.012 184.805 244.588 180.927L244.569 180.738C244.173 176.691 245.341 173.846 248.107 172.457C248.158 172.432 248.21 172.411 248.263 172.395L248.344 172.374L257.401 170.13Z" fill="white"/>
<path fill-rule="evenodd" clip-rule="evenodd" d="M257.468 171.484L248.519 173.376C246.182 174.55 245.191 176.962 245.548 180.612C245.674 181.893 246.024 184.958 246.316 183.869C246.407 183.529 255.054 180.493 256.325 181.357C257.501 182.156 256.263 177.459 256.112 175.411L257.495 171.381L257.821 171.03" fill="#E7EAEE"/>
<path fill-rule="evenodd" clip-rule="evenodd" d="M246.155 171.672C246.678 171.813 243.321 172.476 242.754 175.207C242.186 177.938 242.868 183.434 242.326 183.498C241.785 183.563 241.245 181.869 241.196 181.308C240.885 177.815 241.013 176.458 241.552 174.614C242.257 172.2 243.871 171.061 246.155 171.672Z" fill="#E7EAEE"/>
<ellipse cx="258.64" cy="177.873" rx="2.11953" ry="5.00624" transform="rotate(15 258.64 177.873)" fill="#E7EAEE"/>
<path fill-rule="evenodd" clip-rule="evenodd" d="M101.976 190.541C104.224 182.151 106.093 178.742 116.895 176.728C138.74 173.693 138.826 173.373 180.491 168.25C191.505 166.916 209.898 182.109 220.088 180.538C226.881 179.49 233.096 179.025 238.827 177.717C238.424 181.166 240.061 187.627 240.909 188.89C234.684 188.605 228.463 189.076 222.246 190.303C208.804 192.956 216.269 193.252 192.485 206.76C190.47 207.905 183.651 209.92 174.179 211.383C174.179 211.383 157.76 204.416 151.715 199.607C145.563 194.713 137.587 182.273 137.587 182.273C137.587 182.273 123.032 187.369 114.946 189.247C111.161 190.126 101.976 190.541 101.976 190.541Z" fill="white"/>
<path fill-rule="evenodd" clip-rule="evenodd" d="M103.144 186.181C103.672 184.211 103.841 182.783 104.447 181.316C106.424 176.534 109.646 174.679 117.912 173.138C139.758 170.103 139.994 169.013 181.659 163.889C192.673 162.555 211.066 177.749 221.256 176.177C228.049 175.13 234.264 174.665 239.995 173.356C239.984 173.455 238.246 177.851 238.246 177.851C238.246 177.851 224.02 181.373 215.433 180.627C206.31 179.835 196.262 169.48 183.374 169.795C163.748 170.275 117.316 175.871 111.227 178.76C106.442 181.03 103.144 186.181 103.144 186.181Z" fill="#E7EAEE"/>
<path fill-rule="evenodd" clip-rule="evenodd" d="M257.401 170.129C258.248 169.95 259.388 171.043 258.296 172.017C256.642 173.493 256.833 177.998 256.949 180.742C257.003 182.011 257.041 182.904 256.873 182.945C256.341 183.074 255.818 182.733 255.706 182.183C255.097 179.204 254.902 176.917 255.139 175.281C255.256 174.467 255.44 173.698 255.69 172.976L255.72 172.893L248.824 174.351L248.727 174.404C246.997 175.381 245.976 176.78 246.238 179.812L246.255 179.988C246.567 183.178 247.852 185.75 249.793 186.177L249.945 186.209C254.229 187.261 257.134 186.603 258.48 185.215C260.173 183.469 261.117 181.183 260.22 176.004C260.124 175.451 259.868 171.731 261.051 173.933C262.233 176.135 262.457 184.525 260.248 186.804C258.403 188.706 254.908 188.97 250.471 188.015C250.466 188.138 250.438 188.263 250.387 188.384C249.184 191.216 247.403 192.723 245.111 192.683C243.359 192.652 241.738 191.636 240.472 189.896C234.448 189.649 228.427 190.12 222.408 191.308L221.516 191.487C218.439 192.115 216.64 192.606 215.267 193.185C214.461 193.525 213.769 193.907 212.994 194.432L212.868 194.52C212.487 194.791 211.647 195.423 210.691 196.142C209.418 197.099 207.94 198.21 207.07 198.829L206.651 199.126C203.125 201.608 198.788 204.335 192.942 207.656L192.779 207.745C190.128 209.158 182.733 211.092 174.302 212.395C174.13 212.421 175.653 211.891 177.876 211.117L177.876 211.117C182.621 209.465 190.555 206.702 192.028 205.865L192.716 205.473C197.63 202.588 201.514 199.598 204.903 196.988L204.903 196.988C208.623 194.124 211.748 191.718 214.988 190.41C217.508 189.394 218.364 189.237 220.377 188.868L220.378 188.867L220.38 188.867C220.918 188.768 221.538 188.655 222.295 188.505C227.655 187.447 233.396 187.541 238.784 187.629L239.203 187.636C239.139 187.488 239.078 187.338 239.018 187.186C238.993 187.136 238.97 187.088 238.95 187.043C238.894 186.911 238.836 186.778 238.776 186.641L238.776 186.641L238.775 186.637C238.287 185.518 237.723 184.221 237.469 182.501L237.433 182.25C237.035 179.46 237.661 176.613 238.348 174.311L238.43 174.045L238.365 174.059C233.336 175.162 227.916 176.167 222.107 177.076L221.379 177.189C218.894 177.573 215.931 177.52 212.477 176.34L212.21 176.247C209.854 175.424 207.912 174.582 203.879 172.676L200.869 171.248C192.379 167.242 187.981 165.793 183.916 166.246C183.916 166.246 123.262 173.124 115.394 174.379C110.572 175.278 108.607 176.812 106.004 179.455C104.658 180.823 103.559 185.294 102.795 188.4C102.346 190.228 102.013 191.583 101.814 191.554C101.278 191.474 100.915 190.955 101.005 190.396L101.132 189.604C102.054 183.943 102.696 181.533 104.237 178.982C106.333 175.512 109.74 173.362 115.1 172.363L116.57 172.109C123.163 170.977 128.368 170.196 133.731 169.518L134.124 169.469C134.725 169.394 135.334 169.319 135.955 169.244L136.563 169.173C136.781 169.152 139.659 168.773 144.033 168.196C154.123 166.865 172.175 164.484 183.923 163.039C186.462 162.731 189.321 163.169 192.677 164.265L192.966 164.361C195.475 165.201 197.887 166.236 201.801 168.082L205.237 169.712C209.077 171.524 210.955 172.336 213.193 173.117C213.896 173.363 214.561 173.612 215.192 173.849C217.53 174.725 219.412 175.431 221.133 175.165C222.663 174.929 224.16 174.707 225.628 174.489L225.63 174.489L225.63 174.489C230.432 173.776 234.911 173.111 239.153 172.173C239.873 170.51 240.868 169.407 242.116 168.839C244.041 167.963 246.279 168.539 248.005 169.845C248.44 170.174 248.527 170.813 248.201 171.273C248.095 171.421 247.721 171.24 247.192 170.982C246.086 170.445 244.301 169.578 242.871 170.71C241.281 171.97 240.248 174.276 240.011 179.298C239.839 182.937 243.135 190.087 245.188 190.637C247.477 191.25 248.636 189.07 249.292 187.833L249.333 187.756C246.591 187.1 245.005 184.744 244.588 180.927L244.569 180.738C244.173 176.691 245.341 173.846 248.107 172.457C248.158 172.432 248.21 172.411 248.263 172.395L248.344 172.374L257.401 170.129ZM180.707 200.046C182.309 200.028 180.392 201.075 179.884 201.171L179.82 201.181L156.422 204.026C155.881 204.091 155.401 203.69 155.349 203.129C155.3 202.59 156.166 201.877 156.846 201.697C162.866 200.107 176.66 200.061 180.068 200.049C180.362 200.048 180.579 200.048 180.707 200.046ZM184.396 177.662C184.284 177.636 184.165 177.631 184.044 177.649L139.572 184.372L139.505 184.385C139.001 184.497 138.651 184.997 138.715 185.532C138.782 186.091 139.68 187.805 140.219 187.723L180.928 180.287C179.8 182.2 179.192 185.097 179.075 188.906C178.749 189.132 178.562 189.547 178.641 189.971C180.196 198.32 184.081 201.978 190.094 200.415C196.056 198.866 198.602 193.026 197.839 183.302C197.786 182.627 197.126 182.206 196.514 182.458L192.366 184.162C191.492 179.817 189.158 177.521 185.456 177.556C185.086 177.559 184.733 177.595 184.396 177.662ZM190.605 185.624C190.049 181.463 188.364 179.574 185.43 179.602C182.895 179.625 181.389 182.274 181.082 187.979L181.058 188.485L185.679 187.883L185.687 187.882C186.186 187.817 186.636 188.151 186.746 188.643C187.217 190.692 187.838 191.317 188.702 191.079C189.615 190.828 190.329 189.155 190.585 185.892L190.605 185.624ZM195.962 184.867L195.971 185.06L195.989 185.527C196.221 193.085 194.083 197.28 189.656 198.431L189.514 198.467C185.126 199.541 182.288 197.131 180.837 190.811L180.794 190.619L185.065 190.026L185.099 190.131C185.869 192.479 187.246 193.585 189.166 193.056L189.263 193.028C191.123 192.453 192.129 190.264 192.495 186.601L192.525 186.279L195.962 184.867Z" fill="#00160A"/>
</svg>
