<svg width="364" height="374" viewBox="0 0 364 374" fill="none" xmlns="http://www.w3.org/2000/svg">
<path fill-rule="evenodd" clip-rule="evenodd" d="M218.283 201.853C218.739 201.406 219.465 201.494 219.789 202.035C228.856 217.171 241.571 226.458 257.984 229.938C274.44 233.426 287.529 232.208 297.275 226.334C297.75 226.048 298.35 226.211 298.614 226.698C298.879 227.186 298.709 227.812 298.234 228.099C288.01 234.26 269.358 235.941 252.467 232.36C236.041 228.878 228.246 219.311 218.963 204.531L218.736 204.168L218.581 204.313C207.433 214.617 188.007 219.105 171.005 214.687L170.473 214.546C153.118 209.896 145.463 198.428 136.972 183.281L136.906 183.163L136.854 183.189C136.429 183.399 136.008 183.607 135.59 183.814C122.032 190.528 111.916 195.538 99.1081 194.078L98.6999 194.03C84.0281 193.247 65.0666 179.781 62.8581 175.079C60.8346 170.771 63.7078 173.881 64.4966 174.735L64.497 174.736C64.5689 174.814 64.6234 174.873 64.6552 174.906C72.3711 182.869 82.4054 187.803 95.6036 189.396C108.811 190.991 122.572 188.169 136.903 180.913C137.371 180.676 137.928 180.852 138.179 181.315C146.398 196.509 159.087 206.397 176.297 211.008C193.444 215.603 207.396 212.544 218.283 201.853ZM127.496 212.325C128.016 212.147 131.469 211.411 127.983 213.599C124.497 215.787 100.112 222.5 88.5534 220.137C77.4129 217.859 68.9613 210.463 62.1709 201.928L61.9463 201.643L61.8701 201.704C61.362 202.101 60.8559 202.448 60.3516 202.747L60.1355 202.872C59.2295 203.384 57.7744 203.848 55.7323 204.294C55.198 204.411 53.4799 204.189 54.5832 203.504C55.6865 202.819 57.9177 202.005 59.2139 201.543C60.061 201.241 60.4414 200.724 60.8189 200.211C61.019 199.94 61.2182 199.669 61.4857 199.432C61.9154 199.051 62.5554 199.111 62.8953 199.564C69.4914 208.343 78.3102 214.445 89.4674 216.726C100.671 219.017 113.37 217.17 127.496 212.325ZM190.651 236.019C191.135 235.751 191.845 233.103 191.361 233.371C186.001 236.339 176.117 237.564 164.938 235.278C153.745 232.989 145.569 228.857 140.386 222.913C140.025 222.499 138.055 221.132 138.996 222.859C139.937 224.587 152.736 235.713 164.304 238.078L164.651 238.149C176.061 240.438 184.863 239.224 190.651 236.019Z" fill="#00160A"/>
</svg>
