<svg width="347" height="43" viewBox="0 0 347 43" fill="none" xmlns="http://www.w3.org/2000/svg">
<ellipse cx="173.346" cy="21.125" rx="173.346" ry="21.125" fill="#55804A"/>
<path d="M178.649 0.00143053H202.924C206.862 0.10517 210.816 0.0486781 214.75 0.176384C230.062 0.640642 245.466 1.00459 260.54 2.12723C267.38 2.70858 274.299 3.16496 281.091 3.81753C292.084 4.85389 302.966 6.17306 312.899 8.16876C318.566 9.24963 324.349 10.2788 329.58 11.6219C333.646 12.6391 337.058 13.9364 340.399 15.2364C343.639 16.5158 346.152 18.0842 346.693 19.8191V21.5953C346.147 22.4327 345.461 23.2781 344.109 24.0015C339.342 26.5316 332.583 28.4982 325.366 30.0968C319.563 31.3848 313.437 32.4739 307.328 33.5619C296.403 35.4337 284.547 36.4341 273.032 37.7279C252.062 39.9342 230.322 41.0764 208.576 41.7686C203.612 41.945 198.618 41.9107 193.645 42.0141C188.838 42.1069 184.023 42.135 179.221 42.25H164.427C156.132 41.9912 147.795 41.9289 139.498 41.6581C136.228 41.5742 132.977 41.4122 129.706 41.3215C118.764 41.0613 107.927 40.408 97.2079 39.6014C87.3157 38.8273 77.385 38.0727 67.749 36.9463C54.8329 35.4984 42.2144 33.6746 30.3885 31.3201C20.7978 29.4774 11.0886 27.4684 4.06523 24.4366C1.59892 23.4051 0.346031 22.0774 0.000305176 20.7476V19.5715C0.433666 17.8716 2.23837 16.2563 4.80483 14.8255C8.34587 12.7788 13.1167 11.0252 18.4672 9.56872C23.0214 8.31324 28.0676 7.31454 33.163 6.36958C46.7223 3.91065 61.6839 2.67811 76.5404 1.66366C79.3573 1.47946 82.1578 1.25315 85.0006 1.11278C81.8689 1.57703 78.6418 1.95433 75.5013 2.40763C63.5695 4.06678 51.8687 5.98749 41.0954 8.46697C34.647 9.96211 28.7754 11.8215 24.3773 14.0809C21.0029 15.815 19.9965 18.023 20.7583 20.0895C21.0982 20.9852 22.2933 21.7973 23.4201 22.594C25.7862 24.1699 28.8294 25.6185 32.3714 26.885C40.8614 29.6561 51.133 31.6423 61.759 33.1764C72.5901 34.663 83.845 35.7083 95.0738 36.7286C98.9876 37.0754 102.885 37.4516 106.859 37.6999C116.498 38.3377 126.317 38.4846 136.057 38.8198C144.197 39.0546 152.372 38.8776 160.512 39.1026C165.345 39.2443 170.199 39.2416 175.043 39.2217C183.234 39.193 191.413 39.0375 199.581 38.8379C206.629 38.638 213.707 38.549 220.725 38.2323C229.144 37.8762 237.497 37.3332 245.792 36.7128C251.309 36.3054 256.802 35.8558 262.237 35.3286C269.231 34.6664 276.203 33.9731 283.005 33.0898C293.585 31.6282 303.596 29.6089 312.32 27.0188C318.107 25.4508 322.289 22.8925 321.464 20.2474C321.136 19.1641 319.606 18.1962 318.045 17.2814C314.561 15.2894 309.817 13.6081 304.559 12.2067C296.912 10.1891 288.335 8.65698 279.563 7.36418C266.142 5.42258 251.902 4.31055 237.622 3.52685C222.177 2.70105 206.61 2.13305 190.992 1.98754C173.468 1.83587 155.827 2.22241 138.664 3.53439C133.199 3.93291 127.84 4.48071 122.482 5.02679C115.281 5.76119 108.111 6.58425 101.354 7.74558C94.2813 8.98395 87.1953 10.2935 81.1543 12.1204C78.4366 12.9596 75.7922 13.8717 74.0558 15.0084C71.8553 16.4179 70.8259 18.1113 71.8707 19.6992C73.2623 21.4611 76.709 22.9042 80.4503 24.1141C83.7882 25.234 87.7703 26.0773 91.8766 26.7922C98.0958 27.8611 104.732 28.5725 111.347 29.2624C129.484 31.2109 148.372 32.1294 167.253 32.5146C182.743 32.9624 198.323 32.4027 213.539 31.3577C224.831 30.6165 236.035 29.5004 246.255 27.606C251.255 26.7093 256.019 25.5959 259.872 24.1395C261.806 23.3691 263.545 22.4567 263.936 21.4121C264.287 19.9135 262.822 18.3499 259.825 17.2762C256.996 16.2577 253.826 15.3453 250.284 14.6571C248.402 14.2873 246.38 14.024 244.386 13.7436C235.191 12.4354 225.592 11.4843 215.815 10.9197C212.391 10.7212 208.926 10.6513 205.469 10.5575C192.972 10.2247 180.38 10.1237 167.898 10.5924C159.579 10.8848 151.365 11.4867 143.36 12.3382C137.347 12.9257 131.543 13.8224 126.401 15.0827C124.034 15.6739 121.793 16.3984 120.564 17.3468C119.54 18.1407 119.934 19.0675 120.896 19.8444C122.064 20.8061 124.282 21.5545 126.739 22.1054C129.648 22.7724 132.989 23.1308 136.235 23.5307C149.772 25.1303 164.231 25.4816 178.4 25.1926C185.842 25.0796 193.267 24.6945 200.437 23.97C205.082 23.4609 209.835 22.8025 213.339 21.559C215.283 20.8873 216.85 19.9159 216.193 18.9217C215.465 17.8864 212.802 17.2762 210.942 16.5117C217.839 16.8356 224.938 17.6782 229.793 19.5291C231.47 20.1994 233.069 21.1132 232.299 22.0424C231.145 23.3161 227.969 24.1751 224.78 24.7855C218.967 25.8784 212.554 26.5039 206.128 26.9469C199.646 27.3568 193.109 27.7039 186.523 27.7762C177.474 27.9087 168.394 27.9206 159.362 27.6327C152.426 27.44 145.58 26.9795 138.775 26.4823C128.592 25.6962 118.624 24.3083 110.266 22.0626C107.617 21.3707 105.282 20.5148 103.545 19.5215C102.279 18.7957 101.792 17.8555 102.846 17.0605C105.187 15.2295 109.797 13.9528 114.351 12.8449C119.432 11.5631 125.236 10.6914 131.171 10.0498C141.799 8.92438 152.683 8.09035 163.717 7.67026C181.197 6.99065 198.897 7.23237 216.285 8.10508C229.194 8.74018 241.914 9.78065 254.482 10.9916C261.049 11.6462 267.56 12.4323 273.573 13.5926C277.802 14.4222 282.023 15.3768 284.932 16.7801C286.976 17.7237 288.405 18.894 288.159 20.106C287.949 22.0079 284.972 23.7012 281.404 25.0553C278.485 26.2567 274.643 27.0942 270.959 27.9645C266.036 29.0844 260.782 30.0276 255.233 30.686C247.764 31.6142 240.298 32.5735 232.563 33.185C227.453 33.5688 222.27 33.8067 217.125 34.118C209.12 34.5661 201.081 35.0088 192.961 35.0523C183.58 35.156 174.178 35.4279 164.8 35.1601C161.552 35.0513 158.292 35.0831 155.042 35.0109C145.271 34.8612 135.521 34.5243 125.844 34.008C114.455 33.3914 103.127 32.5776 92.0933 31.3933C82.2589 30.3306 72.7134 28.8968 63.9557 26.975C59.1415 25.9482 54.415 24.752 51.2023 23.0826C49.1646 21.9835 47.5217 20.7702 46.784 19.4729C46.1031 18.3581 46.5798 17.193 47.7663 16.1433C50.8239 13.2739 57.4254 11.0673 64.7386 9.53757C72.5689 7.88253 80.6891 6.37917 89.2341 5.2442C94.4613 4.5194 99.8947 4.01405 105.319 3.51316C121.207 2.06868 137.429 1.10353 153.751 0.54512C161.994 0.244858 170.305 0.135983 178.606 6.10352e-05L178.649 0.00143053Z" fill="#DDC5F7"/>
</svg>
