<svg width="132" height="238" viewBox="0 0 132 238" fill="none" xmlns="http://www.w3.org/2000/svg">
<path d="M120.124 237.697C120.134 237.687 120.147 237.674 120.163 237.659C120.236 237.672 120.222 237.684 120.124 237.697C120.089 237.73 120.086 237.73 120.112 237.698C116.515 238.118 14.1297 238.095 14.3988 237.659C14.5179 237.466 14.7596 236.424 14.9364 235.342C15.2802 233.23 15.5885 232.772 17.2456 231.906C19.4616 230.749 20.8956 230.505 23.9876 230.755L27.0183 231.001L26.822 227.134C26.5288 221.354 25.9548 215.939 25.5558 215.194C25.2831 214.685 25.3915 214.31 26.0321 213.549C27.3746 211.953 28.0197 209.613 27.268 209.063C26.79 208.714 26.6638 208.051 26.6638 205.895C26.6638 201.733 25.9415 200.974 20.7828 199.722C17.195 198.852 15.29 197.876 13.9119 196.206L12.8199 194.881L12.8395 188.507C12.851 185.002 13.0056 181.877 13.1842 181.562C13.776 180.519 17.4988 168.951 17.9982 166.602C18.8734 162.487 18.4264 160.724 15.4642 156.602C13.8186 154.313 12.8119 152.138 12.5596 150.331C12.4228 149.352 12.1927 148.861 11.9208 148.965C10.7355 149.42 10.5978 148.636 10.4023 140.329L10.2077 132.084L9.36898 131.765C8.53822 131.45 8.54888 131.421 10.5827 128.679C13.1745 125.186 13.9057 123.217 12.9897 122.205C12.373 121.525 12.3881 121.447 13.4339 119.84C14.5001 118.201 14.6014 117.001 13.6409 117.369C13.2704 117.511 13.2056 117.337 13.3753 116.659C13.5405 116.001 13.3815 115.528 12.78 114.888C12.3286 114.408 11.9154 113.737 11.8621 113.398C11.3335 110.068 10.8892 108.482 10.2397 107.603C9.41429 106.488 8.53821 106.227 8.53821 107.097C8.53821 107.39 8.41827 107.624 8.27167 107.618C7.90916 107.603 6.0504 104.505 6.0504 103.915C6.0504 103.655 5.82737 103.357 5.55371 103.252C5.26406 103.141 4.95574 102.275 4.81358 101.171C4.67941 100.132 4.33735 98.3591 4.0548 97.2321C3.31467 94.2861 3.92418 90.2326 5.66211 86.5521C6.04683 85.7377 6.45378 84.5112 6.56751 83.8273C6.68124 83.1435 7.29164 81.9906 7.92248 81.265C10.1286 78.732 12.8715 72.6296 14.0372 67.6631C14.358 66.2954 14.7711 64.6852 14.9559 64.0857C15.1398 63.4853 15.2909 62.8156 15.2909 62.5972C15.2909 62.2321 10.6831 55.1963 9.24992 53.3738C8.90784 52.9386 8.27611 51.6597 7.84607 50.5317C7.41514 49.4029 6.67324 47.6799 6.19611 46.7029C5.71898 45.726 5.3307 44.8077 5.33426 44.662C5.33692 44.5163 4.77982 43.185 4.09566 41.7045C3.41151 40.2239 2.85176 38.7825 2.85176 38.5009C2.85176 38.2194 2.70871 37.7123 2.53456 37.373C1.7118 35.7752 1.24888 32.7929 0.340824 23.256C-1.42998 4.66271 3.74115 2.13239 14.8831 16.142C16.7516 18.4911 18.9889 21.2133 19.8534 22.1902C24.08 26.9649 29.7389 38.501 31.5293 45.9924C31.6226 46.3832 31.8287 47.0227 31.9869 47.4135C32.145 47.8042 32.5449 48.8833 32.8754 49.8114L33.4751 51.4989L35.4894 51.506C36.5974 51.5096 39.1029 51.7645 41.0577 52.0718C47.6495 53.1082 47.0587 53.1331 47.5296 51.7947C48.1302 50.0877 48.6091 46.8681 48.8686 42.7951C49.0907 39.3127 49.5936 36.7336 50.18 36.063C50.3426 35.8774 50.4759 35.4582 50.4759 35.1313C50.4759 33.1019 57.3734 20.1759 59.751 17.7495C60.038 17.4564 60.6573 16.6571 61.1264 15.9732C62.1145 14.5344 74.7055 1.68566 76.1396 0.651857C77.8873 -0.606641 80.4711 0.0354857 81.1854 1.90503C81.922 3.83141 81.9558 14.0966 81.2414 18.46C79.8855 26.7357 79.2591 31.0779 78.8842 34.8018C78.511 38.5036 78.1254 40.3438 77.0627 43.5056C76.2444 45.9383 74.6336 49.7182 74.1102 50.4332C73.8961 50.7262 73.259 51.8453 72.6939 52.9199C71.5984 55.0053 70.5206 56.7514 66.9435 62.2312C64.4983 65.9774 64.3828 66.3727 65.314 67.7875C65.6561 68.307 66.1314 69.0513 66.3713 69.4412C67.2021 70.7947 69.0386 74.7896 70.6166 78.6761C71.4891 80.8254 72.7393 83.703 73.395 85.0707C74.2559 86.8692 74.5865 88.0496 74.5856 89.3338C74.5856 90.3108 74.821 91.762 75.1098 92.5578C75.5994 93.9095 75.5896 94.0339 74.9614 94.4264C74.4132 94.7684 74.2879 95.2737 74.2879 97.1521C74.2879 99.2402 74.2186 99.4586 73.5593 99.4586C72.4052 99.4586 71.4634 101.912 71.8419 103.935C72.4425 107.146 75.2377 111.175 78.2889 113.225C79.2885 113.896 79.531 114.236 79.2511 114.572C78.8575 115.046 80.5341 116.895 85.9576 121.969C88.2713 124.133 90.9919 127.666 90.9919 128.506C90.9919 128.864 92.0626 131.2 93.4229 133.808C93.9506 134.821 95.1937 136.5 96.1844 137.538C99.9943 141.531 103.174 145.694 104.147 147.965C105.021 150 105.021 150.006 104.094 149.712C102.349 149.159 105.187 154.109 107.863 156.288C112.539 160.097 115.373 163.466 114.258 163.893C113.768 164.082 113.768 164.21 114.258 165.157C114.559 165.737 114.804 166.392 114.804 166.611C114.804 167.09 117.125 170.626 120.163 174.773C122.419 177.855 124.854 181.78 125.892 184.01C130.786 194.528 131.963 199.286 131.999 208.7C132.031 216.827 131.003 222.574 128.537 228.074C128.137 228.966 120.521 237.199 120.112 237.698C120.116 237.698 120.12 237.697 120.124 237.697Z" fill="#55804A"/>
</svg>
