<svg width="45" height="55" viewBox="0 0 45 55" fill="none" xmlns="http://www.w3.org/2000/svg">
<path d="M20.2408 36.9188C17.5308 34.0515 16.9116 32.261 15.6406 29.0875L21.1608 33.5625C21.1608 33.5625 23.6597 36.8339 23.0009 38.0376C22.0204 38.2947 21.4391 38.2133 20.2408 36.9188Z" fill="url(#paint0_linear_22_595)"/>
<path d="M43.2416 54.8188C39.5202 56.1922 33.6957 49.6402 23.9209 39.1563C28.2941 41.4101 32.1616 43.9465 31.2812 42.5126C32.0918 42.764 26.2782 34.1244 19.3207 23.4938C28.4053 32.9825 37.2759 42.6482 36.9794 40.5626C36.96 40.4263 36.9015 40.2399 36.8014 40C35.5 37.5 34.0413 32.4438 34.0413 32.4438C34.0413 32.4438 39.456 39.5065 42.3216 44.7501C45.5313 50.3585 45.0674 52.1725 43.2416 54.8188Z" fill="url(#paint1_linear_22_595)"/>
<path d="M31.2812 30.2063C29.5452 28.7121 28.5178 26.4728 26.681 22.375C29.6035 24.3795 31.4797 25.3983 33.1212 27.9688C33.4822 30.0031 33.1085 30.5244 31.2812 30.2063Z" fill="url(#paint2_linear_22_595)"/>
<path d="M15.6406 20.1375C14.0108 18.2796 12.1969 15.5735 9.20034 11.1875C13.0342 14.9622 15.8124 17.8297 17.4807 19.0188C17.5302 20.3533 17.2137 20.6974 15.6406 20.1375Z" fill="url(#paint3_linear_22_595)"/>
<path d="M6.44024 8.95001L0 0L7.36028 7.83126C7.98483 9.07346 7.74189 9.28645 6.44024 8.95001Z" fill="url(#paint4_linear_22_595)"/>
<path d="M33.1212 51.4626C27.5374 47.9682 27.0219 46.9804 24.8409 44.7501C27.1768 48.8693 28.4924 51.1285 31.2812 51.4626C32.508 51.7461 32.89 51.7365 33.1212 51.4626Z" fill="url(#paint5_linear_22_595)"/>
<path d="M44.1617 43.6313C45.3394 43.5402 45.2178 42.6786 44.1617 40.2751C42.6615 37.7169 41.1166 36.25 38.7132 33.6498C40.4844 37.5642 41.2699 39.7682 44.1617 43.6313Z" fill="url(#paint6_linear_22_595)"/>
<defs>
<linearGradient id="paint0_linear_22_595" x1="22.5" y1="0" x2="22.5" y2="55" gradientUnits="userSpaceOnUse">
<stop stop-color="#55804A"/>
<stop offset="1" stop-color="#DDC5F7"/>
</linearGradient>
<linearGradient id="paint1_linear_22_595" x1="22.5" y1="0" x2="22.5" y2="55" gradientUnits="userSpaceOnUse">
<stop stop-color="#55804A"/>
<stop offset="1" stop-color="#DDC5F7"/>
</linearGradient>
<linearGradient id="paint2_linear_22_595" x1="22.5" y1="0" x2="22.5" y2="55" gradientUnits="userSpaceOnUse">
<stop stop-color="#55804A"/>
<stop offset="1" stop-color="#DDC5F7"/>
</linearGradient>
<linearGradient id="paint3_linear_22_595" x1="22.5" y1="0" x2="22.5" y2="55" gradientUnits="userSpaceOnUse">
<stop stop-color="#55804A"/>
<stop offset="1" stop-color="#DDC5F7"/>
</linearGradient>
<linearGradient id="paint4_linear_22_595" x1="22.5" y1="0" x2="22.5" y2="55" gradientUnits="userSpaceOnUse">
<stop stop-color="#55804A"/>
<stop offset="1" stop-color="#DDC5F7"/>
</linearGradient>
<linearGradient id="paint5_linear_22_595" x1="22.5" y1="0" x2="22.5" y2="55" gradientUnits="userSpaceOnUse">
<stop stop-color="#55804A"/>
<stop offset="1" stop-color="#DDC5F7"/>
</linearGradient>
<linearGradient id="paint6_linear_22_595" x1="22.5" y1="0" x2="22.5" y2="55" gradientUnits="userSpaceOnUse">
<stop stop-color="#55804A"/>
<stop offset="1" stop-color="#DDC5F7"/>
</linearGradient>
</defs>
</svg>
