<svg width="144" height="97" viewBox="0 0 144 97" fill="none" xmlns="http://www.w3.org/2000/svg">
<rect x="143.647" y="39.9572" width="59.1708" height="131.921" rx="29.5854" transform="rotate(107.631 143.647 39.9572)" fill="#DDC5F7"/>
<path d="M42.2816 25.9171C43.0626 26.1682 43.7224 26.528 44.261 26.9966C44.8292 27.4501 45.3308 27.9191 45.7659 28.4037C46.2232 28.8954 46.6543 29.3541 47.0591 29.7797C47.4711 30.1829 47.9336 30.4671 48.4468 30.6321C48.8556 30.7389 49.331 30.8302 49.8728 30.9059C50.3478 30.9602 50.904 30.9913 51.5415 30.9993C52.2085 30.9922 52.9712 30.9174 53.8295 30.7748C52.8636 31.2521 52.0674 31.6608 51.441 32.001C50.8441 32.3261 50.3727 32.6054 50.0269 32.8388C49.622 33.1026 49.3204 33.3133 49.1219 33.4711C48.9091 33.6735 48.59 33.9771 48.1644 34.3819C47.7755 34.7492 47.2471 35.244 46.5792 35.8663C45.9185 36.4663 45.071 37.2648 44.0365 38.2616C44.5315 36.722 44.7591 35.4781 44.7194 34.5298C44.7019 33.5886 44.5864 32.8375 44.3729 32.2765C44.114 31.627 43.7383 31.1492 43.2458 30.8432C42.7765 30.6184 42.2569 30.5498 41.6871 30.6374C41.1245 30.7027 40.526 30.8796 39.8917 31.168C39.2796 31.4636 38.65 31.852 38.0029 32.3333C37.3853 32.7994 36.7903 33.3098 36.2181 33.8644C35.6682 34.4261 35.1705 35.017 34.725 35.6369C34.2866 36.2346 33.9407 36.8127 33.6872 37.3713C33.4553 37.863 33.2504 38.4618 33.0727 39.1679C32.9021 39.8516 32.7801 40.5756 32.7067 41.3398C32.6405 42.0817 32.6225 42.8268 32.6527 43.5751C32.6829 44.3234 32.7904 45.0227 32.9753 45.6729C33.1896 46.3081 33.4772 46.8683 33.8381 47.3537C34.2063 47.8167 34.6951 48.1339 35.3048 48.3053C35.9885 48.4759 36.7113 48.4867 37.4731 48.3378C38.1242 48.2271 38.8366 47.9638 39.6105 47.5478C40.3915 47.1096 41.1769 46.3897 41.9667 45.3881L46.6295 47.8844C44.6419 49.1656 42.8277 50.0225 41.1869 50.4551C39.5683 50.8948 38.1662 51.121 36.9804 51.1336C35.6017 51.1335 34.3582 50.943 33.2497 50.5619C31.8943 49.9538 30.7141 49.1066 29.7094 48.0203C28.7046 46.934 27.9137 45.7566 27.3369 44.4878C26.7896 43.204 26.4606 41.8919 26.3499 40.5515C26.2393 39.2111 26.4003 37.9827 26.8332 36.8662C27.1217 36.122 27.5613 35.2908 28.1519 34.3729C28.7496 33.4326 29.4438 32.4987 30.2344 31.5712C31.0473 30.6508 31.9423 29.7815 32.9194 28.9632C33.8965 28.1448 34.9046 27.4596 35.9438 26.9074C36.9902 26.333 38.0497 25.9474 39.1223 25.7506C40.2245 25.5387 41.2776 25.5942 42.2816 25.9171ZM52.0687 30.3933C52.6951 30.7424 53.2318 31.0258 53.6788 31.2434C54.1258 31.461 54.4984 31.6423 54.7964 31.7873C55.1391 31.9468 55.4331 32.0659 55.6785 32.1448C55.924 32.2238 56.2623 32.3202 56.6934 32.4342C57.0798 32.5339 57.5632 32.6769 58.1433 32.8635C58.7306 33.0277 59.4777 33.231 60.3845 33.4733C59.7565 33.6653 59.2469 33.8338 58.8556 33.9788C58.4643 34.1238 58.1619 34.2604 57.9483 34.3887C57.6829 34.525 57.5064 34.6528 57.4187 34.7724C57.3454 34.8473 57.1932 35.1676 56.962 35.7334C56.738 36.2769 56.4638 36.9765 56.1394 37.8323C55.8445 38.673 55.536 39.6325 55.214 40.7107C54.8991 41.7665 54.6105 42.8555 54.3482 43.9775C54.1083 45.1067 53.9237 46.2167 53.7945 47.3077C53.6725 48.3763 53.6568 49.3437 53.7476 50.21C53.8607 51.0834 54.0945 51.811 54.4491 52.3927C54.826 52.9817 55.3893 53.3352 56.1392 53.4532C57.1194 53.6206 58.0251 53.4071 58.8563 52.8127C59.6875 52.2183 60.4275 51.4099 61.0763 50.3875C61.7474 49.3723 62.3208 48.2396 62.7967 46.9893C63.302 45.7239 63.7006 44.5226 63.9924 43.3855C64.3136 42.2332 64.54 41.2227 64.6716 40.3541C64.8032 39.4855 64.8455 38.9329 64.7985 38.6962C64.7363 38.43 64.6403 38.116 64.5105 37.7542C64.4109 37.4514 64.2663 37.0971 64.0766 36.6915C63.8942 36.2636 63.6743 35.7989 63.4169 35.2977C64.1015 35.5424 64.719 35.7656 65.2697 35.9672C65.8275 36.1466 66.2925 36.3084 66.6646 36.4527C67.1037 36.6185 67.4981 36.7699 67.8479 36.907C68.1978 37.0441 68.6333 37.2211 69.1544 37.4379C69.5863 37.626 70.1409 37.8535 70.8183 38.1206C71.5179 38.3948 72.3443 38.7343 73.2973 39.1392C72.8893 39.1065 72.5375 39.1288 72.2418 39.2061C71.9685 39.2905 71.7362 39.4005 71.5449 39.5359C71.3242 39.6865 71.148 39.8515 71.0165 40.0307C70.8922 40.1877 70.6642 40.7053 70.3327 41.5834C70.0306 42.4465 69.6452 43.4919 69.1765 44.7199C68.7373 45.9328 68.2287 47.2464 67.6509 48.6609C67.0801 50.053 66.464 51.3567 65.8025 52.5719C65.1633 53.7943 64.4926 54.8465 63.7904 55.7286C63.1106 56.6179 62.4196 57.1589 61.7176 57.3517C60.6903 57.6369 59.6687 57.7516 58.6526 57.6957C57.6438 57.6175 56.656 57.4353 55.6894 57.1491C54.73 56.8407 53.8068 56.4577 52.9199 56.0002C52.0625 55.5275 51.2493 55.0322 50.4803 54.5141C49.6962 53.9666 49.1648 53.131 48.886 52.0073C48.6295 50.8909 48.5383 49.6429 48.6126 48.2635C48.7163 46.8689 48.9268 45.4102 49.2441 43.8874C49.5909 42.3494 49.9644 40.8815 50.3646 39.4838C50.787 38.0932 51.1888 36.8437 51.5698 35.7353C51.9803 34.6117 52.29 33.7634 52.4988 33.1905C52.5921 32.9004 52.6371 32.6072 52.634 32.3107C52.6459 32.0438 52.6057 31.7477 52.5133 31.4226C52.4504 31.0823 52.3022 30.7392 52.0687 30.3933ZM72.3592 36.6588C73.1115 36.9991 73.7482 37.2777 74.2693 37.4945C74.7976 37.689 75.2144 37.8476 75.5196 37.9704C75.8917 38.1146 76.1894 38.2226 76.4125 38.2944C76.7918 38.4163 77.2305 38.5451 77.7285 38.6806C78.1597 38.7946 78.6613 38.919 79.2334 39.0537C79.8351 39.1733 80.4921 39.2737 81.2046 39.3551C80.7846 39.5893 80.4239 39.8304 80.1227 40.0782C79.8286 40.3037 79.5863 40.5212 79.3959 40.7308C79.1759 40.9555 78.9854 41.165 78.8244 41.3595C78.6419 41.6208 78.398 42.0348 78.0928 42.6014C77.8162 43.0787 77.4603 43.7644 77.0251 44.6585C76.6123 45.5597 76.0727 46.7403 75.4063 48.2001C76.1578 48.4664 76.8124 48.6892 77.3702 48.8685C77.9352 49.0256 78.4073 49.1651 78.7867 49.287L79.8911 49.6421C80.2107 49.7203 80.5749 49.8127 80.9837 49.9196C81.6602 50.1125 82.6969 50.372 84.0939 50.698C84.5355 49.7075 84.8746 48.8441 85.1114 48.1078C85.3776 47.3563 85.5709 46.7168 85.6913 46.1893C85.8332 45.5948 85.9241 45.0824 85.964 44.6521C85.9688 44.4075 85.9544 44.1074 85.921 43.752C85.8955 43.4484 85.8434 43.0746 85.7645 42.6308C85.7151 42.1717 85.6239 41.6131 85.4909 40.9549C86.0424 41.2306 86.534 41.4626 86.9659 41.6507C87.4273 41.8237 87.8106 41.9715 88.1158 42.0943C88.4656 42.2314 88.7633 42.3394 89.0087 42.4183C89.2541 42.4972 89.5813 42.5901 89.9901 42.6969C90.3319 42.7822 90.7483 42.9038 91.2392 43.0616C91.7372 43.1971 92.3504 43.3573 93.0788 43.5423C92.7998 43.7973 92.5396 44.0706 92.2981 44.3622C92.0566 44.6539 91.8482 44.9192 91.6729 45.1583C91.4832 45.4419 91.2935 45.7256 91.1038 46.0093C90.8416 46.442 90.5224 47.0902 90.1462 47.954C89.7923 48.825 89.4061 49.7964 88.9876 50.8682C88.5915 51.9472 88.181 53.0708 87.7561 54.239C87.3536 55.4144 86.9726 56.5228 86.6131 57.5643C86.2759 58.613 85.9857 59.5537 85.7426 60.3865C85.5066 61.1969 85.3683 61.7802 85.3276 62.1364C85.2654 62.5596 85.2443 63.0082 85.2642 63.4824C85.2761 63.9047 85.3219 64.3749 85.4015 64.8929C85.4883 65.3886 85.6493 65.8835 85.8843 66.3776L77.6246 64.3866C78.0597 64.1818 78.4243 63.9667 78.7184 63.7412C79.0197 63.4934 79.2619 63.2758 79.4452 63.0886C79.6357 62.879 79.7891 62.6698 79.9055 62.4611C80.0139 62.2005 80.198 61.7427 80.4579 61.0877C80.6819 60.5442 80.9812 59.7664 81.3558 58.7544C81.7304 57.7424 82.2127 56.3957 82.8025 54.7143C82.4902 54.6138 82.1073 54.503 81.6538 54.3819C81.2299 54.2456 80.8247 54.1276 80.4382 54.0279C79.9848 53.9068 79.5126 53.7673 79.0218 53.6094C78.5237 53.4739 78.0033 53.3312 77.4607 53.1814C77.0001 53.0825 76.4837 52.9657 75.9115 52.831C75.3689 52.6811 74.8226 52.5424 74.2727 52.4148C73.9268 53.3376 73.6614 54.1632 73.4764 54.8915C73.2986 55.5976 73.1755 56.2104 73.1069 56.7299C73.0096 57.3388 72.9598 57.8767 72.9573 58.3437C72.9621 58.7883 72.978 59.2366 73.005 59.6884C73.0241 60.0885 73.0583 60.518 73.1077 60.977C73.1794 61.4432 73.2654 61.8648 73.3658 62.2417C72.9562 62.0608 72.5765 61.9018 72.2267 61.7647C71.884 61.6053 71.586 61.4602 71.3326 61.3295C71.0274 61.2067 70.7333 61.0876 70.4504 60.972C70.1604 60.8787 69.8181 60.7564 69.4237 60.6049C69.0738 60.4678 68.6312 60.3132 68.0957 60.141C67.5674 59.9465 66.9462 59.7345 66.2322 59.5049C66.7924 59.2173 67.2598 58.9121 67.6344 58.5894C68.0385 58.2516 68.3501 57.9332 68.5693 57.6344C68.8323 57.2758 69.0399 56.9364 69.1921 56.616C69.3077 56.3331 69.4946 55.7901 69.7529 54.9868C70.0335 54.1908 70.3276 53.2759 70.6353 52.2424C70.9725 51.1937 71.3129 50.0968 71.6564 48.9517C72.0072 47.7843 72.3217 46.6913 72.5999 45.6729C72.9004 44.6617 73.1431 43.7919 73.3281 43.0635C73.5425 42.3201 73.6673 41.8555 73.7023 41.6698C73.7199 41.2323 73.6925 40.7434 73.62 40.2031C73.5411 39.7592 73.4133 39.238 73.2364 38.6396C73.0667 38.0188 72.7743 37.3585 72.3592 36.6588ZM94.4247 43.6058C95.1475 43.9612 95.7917 44.2546 96.3575 44.4857C96.9456 44.724 97.4333 44.9301 97.8206 45.1038C98.2748 45.2991 98.6692 45.4506 99.0039 45.5582L100.309 45.9779C101.179 46.2576 102.629 46.6869 104.659 47.2656C104.118 47.264 103.633 47.3544 103.205 47.5369C102.8 47.7265 102.446 47.9452 102.145 48.193C101.785 48.4711 101.488 48.7819 101.254 49.1253C100.97 49.5508 100.646 50.1361 100.284 50.8812C99.9497 51.537 99.5476 52.4048 99.0773 53.4845C98.6294 54.5715 98.0917 55.9373 97.4644 57.582C98.7754 56.7972 99.9242 56.0956 100.911 55.4773C101.92 54.8662 102.796 54.3232 103.54 53.8483C104.283 53.3734 104.909 52.9591 105.416 52.6053C105.946 52.2587 106.388 51.9575 106.741 51.7018C107.565 51.1297 108.065 50.7241 108.24 50.485C108.312 50.336 108.362 50.1428 108.389 49.9053C108.402 49.7125 108.403 49.479 108.393 49.2048C108.39 48.9084 108.349 48.5753 108.271 48.2055C109.149 48.5371 109.897 48.8145 110.515 49.0377C111.155 49.268 111.683 49.4625 112.1 49.6211C112.583 49.8013 112.982 49.9416 113.294 50.042L114.7 50.494C115.213 50.659 115.882 50.8742 116.708 51.1397C117.54 51.3828 118.585 51.6941 119.842 52.0735C118.952 52.0089 118.085 52.0255 117.241 52.1235C116.397 52.2214 115.635 52.3333 114.954 52.4592C114.163 52.6233 113.412 52.8128 112.703 53.0279C111.98 53.2877 111.164 53.604 110.256 53.9768C109.489 54.2963 108.581 54.7062 107.534 55.2066C106.494 55.6846 105.348 56.2639 104.095 56.9443C104.468 59.2307 104.818 61.1281 105.145 62.6367C105.502 64.1301 105.815 65.3386 106.084 66.2622C106.378 67.3413 106.65 68.1796 106.901 68.7773C107.166 69.3304 107.495 69.9162 107.887 70.5346C108.211 71.0574 108.632 71.6607 109.151 72.3445C109.677 73.0059 110.307 73.6885 111.041 74.3923L101.352 71.7939C101.543 71.6584 101.689 71.4716 101.79 71.2333C101.921 70.9799 102.022 70.7416 102.094 70.5185C102.173 70.2731 102.237 69.9982 102.285 69.6937C102.311 69.308 102.263 68.6526 102.142 67.7274C102.052 66.9353 101.884 65.8104 101.639 64.3529C101.401 62.873 101.047 60.9126 100.576 58.4717L96.7732 60.5357C96.4321 61.2138 96.1683 61.8429 95.9818 62.4231C95.7952 63.0032 95.6633 63.4901 95.586 63.8837C95.5022 64.3738 95.4624 64.8042 95.4663 65.1747C95.4926 65.5524 95.5603 65.9927 95.6694 66.4956C95.7483 66.9395 95.8725 67.4718 96.0422 68.0926C96.2119 68.7134 96.4529 69.4187 96.7652 70.2084C96.2951 69.9096 95.8106 69.6553 95.3117 69.4457C94.8201 69.2137 94.3658 69.0185 93.9491 68.8598C93.4654 68.6797 92.9932 68.5402 92.5326 68.4413C92.0497 68.3353 91.4815 68.2265 90.8281 68.1149C90.2639 68.0319 89.5698 67.9318 88.7458 67.8146C87.9218 67.6974 86.9755 67.5778 85.9069 67.4558C86.491 67.3235 86.982 67.1367 87.3796 66.8953C87.7773 66.6539 88.1156 66.4057 88.3945 66.1507C88.7101 65.8582 88.9552 65.5554 89.1298 65.2423C89.2677 64.9666 89.502 64.3526 89.8328 63.4003C90.1859 62.4552 90.5669 61.3468 90.9758 60.075C91.4143 58.788 91.8519 57.4269 92.2887 55.9918C92.7255 54.5566 93.1337 53.2107 93.5131 51.954C93.8925 50.6973 94.1999 49.6267 94.435 48.7422C94.6997 47.8425 94.8531 47.2887 94.8954 47.0807C94.9289 46.7468 94.9472 46.3834 94.9505 45.9905C94.9393 45.6423 94.8872 45.2685 94.794 44.8693C94.7303 44.4549 94.6072 44.0337 94.4247 43.6058Z" fill="#39372A"/>
</svg>
