<svg width="131" height="99" viewBox="0 0 131 99" fill="none" xmlns="http://www.w3.org/2000/svg">
<rect y="33.7745" width="117.257" height="67.2681" rx="31.5" transform="rotate(-14.7099 0 33.7745)" fill="#39372A"/>
<rect x="8.8093" y="35.5159" width="101.478" height="56.5807" rx="28.2903" transform="rotate(-13.7502 8.8093 35.5159)" fill="#39372A" stroke="#F9F5F0"/>
<path d="M29.7889 46.9768C30.6044 46.8478 31.2895 46.7308 31.844 46.6256C32.3923 46.4979 32.8277 46.4014 33.1501 46.3363C33.5403 46.2524 33.8484 46.1791 34.0742 46.1165C34.4582 46.01 34.8954 45.8765 35.386 45.7161C35.8089 45.5745 36.2964 45.4028 36.8484 45.201C37.4169 44.9704 38.021 44.6934 38.661 44.3699C38.4388 44.7964 38.2699 45.1959 38.1543 45.5685C38.0325 45.9185 37.9496 46.2333 37.9056 46.5131C37.8452 46.8217 37.8012 47.1014 37.7735 47.3524C37.7646 47.671 37.7883 48.1509 37.8445 48.792C37.8757 49.3428 37.955 50.1112 38.0826 51.0974C38.2328 52.0773 38.4306 53.3602 38.6759 54.946C39.45 54.7556 40.1194 54.5821 40.684 54.4255C41.2424 54.2463 41.7135 54.1035 42.0975 53.997L43.2154 53.6869C43.5253 53.5766 43.8804 53.4538 44.2807 53.3184C44.952 53.1079 45.9608 52.7551 47.3071 52.2601C47.1319 51.1898 46.9409 50.2821 46.7342 49.5368C46.5438 48.7626 46.3539 48.1221 46.1647 47.6152C45.9566 47.0405 45.7511 46.5624 45.548 46.181C45.4176 45.9739 45.2408 45.7311 45.0176 45.4525C44.8295 45.2128 44.5805 44.9292 44.2708 44.6016C43.9773 44.2452 43.5942 43.8285 43.1214 43.3516C43.7337 43.2791 44.2719 43.2027 44.7361 43.1226C45.2167 43.0137 45.6182 42.9266 45.9406 42.8615C46.3083 42.7838 46.6163 42.7106 46.8647 42.6417C47.1131 42.5728 47.4375 42.4706 47.8378 42.3353C48.1703 42.2187 48.585 42.0915 49.0818 41.9537C49.5724 41.7933 50.1728 41.5903 50.883 41.3447C50.79 41.711 50.7228 42.0823 50.6812 42.4587C50.6397 42.835 50.6113 43.1712 50.5962 43.4673C50.5935 43.8086 50.5909 44.1498 50.5882 44.491C50.6069 44.9967 50.6963 45.7137 50.8566 46.6421C51.0394 47.5643 51.2504 48.5881 51.4896 49.7136C51.7514 50.8328 52.0257 51.9971 52.3126 53.2066C52.622 54.4099 52.9126 55.5454 53.1845 56.6131C53.4789 57.6746 53.7533 58.6201 54.0077 59.4494C54.2558 60.2562 54.4607 60.8196 54.6224 61.1396C54.8029 61.5273 55.0317 61.9138 55.3089 62.2991C55.5509 62.6454 55.8474 63.0131 56.1986 63.4022C56.5434 63.7687 56.9498 64.0937 57.4177 64.3774L49.4224 67.2518C49.6735 66.8417 49.8599 66.4616 49.9817 66.1116C50.0973 65.7391 50.1802 65.4242 50.2305 65.167C50.2745 64.8873 50.2878 64.6282 50.2703 64.3898C50.2177 64.1126 50.12 63.6289 49.9773 62.9388C49.8658 62.3617 49.6886 61.5474 49.4456 60.4959C49.2026 59.4445 48.8657 58.0543 48.4347 56.3253C48.1185 56.413 47.7377 56.5308 47.2923 56.6787C46.8632 56.7977 46.4598 56.9218 46.0821 57.0509C45.6367 57.1987 45.1655 57.3416 44.6687 57.4794C44.1781 57.6398 43.6649 57.8065 43.1291 57.9794C42.69 58.1499 42.1943 58.336 41.6422 58.5378C41.1065 58.7107 40.5738 58.8949 40.0443 59.0904C40.2623 60.0515 40.494 60.8872 40.7397 61.5973C40.979 62.2849 41.2128 62.8646 41.441 63.3365C41.6942 63.8986 41.9481 64.3754 42.2026 64.767C42.4509 65.1359 42.7104 65.5017 42.9813 65.8644C43.217 66.1882 43.4816 66.5282 43.775 66.8847C44.0911 67.2348 44.3946 67.5398 44.6855 67.7996C44.2439 67.8734 43.8393 67.9492 43.4716 68.0268C43.0977 68.0819 42.769 68.1244 42.4855 68.1544C42.163 68.2196 41.8519 68.2815 41.552 68.3404C41.2584 68.4218 40.9052 68.5076 40.4924 68.5978C40.1248 68.6755 39.67 68.7895 39.1279 68.9398C38.5796 69.0676 37.9441 69.2317 37.2214 69.4321C37.5315 68.884 37.7544 68.3722 37.8901 67.8968C38.042 67.3925 38.1275 66.9553 38.1465 66.5852C38.1692 66.1411 38.1562 65.7434 38.1074 65.3921C38.0485 65.0922 37.9064 64.5358 37.6808 63.7227C37.4779 62.9034 37.2211 61.9774 36.9103 60.9448C36.6159 59.8833 36.2976 58.7798 35.9556 57.6342C35.6072 56.4661 35.2695 55.3801 34.9424 54.3763C34.638 53.3663 34.3629 52.5062 34.1173 51.796C33.888 51.0569 33.7369 50.6002 33.6642 50.4258C33.4386 50.0506 33.147 49.6572 32.7896 49.2455C32.4799 48.918 32.0867 48.5527 31.6101 48.1498C31.1272 47.7244 30.5202 47.3333 29.7889 46.9768ZM52.0425 40.6582C52.8417 40.5582 53.5412 40.4493 54.1409 40.3316C54.7632 40.2076 55.2839 40.1118 55.703 40.0442C56.1898 39.9578 56.6026 39.8677 56.9413 39.7737L58.2625 39.4072C59.1433 39.1629 60.5907 38.725 62.6045 38.0934C62.1515 38.3893 61.7963 38.7311 61.539 39.1186C61.3042 39.4999 61.1291 39.8769 61.0135 40.2494C60.8653 40.6797 60.788 41.1025 60.7816 41.5177C60.7776 42.0296 60.8288 42.6964 60.9351 43.5182C61.0164 44.2497 61.1572 45.1957 61.3575 46.3562C61.5804 47.5105 61.8816 48.9471 62.2611 50.6661C62.9253 49.29 63.4997 48.0727 63.9843 47.014C64.4916 45.949 64.9254 45.0139 65.2858 44.2086C65.6461 43.4033 65.9412 42.7134 66.171 42.1389C66.4234 41.5581 66.6268 41.0639 66.7813 40.6562C67.1555 39.7254 67.3502 39.112 67.3654 38.8159C67.3441 38.6516 67.2796 38.4628 67.1717 38.2494C67.0765 38.0813 66.9492 37.8855 66.7899 37.6621C66.6244 37.4162 66.4075 37.1602 66.1391 36.8941C67.055 36.6887 67.8323 36.5096 68.4709 36.3568C69.1322 36.1977 69.6805 36.0699 70.1158 35.9735C70.619 35.8582 71.0286 35.7568 71.3448 35.6691L72.7677 35.2744C73.2871 35.1303 73.9647 34.9424 74.8003 34.7106C75.6297 34.4562 76.6736 34.1423 77.9321 33.769C77.1528 34.204 76.4375 34.6943 75.7862 35.2398C75.1349 35.7853 74.5594 36.2976 74.0599 36.7766C73.4889 37.3485 72.9661 37.9191 72.4917 38.4885C72.0298 39.1031 71.522 39.8155 70.9685 40.6258C70.5028 41.3144 69.9699 42.1554 69.3698 43.1488C68.7635 44.1196 68.1239 45.2334 67.4509 46.4902C69.0185 48.1958 70.3535 49.5889 71.4559 50.6695C72.5746 51.7213 73.5002 52.559 74.2326 53.1828C75.0704 53.9233 75.7583 54.4744 76.2964 54.8359C76.8219 55.1522 77.4184 55.4611 78.0857 55.7624C78.6439 56.0211 79.3275 56.2936 80.1366 56.5799C80.9395 56.8437 81.8408 57.068 82.8406 57.2528L73.3172 60.4051C73.4026 60.1868 73.4221 59.9504 73.3758 59.6957C73.3458 59.4121 73.2995 59.1574 73.2368 58.9316C73.1679 58.6831 73.0702 58.4184 72.9435 58.1373C72.753 57.801 72.353 57.2796 71.7435 56.573C71.2331 55.9606 70.475 55.1129 69.4693 54.0298C68.4572 52.9241 67.084 51.4808 65.3496 49.6999L63.3063 53.5137C63.3939 54.2678 63.5191 54.9384 63.6819 55.5256C63.8448 56.1128 64.0021 56.5921 64.1538 56.9635C64.3531 57.419 64.5562 57.8005 64.7631 58.1079C64.9925 58.4091 65.291 58.7398 65.6585 59.1C65.9682 59.4276 66.3645 59.8041 66.8474 60.2296C67.3302 60.655 67.9191 61.1119 68.6139 61.6002C68.0569 61.6088 67.5124 61.6625 66.9804 61.7615C66.4422 61.8378 65.9554 61.9242 65.52 62.0206C65.0169 62.1358 64.5457 62.2787 64.1065 62.4491C63.6448 62.6259 63.1103 62.8471 62.5029 63.1128C61.986 63.3535 61.351 63.6513 60.5982 64.006C59.8453 64.3608 58.9889 64.7808 58.0289 65.2659C58.4444 64.8345 58.7519 64.4087 58.9515 63.9885C59.1512 63.5683 59.2975 63.175 59.3904 62.8087C59.4935 62.391 59.5319 62.0033 59.5057 61.6458C59.4694 61.3396 59.3279 60.6978 59.0811 59.7204C58.8569 58.7368 58.5662 57.6013 58.2092 56.3139C57.8684 54.9977 57.4863 53.6201 57.0628 52.1809C56.6393 50.7417 56.2408 49.3929 55.8674 48.1344C55.494 46.876 55.1626 45.8126 54.8731 44.9443C54.5999 44.0472 54.4239 43.5001 54.3449 43.3031C54.1894 43.0057 54.0051 42.692 53.792 42.362C53.5914 42.0771 53.3424 41.7935 53.0452 41.5111C52.7643 41.1998 52.4301 40.9156 52.0425 40.6582ZM73.624 35.0734C74.3391 35.0209 74.9432 34.9628 75.4363 34.899C75.9294 34.8352 76.3403 34.7821 76.669 34.7395C77.0429 34.6845 77.354 34.6225 77.6025 34.5536C77.8509 34.4847 78.1865 34.3794 78.6094 34.2378C78.987 34.1087 79.4695 33.9627 80.0567 33.7999C80.6376 33.6144 81.3735 33.3738 82.2644 33.078C81.8452 33.5835 81.5119 34.0043 81.2647 34.3404C81.0174 34.6765 80.8397 34.9569 80.7318 35.1814C80.5849 35.441 80.5077 35.6449 80.5001 35.7929C80.48 35.8958 80.5288 36.2471 80.6465 36.8468C80.7579 37.424 80.9132 38.1592 81.1123 39.0526C81.3278 39.917 81.5972 40.8882 81.9205 41.966C82.2375 43.0212 82.5946 44.0896 82.9919 45.1712C83.4118 46.2465 83.8675 47.2755 84.3589 48.258C84.8441 49.2179 85.3625 50.0349 85.9143 50.7088C86.4886 51.3764 87.0838 51.8559 87.6996 52.1472C88.3381 52.4322 89.0031 52.418 89.6944 52.1046C90.6054 51.706 91.2449 51.0301 91.6128 50.0767C91.9808 49.1234 92.1549 48.0414 92.1353 46.8307C92.1383 45.6137 91.9951 44.3522 91.7058 43.0461C91.4328 41.7111 91.1058 40.4884 90.7248 39.3779C90.3602 38.2386 89.9942 37.27 89.6269 36.4719C89.2596 35.6739 88.9913 35.1889 88.822 35.0169C88.6238 34.8287 88.3711 34.6191 88.0638 34.3881C87.8142 34.1898 87.4988 33.9733 87.1175 33.7385C86.7299 33.4812 86.2909 33.2138 85.8005 32.9363C86.5069 32.7647 87.1455 32.6119 87.7164 32.4779C88.281 32.3213 88.7584 32.201 89.1486 32.1171C89.6066 32.0144 90.0194 31.9242 90.387 31.8466C90.7546 31.7689 91.2157 31.6775 91.7703 31.5723C92.2345 31.4922 92.823 31.3776 93.5356 31.2286C94.2709 31.0733 95.1479 30.903 96.1667 30.7177C95.8078 30.9146 95.526 31.1265 95.3215 31.3535C95.1395 31.5742 95.0058 31.7937 94.9204 32.012C94.8187 32.2591 94.7621 32.4937 94.7507 32.7157C94.7331 32.9152 94.827 33.4729 95.0324 34.3888C95.2541 35.2759 95.5065 36.3612 95.7896 37.6447C96.089 38.8994 96.3858 40.2765 96.68 41.7758C96.968 43.2525 97.1695 44.6803 97.2844 46.0591C97.4219 47.4317 97.4396 48.6794 97.3376 49.8022C97.2581 50.9188 96.978 51.7504 96.4973 52.2973C95.7957 53.0999 95.0051 53.757 94.1254 54.2686C93.2395 54.7575 92.3141 55.148 91.3492 55.4399C90.3781 55.7093 89.3963 55.8965 88.4039 56.0015C87.4278 56.0777 86.4762 56.1106 85.5491 56.1002C84.5931 56.0735 83.6899 55.6673 82.8396 54.8816C82.0119 54.0897 81.2501 53.097 80.5543 51.9036C79.8747 50.6814 79.2492 49.3469 78.6777 47.9002C78.1224 46.4246 77.628 44.9929 77.1945 43.6052C76.7835 42.2112 76.4327 40.9465 76.142 39.811C75.8677 38.6466 75.6604 37.7677 75.5201 37.1742C75.4387 36.8806 75.3152 36.6109 75.1497 36.3649C75.013 36.1353 74.8168 35.91 74.5609 35.6891C74.3214 35.4393 74.0091 35.2341 73.624 35.0734Z" fill="#F9F5F0"/>
</svg>
