<svg width="103" height="165" viewBox="0 0 103 165" fill="none" xmlns="http://www.w3.org/2000/svg">
<circle cx="49" cy="120" r="1" fill="#DDC5F7"/>
<circle cx="62" cy="157" r="1" fill="#DDC5F7"/>
<circle cx="23.5" cy="65.5" r="0.5" fill="#DDC5F7"/>
<circle cx="23.5" cy="22.5" r="0.5" fill="#DDC5F7"/>
<circle cx="37.5" cy="83.5" r="0.5" fill="#DDC5F7"/>
<circle cx="16.5" cy="111.5" r="0.5" fill="#DDC5F7"/>
<circle cx="79.5" cy="164.5" r="0.5" fill="#DDC5F7"/>
<circle cx="61.5" cy="71.5" r="0.5" fill="#DDC5F7"/>
<circle cx="91.5" cy="115.5" r="0.5" fill="#DDC5F7"/>
<circle cx="71.5" cy="29.5" r="0.5" fill="#DDC5F7"/>
<circle cx="0.5" cy="0.5" r="0.5" fill="#DDC5F7"/>
<circle cx="79.5" cy="73.5" r="1.5" fill="#DDC5F7"/>
<circle cx="9.5" cy="49.5" r="1.5" fill="#DDC5F7"/>
<path d="M26.8895 95.1638C26.6905 93.8781 23.6923 93.2101 18.5579 92.0151L18.968 91.9619C23.2382 91.3072 26.6451 91.0511 27.0506 89.9741C27.605 89.1077 27.9221 84.2098 28.4834 78.5111C29.3324 83.9748 29.8995 87.9344 30.4514 90.4729C30.5184 91.9592 35.1688 92.1586 39.5434 93.0532C33.7429 93.6414 30.9231 94.0144 30.6405 95.1473C29.9951 97.259 29.3906 104.58 28.4659 113.755C28.0629 106.291 27.8584 102.086 26.8895 95.1638Z" fill="#DDC5F7"/>
<path d="M42.0687 38.9445C41.7425 36.8848 36.2805 35.8991 26.9282 34.1292L27.6796 34.0318C35.5059 32.8552 41.7421 32.3442 42.515 30.602C43.5539 29.1938 44.2769 21.3154 45.4697 12.1433C46.8622 20.8966 47.7832 27.2416 48.7181 31.304C48.7972 33.6898 57.2935 33.8743 65.2653 35.1837C54.6432 36.2983 49.477 36.9799 48.9271 38.8083C47.6855 42.2199 46.3663 53.9989 44.4074 68.7671C43.8889 56.7873 43.6378 50.0372 42.0687 38.9445Z" fill="#DDC5F7"/>
<path d="M48.7929 151.257C48.6903 150.584 47.2622 150.215 44.8164 149.557L45.0108 149.532C47.0345 149.216 48.6507 149.104 48.8364 148.543C49.0941 148.093 49.2135 145.533 49.4437 142.555C49.8817 145.419 50.1762 147.494 50.4545 148.826C50.4958 149.604 52.7054 149.738 54.7885 150.234C52.0377 150.505 50.7011 150.682 50.5741 151.273C50.2811 152.374 50.0407 156.2 49.6601 160.995C49.4211 157.087 49.2972 154.885 48.7929 151.257Z" fill="#DDC5F7"/>
<path d="M98.1931 66.501C98.1372 66.1509 97.165 65.989 95.5004 65.6977L95.6344 65.6803C97.0302 65.4718 98.1419 65.3782 98.2815 65.081C98.4681 64.8402 98.6053 63.4989 98.8275 61.9368C99.0664 63.4249 99.2238 64.5036 99.3861 65.1939C99.3976 65.5998 100.911 65.6222 102.33 65.8365C100.437 66.0374 99.5153 66.1589 99.4154 66.4706C99.1905 67.0525 98.943 69.0582 98.5783 71.5733C98.4986 69.5353 98.461 68.387 98.1931 66.501Z" fill="#DDC5F7"/>
<path d="M53.9371 80.1712C53.8652 79.719 52.6422 79.5057 50.5483 79.1223L50.7166 79.1005C52.4705 78.8375 53.8677 78.7217 54.0418 78.3386C54.2754 78.0287 54.4419 76.2978 54.7143 74.2825C55.0212 76.2043 55.2239 77.5974 55.431 78.4892C55.4473 79.0132 57.3504 79.0488 59.1354 79.3319C56.7554 79.5828 55.5977 79.7355 55.4735 80.1374C55.1934 80.8875 54.8911 83.4755 54.4438 86.7204C54.3346 84.0894 54.2822 82.6069 53.9371 80.1712Z" fill="#DDC5F7"/>
<path d="M89.35 86.2229C89.2141 85.3315 87.3215 84.8444 84.0799 83.9748L84.3376 83.9414C87.0199 83.5237 89.1622 83.3746 89.4085 82.6325C89.7503 82.0375 89.9094 78.6503 90.2156 74.7109C90.7952 78.4993 91.1848 81.2444 91.5532 83.0059C91.6076 84.035 94.5363 84.2115 97.2972 84.8668C93.6511 85.226 91.8793 85.4607 91.7108 86.2425C91.322 87.6987 91.0021 92.7601 90.4959 99.1026C90.1805 93.9336 90.017 91.0216 89.35 86.2229Z" fill="#DDC5F7"/>
</svg>
