<svg width="160" height="84" viewBox="0 0 160 84" fill="none" xmlns="http://www.w3.org/2000/svg">
<rect x="10.0287" width="151.273" height="59.2351" rx="29.6176" transform="rotate(9.74734 10.0287 0)" fill="#39372A"/>
<path d="M27.8531 19.6949C28.6445 19.9303 29.313 20.1202 29.8587 20.2645C30.4085 20.3857 30.8429 20.4865 31.1619 20.5669C31.5501 20.6595 31.8596 20.7262 32.0904 20.7671C32.4827 20.8367 32.9348 20.9049 33.4466 20.9718C33.8892 21.0264 34.403 21.0818 34.9882 21.1378C35.6004 21.175 36.265 21.1856 36.9819 21.1698C36.5975 21.4588 36.2728 21.7464 36.0078 22.0326C35.7469 22.2958 35.5363 22.5441 35.3759 22.7776C35.1884 23.0299 35.028 23.2634 34.8948 23.4778C34.7493 23.7614 34.5637 24.2046 34.3379 24.8072C34.1284 25.3176 33.8686 26.0451 33.5583 26.9898C33.2711 27.9387 32.8962 29.1814 32.4335 30.7179C33.214 30.8801 33.8928 31.0123 34.4697 31.1145C35.0508 31.1937 35.5374 31.268 35.9298 31.3376L37.0721 31.54C37.3993 31.5742 37.7726 31.6166 38.1921 31.6671C38.8885 31.7667 39.9509 31.8836 41.3791 32.0177C41.6826 30.9765 41.9018 30.0752 42.0368 29.3136C42.1989 28.533 42.304 27.8733 42.3519 27.3343C42.4121 26.7261 42.4328 26.2061 42.4141 25.7744C42.3858 25.5313 42.331 25.236 42.2498 24.8883C42.1835 24.591 42.0812 24.2277 41.9431 23.7986C41.8321 23.3504 41.6661 22.8093 41.4453 22.1751C42.029 22.3737 42.5475 22.537 43.0009 22.665C43.4814 22.7739 43.8812 22.8686 44.2002 22.9489C44.5653 23.0375 44.8748 23.1042 45.1287 23.1492C45.3826 23.1942 45.7192 23.2419 46.1387 23.2925C46.489 23.3308 46.918 23.3949 47.4257 23.4849C47.9375 23.5518 48.5667 23.6276 49.3134 23.7123C49.0715 24.0027 48.8507 24.3087 48.6508 24.6303C48.451 24.9519 48.2804 25.243 48.139 25.5036C47.9895 25.8103 47.8399 26.1171 47.6903 26.4238C47.489 26.888 47.2605 27.5734 47.0045 28.4802C46.7717 29.391 46.5205 30.4057 46.2508 31.5243C46.0043 32.6469 45.7495 33.8157 45.4866 35.0307C45.2468 36.2497 45.0192 37.3995 44.8039 38.4801C44.6117 39.5647 44.4514 40.5361 44.3232 41.394C44.199 42.2289 44.1409 42.8256 44.1488 43.184C44.1444 43.6117 44.1841 44.0591 44.268 44.5262C44.3369 44.9431 44.4459 45.4027 44.5948 45.9052C44.7479 46.3846 44.9743 46.8531 45.274 47.3109L36.8209 46.4555C37.2244 46.1938 37.5565 45.9313 37.8174 45.6681C38.0823 45.3818 38.293 45.1335 38.4493 44.9232C38.6096 44.6898 38.7334 44.4618 38.8204 44.2392C38.8926 43.9663 39.0131 43.4878 39.1819 42.8037C39.3303 42.2349 39.5217 41.4238 39.756 40.3704C39.9903 39.317 40.2859 37.9174 40.6429 36.1717C40.3198 36.1144 39.9254 36.0564 39.4598 35.9977C39.0213 35.92 38.6038 35.8579 38.2074 35.8115C37.7418 35.7528 37.2551 35.6784 36.7474 35.5884C36.2356 35.5215 35.7007 35.4505 35.1427 35.3755C34.673 35.3398 34.1456 35.294 33.5605 35.2379C33.0025 35.1628 32.4425 35.0992 31.8804 35.0472C31.6625 36.0083 31.5112 36.8622 31.4265 37.6089C31.3458 38.3325 31.3067 38.9563 31.309 39.4804C31.295 40.0968 31.3184 40.6365 31.3791 41.0995C31.444 41.5394 31.5204 41.9814 31.6083 42.4255C31.6813 42.8192 31.7733 43.2402 31.8843 43.6883C32.0184 44.1405 32.1607 44.5466 32.3111 44.9065C31.8808 44.7826 31.4831 44.6764 31.1179 44.5879C30.7569 44.4763 30.442 44.3729 30.1732 44.2777C29.8542 44.1973 29.5467 44.119 29.2508 44.0428C28.9508 43.9896 28.5951 43.9147 28.1838 43.818C27.8187 43.7295 27.3592 43.6361 26.8053 43.538C26.2555 43.4168 25.6114 43.2907 24.8729 43.1598C25.3891 42.799 25.8109 42.4335 26.1384 42.063C26.493 41.6736 26.7587 41.3161 26.9354 40.9904C27.1475 40.5995 27.3073 40.2351 27.4148 39.8971C27.4911 39.6012 27.6028 39.0378 27.7501 38.207C27.9204 37.3803 28.0881 36.4341 28.2531 35.3684C28.4453 34.2838 28.6342 33.1509 28.8197 31.9698C29.0093 30.7657 29.173 29.6403 29.3109 28.5936C29.4719 27.551 29.5948 26.6564 29.6795 25.9097C29.7914 25.144 29.8521 24.6668 29.8618 24.4781C29.82 24.0423 29.7267 23.5616 29.5818 23.036C29.4436 22.6069 29.2464 22.1078 28.9902 21.5388C28.7381 20.9466 28.3591 20.332 27.8531 19.6949ZM50.6556 23.5931C51.4198 23.8476 52.0978 24.051 52.6896 24.2035C53.3046 24.3601 53.8156 24.4983 54.2228 24.6181C54.6993 24.7501 55.1106 24.8468 55.4568 24.9081L56.8068 25.1474C57.7069 25.3069 59.2015 25.5361 61.2908 25.8349C60.7545 25.9065 60.2866 26.0616 59.8873 26.3003C59.511 26.543 59.1904 26.8076 58.9255 27.0938C58.6062 27.4181 58.3541 27.7662 58.1691 28.138C57.9448 28.5981 57.7033 29.2218 57.4448 30.0091C57.2026 30.7041 56.9216 31.6183 56.6017 32.7517C56.3049 33.8893 55.957 35.3153 55.5579 37.0297C56.7507 36.0748 57.794 35.2243 58.6879 34.4782C59.6049 33.7362 60.3996 33.0797 61.0721 32.5086C61.7446 31.9375 62.3084 31.4423 62.7635 31.0231C63.2417 30.608 63.6385 30.2499 63.9537 29.9487C64.6927 29.2704 65.133 28.8009 65.2744 28.5403C65.3261 28.3829 65.3493 28.1847 65.344 27.9457C65.3306 27.7529 65.3002 27.5214 65.2529 27.2512C65.2097 26.9579 65.1244 26.6333 64.997 26.2775C65.9119 26.4873 66.6905 26.661 67.3326 26.7986C67.9977 26.9402 68.5475 27.0615 68.9819 27.1623C69.4855 27.2753 69.8989 27.3605 70.222 27.4177L71.6759 27.6754C72.2067 27.7695 72.899 27.8922 73.7529 28.0435C74.6109 28.1717 75.6881 28.3388 76.9845 28.5448C76.0938 28.6012 75.237 28.735 74.4141 28.9462C73.5912 29.1574 72.8511 29.3713 72.1938 29.5881C71.4319 29.8577 70.7142 30.1471 70.0405 30.4561C69.3587 30.8114 68.5933 31.2351 67.7444 31.7273C67.0272 32.1477 66.1837 32.6766 65.2139 33.314C64.2481 33.9283 63.1906 34.6573 62.0414 35.5009C62.72 37.7158 63.3235 39.5485 63.8519 40.9989C64.4076 42.4303 64.8812 43.5854 65.273 44.4641C65.7094 45.4936 66.0924 46.2874 66.4219 46.8457C66.7596 47.3578 67.1645 47.8937 67.6365 48.4534C68.0286 48.9275 68.5278 49.4682 69.1342 50.0756C69.7448 50.6598 70.4612 51.2509 71.2835 51.8489L61.3319 50.5851C61.503 50.4251 61.6227 50.2201 61.6907 49.9704C61.786 49.7016 61.854 49.4518 61.8949 49.2211C61.9399 48.9672 61.9659 48.6862 61.9729 48.378C61.9461 47.9924 61.8101 47.3494 61.565 46.4491C61.3687 45.6764 61.0504 44.5846 60.6102 43.1736C60.1741 41.7396 59.5577 39.8451 58.7611 37.4903L55.2727 40.0497C55.0264 40.7678 54.8501 41.4268 54.7437 42.0268C54.6374 42.6269 54.5726 43.1271 54.5492 43.5276C54.5325 44.0245 54.5512 44.4563 54.6053 44.8229C54.6824 45.1936 54.809 45.6207 54.9852 46.1042C55.1233 46.5333 55.3185 47.044 55.5706 47.6361C55.8227 48.2282 56.1569 48.8944 56.5731 49.6347C56.0669 49.4021 55.5525 49.2158 55.0298 49.0755C54.5113 48.9122 54.0349 48.7802 53.6005 48.6794C53.0969 48.5664 52.6102 48.492 52.1404 48.4564C51.6476 48.4166 51.0699 48.3857 50.4074 48.3635C49.8372 48.3576 49.1359 48.3523 48.3037 48.3477C47.4714 48.343 46.5176 48.3525 45.4423 48.3761C46.0032 48.1661 46.4643 47.9146 46.8257 47.6216C47.187 47.3286 47.4886 47.0369 47.7305 46.7465C48.0037 46.4141 48.2055 46.0809 48.3361 45.747C48.4354 45.4552 48.5846 44.8151 48.7835 43.8269C49.0055 42.8427 49.2331 41.6929 49.4662 40.3775C49.7265 39.043 49.976 37.6353 50.2147 36.1542C50.4533 34.6731 50.6757 33.2844 50.8816 31.9879C51.0876 30.6915 51.2472 29.5891 51.3606 28.6809C51.5011 27.7537 51.5782 27.1842 51.5919 26.9724C51.58 26.6371 51.549 26.2745 51.4991 25.8848C51.4409 25.5413 51.3387 25.178 51.1923 24.7951C51.0731 24.3931 50.8942 23.9924 50.6556 23.5931ZM72.5352 27.8634C73.203 28.1246 73.773 28.3327 74.2454 28.4878C74.7178 28.6429 75.1114 28.7722 75.4263 28.8756C75.7874 28.9872 76.0948 29.0655 76.3487 29.1105C76.6026 29.1555 76.9508 29.2053 77.3933 29.2599C77.7898 29.3064 78.288 29.3828 78.888 29.4891C79.4921 29.5724 80.2598 29.6727 81.1911 29.7902C80.5949 30.0653 80.1127 30.3012 79.7447 30.4978C79.3766 30.6944 79.0954 30.8707 78.9011 31.0267C78.6566 31.1976 78.499 31.3482 78.4283 31.4785C78.3658 31.5626 78.2583 31.9006 78.1058 32.4924C77.9574 33.0612 77.7804 33.7915 77.5747 34.6834C77.3962 35.5562 77.2204 36.5486 77.0471 37.6604C76.878 38.7492 76.7394 39.8671 76.6313 41.0143C76.5462 42.1656 76.5135 43.2904 76.5331 44.3888C76.5567 45.4641 76.6721 46.4248 76.8792 47.2708C77.1094 48.1209 77.4395 48.8101 77.8695 49.3386C78.3226 49.8711 78.9286 50.1452 79.6876 50.1606C80.6814 50.194 81.5499 49.8599 82.293 49.1585C83.0362 48.4571 83.6601 47.5561 84.1646 46.4553C84.6921 45.3587 85.1071 44.1588 85.4095 42.8556C85.739 41.5335 85.9714 40.2893 86.1067 39.1232C86.2691 37.938 86.3567 36.9062 86.3696 36.0278C86.3824 35.1494 86.3496 34.5961 86.271 34.3679C86.1734 34.1126 86.0358 33.8145 85.8582 33.4736C85.7186 33.187 85.5274 32.8556 85.2847 32.4793C85.046 32.08 84.7653 31.6494 84.4425 31.1876C85.1538 31.3374 85.7959 31.475 86.3687 31.6003C86.9457 31.7026 87.4283 31.8 87.8165 31.8926C88.274 31.9975 88.6853 32.0942 89.0504 32.1827C89.4156 32.2712 89.871 32.3876 90.4167 32.532C90.8701 32.6599 91.4504 32.8104 92.1576 32.9833C92.8879 33.1603 93.7526 33.385 94.7517 33.6572C94.343 33.68 93.9974 33.7497 93.715 33.8663C93.4555 33.9869 93.2402 34.1273 93.0691 34.2873C92.8707 34.4664 92.7185 34.6537 92.6125 34.8491C92.5105 35.0215 92.3547 35.5651 92.1449 36.48C91.9623 37.376 91.7219 38.464 91.4236 39.7441C91.1525 41.0052 90.8264 42.3756 90.4451 43.8552C90.068 45.3117 89.6339 46.6867 89.1428 47.9803C88.6748 49.2779 88.1526 50.4112 87.5763 51.3802C87.023 52.3532 86.4116 52.9828 85.742 53.2687C84.7628 53.6903 83.7661 53.9421 82.7518 54.0242C81.7416 54.0832 80.7383 54.0363 79.7419 53.8835C78.7495 53.7076 77.783 53.453 76.8424 53.1197C75.9289 52.7674 75.0562 52.3866 74.2242 51.9773C73.3733 51.5409 72.7337 50.7849 72.3054 49.7093C71.9002 48.6377 71.6411 47.4136 71.5281 46.0368C71.4422 44.641 71.4535 43.1673 71.5619 41.6155C71.6974 40.0447 71.8689 38.5398 72.0763 37.1008C72.3068 35.6659 72.5358 34.3736 72.7634 33.2237C73.0182 32.055 73.2102 31.1726 73.3397 30.5767C73.3928 30.2766 73.3978 29.98 73.3546 29.6867C73.3303 29.4206 73.2504 29.1327 73.1149 28.823C73.0065 28.4944 72.8133 28.1745 72.5352 27.8634ZM117.126 34.7305C116.673 35.4117 116.27 36.0068 115.917 36.5157C115.565 37.0246 115.262 37.4588 115.008 37.8184C114.723 38.2201 114.48 38.5817 114.28 38.9034C114.12 39.1368 113.909 39.4563 113.646 39.8621C113.392 40.2217 113.069 40.7001 112.678 41.2972C112.314 41.8753 111.836 42.6237 111.245 43.5424C111.188 42.6517 111.067 41.8567 110.882 41.1574C110.696 40.458 110.473 39.8354 110.213 39.2894C109.953 38.7434 109.653 38.2856 109.314 37.9161C109.002 37.5276 108.68 37.1967 108.347 36.9236C107.575 36.3107 106.72 35.8973 105.782 35.6835C104.524 35.5319 103.506 35.5658 102.729 35.7851C101.98 35.9855 101.405 36.2763 101.004 36.6576C100.607 37.0157 100.356 37.4235 100.251 37.881C100.151 38.3154 100.143 38.6948 100.228 39.0194C100.294 39.3168 100.641 39.7114 101.268 40.2034C101.918 40.6994 102.696 41.2777 103.603 41.9382C104.536 42.5797 105.527 43.3027 106.574 44.1072C107.626 44.8887 108.573 45.723 109.416 46.6102C110.285 47.4784 110.981 48.3872 111.503 49.3366C112.052 50.267 112.28 51.1999 112.185 52.1353C112.046 53.3246 111.846 54.3841 111.586 55.3139C111.326 56.2438 110.86 56.9942 110.188 57.5653C109.515 58.1364 108.556 58.5139 107.309 58.6976C106.086 58.8854 104.439 58.8435 102.369 58.5718C100.229 58.2878 98.5071 57.8637 97.2028 57.2993C95.8985 56.7349 94.8684 56.1001 94.1127 55.3949C93.3801 54.6938 92.8653 53.9718 92.5685 53.2289C92.2948 52.4901 92.1188 51.8044 92.0405 51.1716C91.9663 50.5158 91.9335 49.9625 91.9419 49.5118C91.9545 49.0379 91.8882 48.7405 91.743 48.6196C91.5788 48.4715 91.4126 48.3349 91.2444 48.2099C91.0992 48.089 90.9404 47.9775 90.7681 47.8756C90.5998 47.7505 90.4295 47.637 90.2571 47.5351L100.619 47.6933C99.9602 48.0526 99.4345 48.3998 99.0419 48.7349C98.6724 49.074 98.3802 49.3793 98.1655 49.6507C97.9196 49.9642 97.7354 50.2647 97.613 50.5525C97.5096 50.8674 97.5418 51.2897 97.7098 51.8193C97.8778 52.3489 98.1401 52.8834 98.4968 53.4226C98.8806 53.9429 99.346 54.4062 99.8928 54.8126C100.44 55.2189 101.04 55.4563 101.695 55.5246C102.515 55.5985 103.207 55.5189 103.772 55.2858C104.341 55.0296 104.798 54.6702 105.141 54.2075C105.508 53.7488 105.768 53.2236 105.921 52.6317C106.073 52.0399 106.12 51.4412 106.06 50.8356C106.028 50.211 105.896 49.6163 105.663 49.0513C105.433 48.4633 105.13 47.9573 104.753 47.5334C104.41 47.187 103.845 46.8132 103.06 46.4121C102.297 46.0151 101.434 45.5766 100.472 45.0966C99.533 44.6207 98.5674 44.0926 97.5753 43.5121C96.6064 42.9357 95.7461 42.2834 94.9944 41.5552C94.2659 40.831 93.7173 40.0316 93.3486 39.1569C93.003 38.2864 92.9861 37.3075 93.2978 36.2202C93.5578 35.2904 93.9968 34.5589 94.615 34.0258C95.2603 33.4736 96.008 33.0825 96.8581 32.8523C97.7353 32.6031 98.675 32.4721 99.677 32.4593C100.702 32.4505 101.724 32.5246 102.744 32.6814C103.791 32.8193 104.804 33.0108 105.784 33.2559C106.787 33.5051 107.684 33.7474 108.476 33.9829C109.267 34.2184 109.932 34.4313 110.469 34.6218C111.034 34.7933 111.383 34.9028 111.518 34.9504C112.11 35.1029 112.712 35.1977 113.324 35.2348C113.863 35.2827 114.458 35.2811 115.11 35.23C115.789 35.1599 116.461 34.9934 117.126 34.7305ZM116.249 34.6464C117.762 35.105 119.076 35.4807 120.191 35.7734C121.309 36.043 122.234 36.2664 122.964 36.4434C123.81 36.6409 124.523 36.7792 125.104 36.8584C125.708 36.9417 126.538 37.0291 127.593 37.1209C128.482 37.2071 129.652 37.3192 131.103 37.4574C132.559 37.5725 134.38 37.7049 136.567 37.8545C136.496 38.3893 136.416 38.9106 136.326 39.4184C136.263 39.9071 136.21 40.3381 136.168 40.7114C136.113 41.154 136.053 41.5599 135.988 41.9292C135.918 42.3215 135.807 42.8136 135.655 43.4054C135.519 43.905 135.323 44.5368 135.069 45.301C134.842 46.0462 134.53 46.9312 134.134 47.956C134.032 46.6525 133.898 45.5934 133.733 44.7787C133.572 43.9409 133.406 43.2687 133.234 42.7622C133.051 42.1823 132.846 41.7293 132.618 41.4033C132.355 41.1425 132.027 40.906 131.637 40.6939C131.288 40.5131 130.831 40.3369 130.266 40.1654C129.725 39.998 129.065 39.893 128.287 39.8504C127.632 42.8762 127.113 45.3312 126.732 47.2154C126.35 49.0996 126.054 50.5705 125.843 51.628C125.595 52.8932 125.422 53.8027 125.324 54.3566C125.208 55.1453 125.197 55.9409 125.293 56.7434C125.363 57.4223 125.545 58.1447 125.838 58.9107C126.13 59.6766 126.622 60.3945 127.312 61.0644L123.089 60.3159C122.697 60.2464 122.208 60.1836 121.623 60.1275C121.13 60.0878 120.499 60.0235 119.729 59.9347C118.982 59.85 118.103 59.7774 117.09 59.7169C117.542 59.1782 117.916 58.6849 118.209 58.2371C118.503 57.7893 118.738 57.4025 118.915 57.0768C119.127 56.6859 119.296 56.3351 119.422 56.0243C119.527 55.5668 119.751 54.6424 120.092 53.251C120.218 52.6781 120.368 51.9668 120.542 51.117C120.74 50.2713 120.966 49.2641 121.22 48.0953C121.498 46.9306 121.795 45.5907 122.111 44.0758C122.455 42.5418 122.833 40.8117 123.245 38.8854C122.85 38.6964 122.456 38.6384 122.062 38.7115C121.673 38.7614 121.323 38.8542 121.013 38.9897C120.649 39.1632 120.289 39.385 119.931 39.6549C119.562 39.994 119.137 40.4424 118.657 41.0001C118.24 41.4736 117.746 42.1121 117.176 42.9154C116.609 43.6957 115.948 44.6734 115.192 45.8486C115.314 44.4897 115.427 43.3792 115.532 42.5171C115.642 41.632 115.728 40.945 115.79 40.4563C115.87 39.8753 115.934 39.4463 115.983 39.1693C116.028 38.9155 116.064 38.5768 116.091 38.1532C116.107 37.7988 116.129 37.3386 116.158 36.7725C116.191 36.1832 116.221 35.4745 116.249 34.6464Z" fill="#DDC5F7"/>
</svg>
