<svg width="96" height="69" viewBox="0 0 96 69" fill="none" xmlns="http://www.w3.org/2000/svg">
<path d="M81.8313 25.3774C80.8081 25.3774 79.8102 25.4977 78.8484 25.7263C78.3982 25.8333 77.9236 25.6492 77.679 25.2564C76.6715 23.638 75.5139 22.1434 74.2284 20.7975C74.113 20.6766 74.0281 20.5291 73.9817 20.3685C70.7304 9.13242 61.2334 1 50.0241 1C41.4857 1 33.9409 5.71859 29.3932 12.9332C29.1727 13.2829 28.7659 13.47 28.3565 13.4123C27.3086 13.2647 26.2406 13.1887 25.1566 13.1887C11.263 13.1887 3.57628e-06 25.6825 3.57628e-06 41.0943C3.57628e-06 56.5062 11.263 69 25.1566 69C30.8773 69 36.1521 66.8818 40.3782 63.3139C40.7711 62.9822 41.3494 62.9822 41.7423 63.3139C45.9684 66.8818 51.2432 69 56.9639 69C65.5551 69 73.1405 64.2227 77.679 56.9323C77.9235 56.5395 78.3982 56.3554 78.8484 56.4624C79.8102 56.691 80.8081 56.8113 81.8313 56.8113C89.6565 56.8113 96 49.7746 96 41.0943C96 32.4141 89.6565 25.3774 81.8313 25.3774Z" fill="#D2E3EE"/>
<path d="M80.75 27C79.8837 27 79.0384 27.0899 78.2229 27.261C77.7968 27.3503 77.3536 27.183 77.1046 26.8259C76.2577 25.6111 75.29 24.4868 74.2189 23.4703C74.0918 23.3498 73.9968 23.1989 73.9427 23.0323C71.1124 14.3077 62.9178 8 53.25 8C45.8998 8 39.4012 11.646 35.464 17.228C35.239 17.547 34.8556 17.7165 34.4682 17.6682C33.5777 17.5572 32.6705 17.5 31.75 17.5C19.7378 17.5 10 27.2378 10 39.25C10 51.2622 19.7378 61 31.75 61C36.6724 61 41.2129 59.3648 44.8579 56.608C45.237 56.3212 45.763 56.3212 46.1421 56.608C49.7871 59.3648 54.3276 61 59.25 61C66.643 61 73.1745 57.3114 77.1046 51.6742C77.3535 51.317 77.7968 51.1497 78.2229 51.239C79.0384 51.4101 79.8837 51.5 80.75 51.5C87.5155 51.5 93 46.0155 93 39.25C93 32.4845 87.5155 27 80.75 27Z" fill="#F9F5F0" fill-opacity="0.88"/>
</svg>
