<svg width="156" height="80" viewBox="0 0 156 80" fill="none" xmlns="http://www.w3.org/2000/svg">
<g opacity="0.6">
<path opacity="0.5" d="M84.7931 35.0483C85.059 34.2175 86.2345 34.2175 86.5004 35.0483V35.0483C86.6192 35.4195 86.9653 35.6714 87.3551 35.6714V35.6714C88.2273 35.6714 88.5804 36.7978 87.8785 37.3156V37.3156C87.5655 37.5465 87.4304 37.9543 87.5489 38.3247L87.5605 38.361C87.825 39.1875 86.876 39.8685 86.1777 39.3534V39.3534C85.862 39.1206 85.4315 39.1206 85.1158 39.3534V39.3534C84.4175 39.8685 83.4685 39.1875 83.733 38.361L83.7446 38.3247C83.8631 37.9543 83.7281 37.5465 83.4151 37.3156V37.3156C82.7131 36.7978 83.0662 35.6714 83.9385 35.6714V35.6714C84.3282 35.6714 84.6744 35.4195 84.7931 35.0483V35.0483Z" fill="#E9E7E3"/>
<path opacity="0.5" d="M84.7931 35.0483C85.059 34.2175 86.2345 34.2175 86.5004 35.0483V35.0483C86.6192 35.4195 86.9653 35.6714 87.3551 35.6714V35.6714C88.2273 35.6714 88.5804 36.7978 87.8785 37.3156V37.3156C87.5655 37.5465 87.4304 37.9543 87.5489 38.3247L87.5605 38.361C87.825 39.1875 86.876 39.8685 86.1777 39.3534V39.3534C85.862 39.1206 85.4315 39.1206 85.1158 39.3534V39.3534C84.4175 39.8685 83.4685 39.1875 83.733 38.361L83.7446 38.3247C83.8631 37.9543 83.7281 37.5465 83.4151 37.3156V37.3156C82.7131 36.7978 83.0662 35.6714 83.9385 35.6714V35.6714C84.3282 35.6714 84.6744 35.4195 84.7931 35.0483V35.0483Z" fill="#E9E7E3"/>
<path opacity="0.5" d="M69.7198 69.7859C69.4422 70.6018 68.2807 70.58 68.033 69.7542V69.7542C67.9223 69.3853 67.5848 69.13 67.1997 69.1227V69.1227C66.3379 69.1066 66.0093 67.987 66.7121 67.4885V67.4885C67.0256 67.2661 67.1663 66.8657 67.0559 66.4974L67.0451 66.4614C66.7986 65.6399 67.7485 64.9846 68.4292 65.5065V65.5065C68.737 65.7424 69.1624 65.7504 69.4785 65.5262V65.5262C70.1777 65.0302 71.1031 65.7207 70.8269 66.5324L70.8148 66.568C70.691 66.9318 70.8171 67.3373 71.1222 67.5712V67.5712C71.8065 68.0959 71.4373 69.2023 70.5755 69.1861V69.1861C70.1904 69.1789 69.8439 69.4213 69.7198 69.7859V69.7859Z" fill="#E9E7E3"/>
<path opacity="0.5" d="M109.182 73.1435C109.448 72.3127 110.624 72.3127 110.89 73.1435V73.1435C111.008 73.5147 111.354 73.7666 111.744 73.7666V73.7666C112.616 73.7666 112.97 74.893 112.268 75.4108V75.4108C111.955 75.6417 111.82 76.0495 111.938 76.42L111.95 76.4562C112.214 77.2827 111.265 77.9637 110.567 77.4486V77.4486C110.251 77.2158 109.821 77.2158 109.505 77.4486V77.4486C108.807 77.9637 107.858 77.2827 108.122 76.4562L108.134 76.42C108.252 76.0495 108.117 75.6417 107.804 75.4108V75.4108C107.102 74.893 107.455 73.7666 108.328 73.7666V73.7666C108.717 73.7666 109.064 73.5147 109.182 73.1435V73.1435Z" fill="#E9E7E3"/>
<path opacity="0.5" d="M109.182 73.1435C109.448 72.3127 110.624 72.3127 110.89 73.1435V73.1435C111.008 73.5147 111.354 73.7666 111.744 73.7666V73.7666C112.616 73.7666 112.97 74.893 112.268 75.4108V75.4108C111.955 75.6417 111.82 76.0495 111.938 76.42L111.95 76.4562C112.214 77.2827 111.265 77.9637 110.567 77.4486V77.4486C110.251 77.2158 109.821 77.2158 109.505 77.4486V77.4486C108.807 77.9637 107.858 77.2827 108.122 76.4562L108.134 76.42C108.252 76.0495 108.117 75.6417 107.804 75.4108V75.4108C107.102 74.893 107.455 73.7666 108.328 73.7666V73.7666C108.717 73.7666 109.064 73.5147 109.182 73.1435V73.1435Z" fill="#E9E7E3"/>
<path opacity="0.5" d="M47.234 31.7104C46.9563 32.5263 45.7949 32.5045 45.5471 31.6787V31.6787C45.4364 31.3097 45.099 31.0544 44.7139 31.0472V31.0472C43.852 31.031 43.5234 29.9115 44.2263 29.4129V29.4129C44.5397 29.1906 44.6805 28.7901 44.57 28.4219L44.5592 28.3858C44.3128 27.5644 45.2627 26.909 45.9434 27.4309V27.4309C46.2511 27.6668 46.6765 27.6748 46.9926 27.4506V27.4506C47.6919 26.9546 48.6173 27.6452 48.3411 28.4568L48.329 28.4924C48.2052 28.8563 48.3313 29.2617 48.6364 29.4957V29.4957C49.3206 30.0203 48.9515 31.1267 48.0897 31.1106V31.1106C47.7046 31.1033 47.358 31.3458 47.234 31.7104V31.7104Z" fill="#E9E7E3"/>
<path opacity="0.75" d="M87.1191 3.6686C87.5765 2.41799 89.3453 2.41799 89.8027 3.6686L89.8258 3.7319C90.018 4.25719 90.5177 4.60655 91.0771 4.60655H91.3486C92.5972 4.60655 93.0768 6.23384 92.0277 6.91096V6.91096C91.5361 7.22827 91.3322 7.85063 91.5332 8.40015V8.40015C91.9606 9.56865 90.6668 10.6369 89.6215 9.96218L89.2456 9.7196C88.7679 9.41126 88.1539 9.41126 87.6762 9.7196L87.3003 9.96218C86.255 10.6369 84.9612 9.56865 85.3886 8.40015V8.40015C85.5896 7.85063 85.3857 7.22827 84.8941 6.91096V6.91096C83.845 6.23384 84.3246 4.60655 85.5732 4.60655H85.8447C86.4041 4.60655 86.9038 4.25719 87.096 3.7319L87.1191 3.6686Z" fill="#E9E7E3"/>
<path opacity="0.75" d="M87.1191 3.6686C87.5765 2.41799 89.3453 2.41799 89.8027 3.6686L89.8258 3.7319C90.018 4.25719 90.5177 4.60655 91.0771 4.60655H91.3486C92.5972 4.60655 93.0768 6.23384 92.0277 6.91096V6.91096C91.5361 7.22827 91.3322 7.85063 91.5332 8.40015V8.40015C91.9606 9.56865 90.6668 10.6369 89.6215 9.96218L89.2456 9.7196C88.7679 9.41126 88.1539 9.41126 87.6762 9.7196L87.3003 9.96218C86.255 10.6369 84.9612 9.56865 85.3886 8.40015V8.40015C85.5896 7.85063 85.3857 7.22827 84.8941 6.91096V6.91096C83.845 6.23384 84.3246 4.60655 85.5732 4.60655H85.8447C86.4041 4.60655 86.9038 4.25719 87.096 3.7319L87.1191 3.6686Z" fill="#E9E7E3"/>
<path opacity="0.75" d="M111.105 41.8178C111.519 40.6094 113.243 40.6094 113.657 41.8178V41.8178C113.838 42.3434 114.334 42.7018 114.89 42.7018H115.01C116.25 42.7018 116.748 44.3021 115.726 45.0053V45.0053C115.259 45.3266 115.065 45.9225 115.249 46.4585V46.4585C115.651 47.6306 114.329 48.6495 113.308 47.9468L113.147 47.8354C112.686 47.518 112.076 47.518 111.615 47.8354L111.454 47.9468C110.433 48.6495 109.111 47.6306 109.513 46.4585V46.4585C109.697 45.9225 109.503 45.3266 109.036 45.0053V45.0053C108.015 44.3021 108.512 42.7018 109.752 42.7018H109.873C110.428 42.7018 110.924 42.3434 111.105 41.8178V41.8178Z" fill="#E9E7E3"/>
<path opacity="0.75" d="M111.105 41.8178C111.519 40.6094 113.243 40.6094 113.657 41.8178V41.8178C113.838 42.3434 114.334 42.7018 114.89 42.7018H115.01C116.25 42.7018 116.748 44.3021 115.726 45.0053V45.0053C115.259 45.3266 115.065 45.9225 115.249 46.4585V46.4585C115.651 47.6306 114.329 48.6495 113.308 47.9468L113.147 47.8354C112.686 47.518 112.076 47.518 111.615 47.8354L111.454 47.9468C110.433 48.6495 109.111 47.6306 109.513 46.4585V46.4585C109.697 45.9225 109.503 45.3266 109.036 45.0053V45.0053C108.015 44.3021 108.512 42.7018 109.752 42.7018H109.873C110.428 42.7018 110.924 42.3434 111.105 41.8178V41.8178Z" fill="#E9E7E3"/>
<path opacity="0.75" d="M44.7627 63.2926C44.3462 64.5165 42.6041 64.4838 42.2324 63.2451V63.2451C42.0664 62.6916 41.5602 62.3087 40.9825 62.2978V62.2978C39.6898 62.2736 39.1969 60.5943 40.2512 59.8464V59.8464C40.7213 59.5129 40.9325 58.9122 40.7668 58.3599L40.7506 58.3058C40.3809 57.0736 41.8058 56.0905 42.8269 56.8734V56.8734C43.2884 57.2273 43.9266 57.2393 44.4007 56.903V56.903C45.4496 56.1589 46.8377 57.1948 46.4234 58.4123L46.4052 58.4657C46.2195 59.0114 46.4087 59.6197 46.8663 59.9706V59.9706C47.8927 60.7575 47.339 62.4171 46.0463 62.3929V62.3929C45.4686 62.382 44.9488 62.7457 44.7627 63.2926V63.2926Z" fill="#E9E7E3"/>
<path d="M130.314 34.0646C130.396 33.677 130.949 33.677 131.032 34.0646V34.0646C131.068 34.2341 131.218 34.3552 131.391 34.3552L131.454 34.3552C131.84 34.3552 132.043 34.8128 131.785 35.0991L131.518 35.3946C131.415 35.5081 131.373 35.664 131.405 35.8137L131.511 36.3096C131.584 36.6501 131.159 36.8672 130.925 36.609V36.609C130.79 36.4594 130.555 36.4594 130.42 36.609V36.609C130.187 36.8672 129.762 36.6501 129.835 36.3096L129.94 35.8137C129.972 35.664 129.93 35.5081 129.828 35.3946L129.561 35.0991C129.302 34.8128 129.505 34.3552 129.891 34.3552L129.954 34.3552C130.128 34.3552 130.277 34.2341 130.314 34.0646V34.0646Z" fill="#E9E7E3"/>
<path d="M130.314 34.0646C130.396 33.677 130.949 33.677 131.032 34.0646V34.0646C131.068 34.2341 131.218 34.3552 131.391 34.3552L131.454 34.3552C131.84 34.3552 132.043 34.8128 131.785 35.0991L131.518 35.3946C131.415 35.5081 131.373 35.664 131.405 35.8137L131.511 36.3096C131.584 36.6501 131.159 36.8672 130.925 36.609V36.609C130.79 36.4594 130.555 36.4594 130.42 36.609V36.609C130.187 36.8672 129.762 36.6501 129.835 36.3096L129.94 35.8137C129.972 35.664 129.93 35.5081 129.828 35.3946L129.561 35.0991C129.302 34.8128 129.505 34.3552 129.891 34.3552L129.954 34.3552C130.128 34.3552 130.277 34.2341 130.314 34.0646V34.0646Z" fill="#E9E7E3"/>
<path d="M25.2485 70.2694C25.1096 70.6773 24.5289 70.6664 24.405 70.2535V70.2535C24.3497 70.069 24.1809 69.9414 23.9884 69.9378V69.9378C23.5575 69.9297 23.3932 69.3699 23.7446 69.1206V69.1206C23.9013 69.0095 23.9717 68.8092 23.9165 68.6251L23.9111 68.6071C23.7878 68.1964 24.2628 67.8687 24.6032 68.1296V68.1296C24.757 68.2476 24.9697 68.2516 25.1278 68.1395V68.1395C25.4774 67.8915 25.9401 68.2368 25.802 68.6426L25.796 68.6604C25.7341 68.8423 25.7971 69.0451 25.9497 69.162V69.162C26.2918 69.4243 26.1072 69.9775 25.6763 69.9695V69.9695C25.4838 69.9658 25.3105 70.0871 25.2485 70.2694V70.2694Z" fill="#E9E7E3"/>
<path d="M153.218 72.1147C153.337 71.6671 153.973 71.6671 154.092 72.1147V72.1147C154.145 72.3127 154.324 72.4504 154.529 72.4504L154.566 72.4504C155.026 72.4504 155.242 73.0199 154.897 73.3251L154.747 73.4579C154.6 73.5883 154.539 73.7906 154.59 73.9806L154.659 74.2408C154.771 74.6601 154.27 74.9693 153.945 74.6817V74.6817C153.78 74.535 153.53 74.535 153.365 74.6817V74.6817C153.04 74.9693 152.539 74.6601 152.651 74.2408L152.72 73.9806C152.771 73.7906 152.71 73.5883 152.563 73.4579L152.413 73.3251C152.068 73.0199 152.284 72.4504 152.744 72.4504L152.781 72.4504C152.986 72.4504 153.165 72.3127 153.218 72.1147V72.1147Z" fill="#E9E7E3"/>
<path d="M153.218 72.1147C153.337 71.6671 153.973 71.6671 154.092 72.1147V72.1147C154.145 72.3127 154.324 72.4504 154.529 72.4504L154.566 72.4504C155.026 72.4504 155.242 73.0199 154.897 73.3251L154.747 73.4579C154.6 73.5883 154.539 73.7906 154.59 73.9806L154.659 74.2408C154.771 74.6601 154.27 74.9693 153.945 74.6817V74.6817C153.78 74.535 153.53 74.535 153.365 74.6817V74.6817C153.04 74.9693 152.539 74.6601 152.651 74.2408L152.72 73.9806C152.771 73.7906 152.71 73.5883 152.563 73.4579L152.413 73.3251C152.068 73.0199 152.284 72.4504 152.744 72.4504L152.781 72.4504C152.986 72.4504 153.165 72.3127 153.218 72.1147V72.1147Z" fill="#E9E7E3"/>
<path d="M2.76286 32.1938C2.62404 32.6018 2.04331 32.5909 1.91943 32.178V32.178C1.86408 31.9935 1.69535 31.8658 1.5028 31.8622V31.8622C1.07188 31.8541 0.907581 31.2944 1.25902 31.0451V31.0451C1.41573 30.9339 1.48612 30.7337 1.43089 30.5496L1.42548 30.5315C1.30225 30.1208 1.77722 29.7931 2.11757 30.0541V30.0541C2.27143 30.172 2.48414 30.176 2.64219 30.0639V30.0639C2.99181 29.8159 3.45452 30.1612 3.31642 30.567L3.31036 30.5848C3.24846 30.7668 3.31152 30.9695 3.46407 31.0865V31.0865C3.8062 31.3488 3.62163 31.902 3.19071 31.8939V31.8939C2.99816 31.8903 2.82489 32.0115 2.76286 32.1938V32.1938Z" fill="#E9E7E3"/>
</g>
</svg>
