<svg width="67" height="99" viewBox="0 0 67 99" fill="none" xmlns="http://www.w3.org/2000/svg">
<path d="M53.7978 20.8461C50.7205 19.2502 47.504 18.9301 44.1484 19.8858C36.5912 22.043 29.7067 25.411 22.697 28.881C21.7877 29.3295 20.7888 29.495 19.7001 29.3774C18.6393 29.2661 17.6372 29.4501 16.694 29.9295C16.6065 29.9733 16.5282 30.0204 16.4707 30.0638C16.4131 30.1072 16.3792 30.1446 16.3738 30.1707C16.0924 31.5779 15.9965 32.9882 16.0862 34.4016C16.0914 34.4828 16.1173 34.5611 16.1621 34.631C16.2069 34.7009 16.2695 34.7607 16.3456 34.8063C16.4216 34.8518 16.5092 34.882 16.6023 34.8946C16.6953 34.9072 16.7915 34.9021 16.8842 34.8795C18.3223 34.5331 19.7651 34.4789 21.2125 34.7171C22.98 35.0047 23.6202 33.8078 24.831 33.1815C29.798 30.6207 34.9289 28.4481 40.2237 26.6635C40.3257 26.6295 40.4386 26.6249 40.5623 26.6496C40.7262 26.6867 40.7309 26.7486 40.5763 26.8352C35.5753 29.6682 31.8253 33.664 29.3263 38.8227" stroke="#A88EC3" stroke-width="2"/>
<path d="M29.3278 38.8226C28.6845 40.2298 28.4727 41.719 28.6923 43.2901C29.4577 48.7782 31.1325 54.206 32.5149 59.5688C32.5221 59.5957 32.5229 59.6239 32.5174 59.6512C32.5118 59.6785 32.5001 59.7041 32.483 59.7261C32.466 59.7481 32.4441 59.7659 32.419 59.778C32.394 59.7902 32.3665 59.7964 32.3386 59.7962C22.5903 59.9415 12.8403 60.073 3.08886 60.1905C1.64145 60.209 0.927022 60.4364 1.00589 62.0415C1.21001 66.0373 1.5935 70.2373 2.15639 74.6414C2.22443 75.1919 2.52287 75.5507 3.05174 75.7177C5.07131 76.3517 6.26358 75.6156 6.62853 73.5095C7.09553 70.828 7.50841 68.1296 7.86717 65.4142C7.87527 65.352 7.90599 65.295 7.95323 65.2547C8.00048 65.2143 8.06082 65.1934 8.12233 65.1961L39.0608 66.1286" stroke="#77A36B" stroke-width="2"/>
<path d="M39.041 66.4119C41.3977 73.751 44.7735 84.0666 48.556 94.5387C48.9147 95.5253 49.3647 96.3155 49.906 96.9093C49.955 96.9625 50.0179 97.0033 50.0897 97.0282C50.1614 97.0532 50.2399 97.0618 50.3189 97.0531L59.8337 96.0511C59.9963 96.0335 60.1501 95.9592 60.2728 95.8391C60.3955 95.7189 60.4806 95.5591 60.5157 95.383C60.8064 93.9418 60.5373 93.0418 59.7085 92.6831C58.6739 92.2377 55.5657 92.3351 54.1415 92.3026C53.9867 92.3003 53.8367 92.2486 53.7132 92.1552C53.5897 92.0617 53.4993 91.9314 53.4549 91.7831C49.4931 78.8368 45.556 65.9044 41.6437 52.9859C41.0375 50.9911 40.4823 48.9823 39.9782 46.9597" stroke="#77A36B" stroke-width="2"/>
<path d="M39.9778 46.9598C43.6241 43.1047 50.0215 38.7949 55.5467 39.1336C55.6017 39.1374 55.6552 39.1526 55.7039 39.1783C55.7527 39.204 55.7955 39.2397 55.8296 39.283C55.8636 39.3262 55.8883 39.3762 55.9019 39.4295C55.9155 39.4829 55.9178 39.5385 55.9086 39.5929C55.0735 44.4578 54.1395 49.1093 53.1065 53.5474C52.3148 56.9432 51.9205 59.3494 51.9236 60.7659C51.9236 61.5762 52.3318 61.8113 53.1483 61.4711C53.3343 61.3923 53.5401 61.3728 53.7377 61.4151C53.9352 61.4574 54.1149 61.5596 54.2524 61.7076C54.9158 62.4267 56.9942 65.8782 57.9823 64.5561C58.0253 64.4971 58.054 64.4298 58.0661 64.3596C58.0782 64.2895 58.0733 64.2185 58.0519 64.1525L57.1751 61.4525C56.971 60.8185 57.1643 60.6376 57.755 60.9097C59.6261 61.7664 60.2245 61.4401 59.5503 59.9309C59.04 58.8036 57.5879 57.653 56.7158 56.7623C56.6503 56.6938 56.6029 56.6104 56.5777 56.5197C56.5526 56.4289 56.5507 56.3338 56.572 56.2427C57.8647 50.5675 59.0941 44.8815 60.2601 39.1846C60.9591 35.7733 61.2452 32.9914 61.1184 30.8388C60.9281 27.6378 59.4529 25.6569 57.1797 23.3327" stroke="#A88EC3" stroke-width="2"/>
<path d="M57.1813 23.3325C57.1751 21.8696 57.52 20.5351 58.2159 19.3289C58.2886 19.2015 58.4011 19.0938 58.5406 19.0181C63.0545 16.6057 66.3344 12.4769 64.1354 7.17435C64.0941 7.07339 64.0695 6.97305 64.0653 6.88851C64.0611 6.80396 64.0776 6.73983 64.1122 6.7058L65.2024 5.70838C65.2767 5.63988 65.3384 5.56949 65.3833 5.50216C65.4282 5.43483 65.4551 5.3722 65.4622 5.31869C65.5271 4.89499 64.9998 4.71097 63.8802 4.76664C63.339 4.79447 63.2246 4.59189 63.5369 4.15891L65.1885 1.85789C65.2331 1.79487 65.258 1.7181 65.2604 1.63617C65.2629 1.55424 65.2428 1.47039 65.2024 1.39398C64.3395 -0.22508 59.6401 3.61149 58.7354 4.50684C58.3519 4.88725 57.8911 5.08828 57.353 5.10993C52.5282 5.30014 49.7216 10.0506 50.5938 14.5645C50.7515 15.3748 51.1288 16.0398 51.7257 16.5593L53.9617 18.4985C54.0878 18.6067 54.1714 18.7493 54.1983 18.9021C54.3313 19.6011 54.1984 20.249 53.7994 20.8459" stroke="#EEB77A" stroke-width="2"/>
<path d="M57.1812 23.3325L53.7993 20.8459" stroke="#FE9D42" stroke-width="2"/>
<path d="M39.9793 46.9597L39.302 46.5143" stroke="#8C4756" stroke-width="2"/>
<path d="M39.3018 46.5143C36.5029 45.0236 33.9127 43.2329 31.5312 41.1422" stroke="#914740" stroke-width="2"/>
<path d="M31.5312 41.1422L29.3276 38.8226" stroke="#55804A" stroke-width="2"/>
<path d="M31.5312 41.1422C31.4353 41.2937 31.3889 41.4561 31.392 41.6293C31.3922 41.6952 31.4096 41.7647 31.4431 41.8334C31.4767 41.902 31.5256 41.9684 31.5868 42.0282C33.6621 44.0293 35.9708 45.704 38.5131 47.0524C38.574 47.0856 38.6435 47.0982 38.71 47.0881C38.7766 47.078 38.8364 47.0458 38.8796 46.9968L39.3017 46.5143" stroke="#1F2847" stroke-width="2"/>
<path d="M44.0006 33.1304C44.3207 32.7082 44.2604 32.119 44.9888 32.0309C45.0826 32.0193 45.168 31.9987 45.2388 31.9705C45.3095 31.9424 45.3636 31.9075 45.397 31.8685C45.8841 31.2886 43.9032 31.2933 43.2584 32.0309C43.1374 32.1671 43.0001 32.2624 42.864 32.3046L40.3775 33.0886C40.3452 33.0986 40.315 33.1145 40.2888 33.1351C40.2627 33.1558 40.2411 33.1808 40.2254 33.2087C40.2097 33.2366 40.2003 33.2667 40.1977 33.2971C40.1952 33.3275 40.1995 33.3576 40.2105 33.3855C40.9063 35.1577 43.2305 34.1232 44.0006 33.1304Z" stroke="#A88EC3" stroke-width="2"/>
<path d="M57.1813 23.3325L53.7994 20.8459C54.1984 20.249 54.3313 19.6011 54.1983 18.9021C54.1714 18.7493 54.0878 18.6067 53.9617 18.4985L51.7257 16.5593C51.1288 16.0398 50.7515 15.3748 50.5938 14.5645C49.7216 10.0506 52.5282 5.30014 57.353 5.10993C57.8911 5.08828 58.3519 4.88725 58.7354 4.50684C59.6401 3.61149 64.3395 -0.22508 65.2024 1.39398C65.2428 1.47039 65.2629 1.55424 65.2604 1.63617C65.258 1.7181 65.2331 1.79487 65.1885 1.85789L63.5369 4.15891C63.2246 4.59189 63.339 4.79447 63.8802 4.76664C64.9998 4.71097 65.5271 4.89499 65.4622 5.31869C65.4551 5.3722 65.4282 5.43483 65.3833 5.50216C65.3384 5.56949 65.2767 5.63988 65.2024 5.70838L64.1122 6.7058C64.0776 6.73983 64.0611 6.80396 64.0653 6.88851C64.0695 6.97305 64.0941 7.07339 64.1354 7.17435C66.3344 12.4769 63.0545 16.6057 58.5406 19.0181C58.4011 19.0938 58.2886 19.2015 58.2159 19.3289C57.52 20.5351 57.1751 21.8696 57.1813 23.3325Z" fill="#FACB98"/>
<path d="M53.7995 20.8458L57.1814 23.3324C59.4546 25.6566 60.9299 27.6375 61.1201 30.8385C61.2469 32.9911 60.9608 35.773 60.2618 39.1844C59.0959 44.8812 57.8665 50.5673 56.5737 56.2425C56.5524 56.3335 56.5544 56.4287 56.5795 56.5194C56.6046 56.6101 56.652 56.6935 56.7175 56.7621C57.5897 57.6528 59.0418 58.8033 59.5521 59.9306C60.2263 61.4399 59.6278 61.7662 57.7567 60.9095C57.166 60.6373 56.9727 60.8182 57.1768 61.4522L58.0536 64.1522C58.075 64.2182 58.0799 64.2892 58.0678 64.3594C58.0557 64.4295 58.027 64.4969 57.984 64.5558C56.9959 65.878 54.9175 62.4264 54.2541 61.7074C54.1167 61.5593 53.937 61.4572 53.7394 61.4148C53.5419 61.3725 53.3361 61.392 53.15 61.4708C52.3335 61.811 51.9253 61.5759 51.9253 60.7656C51.9222 59.3492 52.3165 56.943 53.1083 53.5471C54.1413 49.109 55.0753 44.4575 55.9103 39.5926C55.9195 39.5383 55.9173 39.4826 55.9036 39.4293C55.89 39.3759 55.8654 39.326 55.8313 39.2827C55.7972 39.2394 55.7544 39.2038 55.7057 39.1781C55.657 39.1523 55.6034 39.1371 55.5485 39.1333C50.0233 38.7947 43.6259 43.1044 39.9795 46.9596L39.3022 46.5142C36.5033 45.0235 33.9131 43.2328 31.5316 41.1421L29.328 38.8225C31.827 33.6638 35.577 29.6679 40.578 26.835C40.7326 26.7484 40.728 26.6865 40.564 26.6494C40.4403 26.6247 40.3274 26.6293 40.2254 26.6633C34.9306 28.4478 29.7997 30.6205 24.8327 33.1813C23.6219 33.8076 22.9817 35.0045 21.2142 34.7169C19.7668 34.4787 18.324 34.5328 16.8859 34.8792C16.7932 34.9018 16.697 34.907 16.604 34.8944C16.5109 34.8817 16.4233 34.8516 16.3473 34.806C16.2712 34.7605 16.2086 34.7007 16.1638 34.6308C16.119 34.5609 16.0931 34.4826 16.0879 34.4014C15.9982 32.988 16.0941 31.5777 16.3756 30.1705C16.3809 30.1444 16.4148 30.1069 16.4724 30.0635C16.53 30.0202 16.6082 29.9731 16.6957 29.9293C17.639 29.4499 18.641 29.2659 19.7018 29.3772C20.7905 29.4947 21.7894 29.3293 22.6987 28.8808C29.7085 25.4107 36.5929 22.0427 44.1501 19.8855C47.5058 18.9299 50.7222 19.25 53.7995 20.8458ZM44.0017 33.1303C44.3218 32.7081 44.2614 32.1189 44.9898 32.0308C45.0836 32.0192 45.1691 31.9986 45.2398 31.9704C45.3105 31.9423 45.3646 31.9074 45.398 31.8684C45.8852 31.2885 43.9042 31.2932 43.2594 32.0308C43.1384 32.167 43.0011 32.2623 42.8651 32.3045L40.3785 33.0885C40.3462 33.0985 40.316 33.1144 40.2899 33.135C40.2637 33.1557 40.2421 33.1807 40.2264 33.2086C40.2108 33.2365 40.2013 33.2665 40.1988 33.297C40.1962 33.3274 40.2005 33.3575 40.2115 33.3854C40.9074 35.1576 43.2316 34.1231 44.0017 33.1303Z" fill="#DDC5F7"/>
<path d="M29.3278 38.8226L31.5314 41.1422C31.4356 41.2937 31.3892 41.4561 31.3923 41.6293C31.3924 41.6952 31.4098 41.7647 31.4434 41.8334C31.4769 41.902 31.5259 41.9684 31.5871 42.0282C33.6623 44.0293 35.9711 45.704 38.5133 47.0524C38.5743 47.0856 38.6437 47.0982 38.7103 47.0881C38.7769 47.078 38.8367 47.0458 38.8798 46.9968L39.302 46.5143L39.9793 46.9597C40.4834 48.9823 41.0386 50.9911 41.6448 52.9859C45.5571 65.9044 49.4942 78.8367 53.456 91.783C53.5004 91.9314 53.5908 92.0617 53.7143 92.1552C53.8378 92.2486 53.9878 92.3002 54.1426 92.3026C55.5668 92.3351 58.675 92.2377 59.7096 92.683C60.5384 93.0418 60.8075 93.9418 60.5168 95.383C60.4817 95.5591 60.3966 95.7189 60.2739 95.839C60.1512 95.9592 59.9974 96.0335 59.8348 96.0511L50.32 97.0531C50.241 97.0617 50.1625 97.0532 50.0908 97.0282C50.019 97.0032 49.9561 96.9625 49.9071 96.9093C49.3658 96.3155 48.9158 95.5253 48.5571 94.5387C44.7746 84.0666 41.7051 75.161 39.3484 67.8219C40.5638 68.2177 41.4051 67.9177 41.8721 66.9219C41.8834 66.8982 41.8887 66.8722 41.8875 66.8458C41.8863 66.8194 41.8787 66.7933 41.8652 66.7696C41.8518 66.7459 41.8329 66.7251 41.81 66.7089C41.787 66.6927 41.7607 66.6814 41.7329 66.676L39.0607 66.1286L8.12233 65.1961C8.06082 65.1934 8.00048 65.2143 7.95323 65.2547C7.90599 65.295 7.87527 65.352 7.86717 65.4142C7.50841 68.1296 7.09553 70.828 6.62852 73.5095C6.26358 75.6156 5.07131 76.3517 3.05174 75.7177C2.52287 75.5507 2.22443 75.1919 2.15639 74.6414C1.5935 70.2373 1.21001 66.0373 1.00589 62.0415C0.927022 60.4364 1.64145 60.209 3.08886 60.1905C12.8403 60.073 22.5903 59.9415 32.3386 59.7962C32.3665 59.7964 32.394 59.7902 32.419 59.778C32.4441 59.7659 32.466 59.7481 32.483 59.7261C32.5001 59.7041 32.5118 59.6785 32.5174 59.6512C32.5229 59.6239 32.5221 59.5957 32.5149 59.5688C31.1325 54.206 29.4577 48.7782 28.6923 43.2901C28.4727 41.719 28.6845 40.2298 29.3278 38.8226Z" fill="#55804A"/>
<path d="M31.5312 41.1422C33.9126 43.2329 36.5028 45.0236 39.3017 46.5143L38.8796 46.9968C38.8364 47.0458 38.7766 47.078 38.71 47.0881C38.6435 47.0982 38.574 47.0856 38.5131 47.0524C35.9708 45.704 33.6621 44.0293 31.5868 42.0282C31.5256 41.9684 31.4767 41.902 31.4431 41.8334C31.4096 41.7647 31.3922 41.6952 31.392 41.6293C31.3889 41.4561 31.4353 41.2937 31.5312 41.1422Z" fill="#44693A"/>
<path d="M39.3486 67.8216L38.8091 65.948L41.7331 66.6757C41.7609 66.6811 41.7873 66.6924 41.8102 66.7086C41.8331 66.7248 41.852 66.7456 41.8655 66.7693C41.8789 66.7931 41.8865 66.8191 41.8877 66.8455C41.8889 66.8719 41.8836 66.8979 41.8723 66.9216C41.4053 67.9175 40.5641 68.2175 39.3486 67.8216Z" fill="#55804A"/>
</svg>
