<svg width="26" height="22" viewBox="0 0 26 22" fill="none" xmlns="http://www.w3.org/2000/svg">
<path fill-rule="evenodd" clip-rule="evenodd" d="M5.33404 3.39535C5.42159 2.93818 5.85409 2.64384 6.30005 2.73791L22.9967 6.25989C23.4427 6.35396 23.7332 6.80083 23.6457 7.25799C23.5581 7.71515 23.1256 8.0095 22.6796 7.91543L5.98298 4.39345C5.53702 4.29938 5.24648 3.85251 5.33404 3.39535Z" fill="#EEB77A"/>
<path fill-rule="evenodd" clip-rule="evenodd" d="M2.20441 11.5929C2.21065 11.1484 2.58941 10.7885 3.0504 10.789C4.97464 10.791 6.91038 10.7742 8.85225 10.7574C13.3232 10.7188 17.8267 10.6798 22.2973 10.8685C22.7576 10.888 23.1098 11.2637 23.0839 11.7078C23.058 12.1518 22.6639 12.4961 22.2036 12.4766C17.7784 12.2898 13.3473 12.3282 8.89722 12.3668C6.94477 12.3837 4.98867 12.4006 3.02783 12.3986C2.56684 12.3981 2.19818 12.0374 2.20441 11.5929Z" fill="#EEB77A"/>
<path fill-rule="evenodd" clip-rule="evenodd" d="M23.833 16.1164C23.9164 16.5443 23.611 16.9624 23.1508 17.0503C18.5352 17.9315 13.9627 18.9871 9.37254 20.0469C7.52744 20.4729 5.67948 20.8995 3.82471 21.3157C3.36771 21.4183 2.91682 21.1572 2.81762 20.7325C2.71841 20.3079 3.00845 19.8805 3.46545 19.7779C5.2962 19.3671 7.13016 18.9437 8.96762 18.5195C13.5713 17.4566 18.1969 16.3887 22.8488 15.5006C23.309 15.4127 23.7496 15.6884 23.833 16.1164Z" fill="#EEB77A"/>
</svg>
