<svg width="350" height="275" viewBox="0 0 350 275" fill="none" xmlns="http://www.w3.org/2000/svg">
<path d="M305.873 206.268C307.36 201.649 309.174 195.521 309.165 190.659C309.165 190.633 309.159 190.607 309.148 190.583C309.137 190.559 309.121 190.538 309.1 190.521C309.08 190.504 309.056 190.492 309.03 190.486C309.004 190.48 308.978 190.479 308.952 190.485C304.241 191.446 299.549 193.764 295.478 196.107C295.305 196.207 295.105 196.248 294.912 196.223C294.718 196.198 294.542 196.109 294.412 195.97C290.784 192.065 286.557 188.961 281.729 186.659C281.663 186.627 281.59 186.613 281.515 186.618C281.441 186.622 281.368 186.645 281.301 186.685C281.234 186.725 281.176 186.781 281.131 186.848C281.086 186.915 281.055 186.991 281.041 187.072C280.138 192.279 280.827 196.059 282.132 201.197C282.162 201.316 282.155 201.441 282.111 201.555C282.068 201.67 281.99 201.768 281.889 201.837C277.721 204.64 273.686 207.623 269.786 210.788C269.682 210.872 269.7 210.934 269.838 210.976C274.976 212.507 280.167 213.83 285.411 214.946C285.483 214.96 285.548 214.989 285.598 215.026C285.647 215.064 285.677 215.108 285.684 215.154L287.717 227.709C287.814 228.301 288.074 228.381 288.498 227.947L297.967 218.304C298.42 217.847 298.941 217.658 299.53 217.737C304.609 218.426 309.917 218.799 315.456 218.857C315.908 218.862 316.19 218.646 316.301 218.211C316.317 218.148 316.315 218.081 316.297 218.015C316.279 217.95 316.244 217.888 316.196 217.835C312.459 213.687 309.567 210.556 307.52 208.442C306.802 207.699 306.272 207.101 305.931 206.648C305.893 206.595 305.868 206.534 305.858 206.468C305.848 206.402 305.853 206.334 305.873 206.268Z" stroke="#55804A" stroke-width="2"/>
<path d="M307.767 191.206C303.403 192.907 299.142 194.838 294.985 196.996C294.938 197.021 294.882 197.031 294.822 197.026C294.763 197.021 294.701 197.001 294.645 196.967C293.006 195.987 291.917 194.322 290.563 193.319C287.926 191.37 285.174 189.625 282.309 188.085C282.239 188.047 282.161 188.026 282.081 188.025C282.001 188.023 281.922 188.04 281.85 188.076C281.777 188.111 281.715 188.163 281.666 188.227C281.618 188.291 281.585 188.366 281.571 188.445C280.834 192.657 281.749 196.951 282.68 200.962C282.815 201.547 282.62 202.021 282.094 202.384L271.759 209.547C270.877 210.161 270.943 210.615 271.954 210.91C276.436 212.218 280.952 213.34 285.502 214.274C285.656 214.305 285.797 214.377 285.908 214.48C286.019 214.583 286.096 214.714 286.129 214.856C286.959 218.503 287.586 222.178 288.012 225.88C288.096 226.624 288.415 226.738 288.967 226.222C291.734 223.613 294.389 220.876 297.237 218.342C298.369 217.338 299.455 217.116 300.872 217.263C305.484 217.751 310.108 218.077 314.744 218.241C315.614 218.272 315.738 217.977 315.115 217.357C311.903 214.159 308.804 210.856 305.821 207.446C305.363 206.924 305.246 206.315 305.468 205.618C305.81 204.54 305.842 203.424 306.165 202.414C307.301 198.861 308.082 195.328 308.508 191.813C308.581 191.187 308.334 190.985 307.767 191.206Z" stroke="#55804A" stroke-width="2"/>
<path d="M305.931 206.648C306.272 207.101 306.802 207.699 307.52 208.442C309.567 210.556 312.459 213.687 316.196 217.835C316.244 217.888 316.279 217.95 316.297 218.015C316.315 218.081 316.317 218.148 316.301 218.211C316.19 218.646 315.908 218.862 315.456 218.857C309.917 218.799 304.609 218.426 299.53 217.737C298.941 217.658 298.42 217.847 297.967 218.304L288.498 227.947C288.074 228.381 287.814 228.301 287.717 227.709L285.684 215.154C285.677 215.108 285.647 215.064 285.598 215.026C285.548 214.989 285.483 214.96 285.411 214.946C280.167 213.83 274.976 212.507 269.838 210.976C269.7 210.934 269.682 210.872 269.786 210.788C273.686 207.623 277.721 204.64 281.889 201.837C281.99 201.768 282.068 201.67 282.111 201.555C282.155 201.441 282.162 201.316 282.132 201.197C280.827 196.059 280.138 192.279 281.041 187.072C281.055 186.991 281.086 186.915 281.131 186.848C281.176 186.781 281.234 186.725 281.301 186.685C281.368 186.645 281.441 186.622 281.515 186.618C281.59 186.613 281.663 186.627 281.729 186.659C286.557 188.961 290.784 192.065 294.412 195.97C294.542 196.109 294.718 196.198 294.912 196.223C295.105 196.248 295.305 196.207 295.478 196.107C299.549 193.764 304.241 191.446 308.952 190.485C308.978 190.479 309.004 190.48 309.03 190.486C309.056 190.492 309.08 190.504 309.1 190.521C309.121 190.538 309.137 190.559 309.148 190.583C309.159 190.607 309.165 190.633 309.165 190.659C309.174 195.521 307.36 201.649 305.873 206.268C305.853 206.334 305.848 206.402 305.858 206.468C305.868 206.534 305.893 206.595 305.931 206.648ZM307.767 191.206C303.403 192.908 299.142 194.838 294.985 196.997C294.938 197.021 294.882 197.031 294.822 197.026C294.763 197.021 294.702 197.001 294.645 196.968C293.006 195.987 291.917 194.322 290.563 193.32C287.926 191.37 285.175 189.626 282.309 188.085C282.239 188.047 282.161 188.027 282.081 188.025C282.001 188.023 281.922 188.041 281.85 188.076C281.778 188.111 281.715 188.163 281.666 188.227C281.618 188.291 281.585 188.366 281.571 188.445C280.834 192.657 281.749 196.951 282.68 200.962C282.815 201.547 282.62 202.021 282.094 202.384L271.759 209.547C270.878 210.161 270.943 210.615 271.954 210.91C276.436 212.218 280.952 213.34 285.502 214.275C285.656 214.306 285.797 214.377 285.908 214.48C286.019 214.583 286.096 214.714 286.129 214.857C286.959 218.504 287.587 222.178 288.012 225.881C288.097 226.625 288.415 226.739 288.967 226.223C291.734 223.613 294.39 220.876 297.237 218.343C298.369 217.339 299.455 217.116 300.872 217.263C305.484 217.751 310.108 218.077 314.744 218.242C315.615 218.272 315.738 217.977 315.115 217.357C311.903 214.159 308.805 210.856 305.821 207.447C305.364 206.924 305.246 206.315 305.468 205.619C305.81 204.54 305.842 203.424 306.165 202.414C307.301 198.862 308.082 195.328 308.508 191.813C308.581 191.188 308.334 190.985 307.767 191.206Z" fill="#55804A"/>
<path d="M307.766 191.206C308.333 190.985 308.58 191.187 308.507 191.813C308.082 195.328 307.301 198.862 306.165 202.414C305.841 203.424 305.81 204.54 305.467 205.619C305.245 206.315 305.363 206.924 305.82 207.447C308.804 210.856 311.902 214.159 315.114 217.357C315.738 217.977 315.614 218.272 314.743 218.242C310.107 218.077 305.483 217.751 300.872 217.263C299.455 217.116 298.369 217.338 297.237 218.342C294.389 220.876 291.734 223.613 288.967 226.222C288.415 226.739 288.096 226.625 288.012 225.881C287.586 222.178 286.958 218.503 286.129 214.856C286.096 214.714 286.019 214.583 285.908 214.48C285.797 214.377 285.656 214.306 285.502 214.275C280.951 213.34 276.435 212.218 271.954 210.91C270.942 210.615 270.877 210.161 271.759 209.547L282.094 202.384C282.619 202.021 282.814 201.547 282.679 200.962C281.748 196.951 280.834 192.657 281.571 188.445C281.585 188.366 281.617 188.291 281.666 188.227C281.714 188.163 281.777 188.111 281.849 188.076C281.921 188.041 282.001 188.023 282.08 188.025C282.16 188.026 282.239 188.047 282.309 188.085C285.174 189.625 287.926 191.37 290.563 193.319C291.917 194.322 293.006 195.987 294.644 196.968C294.701 197.001 294.762 197.021 294.822 197.026C294.881 197.031 294.937 197.021 294.985 196.996C299.142 194.838 303.402 192.908 307.766 191.206ZM288.176 204.917C288.117 205.194 288.134 205.484 288.227 205.771C288.32 206.059 288.487 206.337 288.718 206.591C288.949 206.845 289.239 207.07 289.573 207.252C289.907 207.434 290.277 207.57 290.663 207.653C291.048 207.735 291.442 207.762 291.821 207.733C292.2 207.703 292.557 207.617 292.872 207.48C293.186 207.342 293.452 207.156 293.655 206.932C293.857 206.708 293.992 206.451 294.051 206.174C294.11 205.897 294.093 205.607 294 205.32C293.907 205.032 293.74 204.754 293.509 204.5C293.278 204.246 292.988 204.021 292.654 203.839C292.32 203.657 291.95 203.521 291.564 203.438C291.178 203.356 290.785 203.329 290.406 203.358C290.027 203.388 289.67 203.474 289.355 203.611C289.04 203.749 288.774 203.935 288.572 204.159C288.37 204.383 288.235 204.641 288.176 204.917Z" fill="#55804A"/>
<path d="M259.802 222.354C259.681 220.396 259.414 218.462 258.999 216.55C258.862 215.936 258.865 214.783 259.929 215.418C260.043 215.487 260.132 215.601 260.183 215.741C260.79 217.437 261.252 219.177 261.567 220.961C262.341 225.342 266.391 217.041 266.401 220.843C266.401 220.954 266.35 221.089 266.257 221.225C266.111 221.444 266.05 221.694 266.072 221.975C266.076 222.033 266.104 222.088 266.15 222.128C266.196 222.168 266.257 222.19 266.321 222.191C267.814 222.217 268.702 222.299 268.983 222.437C271.229 223.537 266.139 224.152 265.83 224.199C265.744 224.213 265.666 224.234 265.601 224.262C265.537 224.289 265.488 224.321 265.458 224.357L264.752 225.192C264.692 225.262 264.649 225.346 264.625 225.436C264.601 225.526 264.597 225.622 264.613 225.717C264.629 225.812 264.664 225.904 264.718 225.987C264.771 226.07 264.84 226.143 264.921 226.201C265.261 226.438 270.166 229.595 268.08 229.967C267.95 229.988 267.809 229.965 267.677 229.901C266.292 229.206 262.816 226.667 261.522 228.186C259.472 230.592 257.951 232.318 256.957 233.363C256.917 233.403 256.865 233.433 256.805 233.45C256.745 233.467 256.679 233.47 256.612 233.46C256.371 233.425 256.238 233.285 256.212 233.038C256.197 232.886 256.22 232.747 256.277 232.641L259.913 226.075C260.336 225.315 260.074 224.876 259.126 224.757L252.51 223.956C252.44 223.947 252.371 223.917 252.312 223.868C252.254 223.819 252.206 223.754 252.175 223.679C251.819 222.785 258.782 222.669 259.599 222.591C259.656 222.584 259.709 222.556 259.747 222.512C259.785 222.468 259.805 222.412 259.802 222.354Z" fill="#CF9F6F" stroke="#CF9F6F" stroke-width="2"/>
<path d="M288.477 252.101C288.537 252.064 288.585 252.013 288.618 251.951C288.651 251.889 288.667 251.819 288.665 251.748C288.663 251.676 288.643 251.606 288.606 251.544C288.57 251.481 288.518 251.428 288.456 251.39C286.988 250.481 285.605 249.454 284.307 248.311C284.261 248.269 284.227 248.212 284.21 248.146C284.193 248.08 284.193 248.007 284.211 247.936C284.604 246.367 287.926 248.755 288.557 249.128C289.425 249.646 289.664 249.447 289.273 248.531L287.137 243.51C287.107 243.44 287.095 243.365 287.103 243.293C287.11 243.221 287.136 243.154 287.179 243.1C287.8 242.309 288.365 242.39 288.875 243.345C290.107 245.657 291.2 247.857 292.154 249.946C292.448 250.594 292.838 250.653 293.325 250.121L296.742 246.38C296.792 246.325 296.854 246.285 296.918 246.265C296.982 246.246 297.046 246.247 297.1 246.27C297.434 246.418 297.672 246.658 297.813 246.99C297.831 247.033 297.831 247.093 297.811 247.163C297.791 247.234 297.753 247.312 297.701 247.389C296.619 248.971 295.672 250.635 294.859 252.379C294.577 252.983 294.784 253.307 295.477 253.352C297.357 253.477 299.231 253.654 301.1 253.884C301.814 253.972 302.002 254.276 301.662 254.797C301.619 254.865 301.562 254.921 301.498 254.961C301.433 255 301.362 255.022 301.291 255.025L297.555 255.138C296.57 255.169 296.332 255.532 296.84 256.229L298.123 257.991C298.186 258.075 298.239 258.157 298.274 258.225C298.309 258.293 298.324 258.343 298.317 258.369C298.209 258.957 297.883 259.189 297.339 259.064C297.209 259.036 297.096 258.972 297.016 258.882L294.837 256.406C294.283 255.779 293.703 255.768 293.097 256.373C292.566 256.903 291.094 259.748 290.224 258.669C290.179 258.614 290.148 258.551 290.134 258.487C290.121 258.424 290.124 258.361 290.145 258.306L291.418 254.768C291.449 254.682 291.456 254.589 291.44 254.499C291.423 254.409 291.384 254.324 291.325 254.253C291.266 254.182 291.189 254.127 291.102 254.094C291.016 254.06 290.922 254.049 290.83 254.062C288.56 254.383 286.284 254.901 284 255.616C281.79 256.31 283.628 254.484 284.284 254.208C285.842 253.557 287.239 252.855 288.477 252.101Z" fill="#CF9F6F" stroke="#FACB98" stroke-width="2"/>
<path d="M259.599 222.59C258.782 222.669 251.82 222.785 252.176 223.679C252.207 223.754 252.254 223.819 252.313 223.868C252.372 223.917 252.44 223.947 252.511 223.956L259.127 224.757C260.074 224.876 260.336 225.315 259.913 226.074L256.278 232.64C256.22 232.747 256.197 232.886 256.212 233.038C256.238 233.284 256.371 233.425 256.612 233.46C256.679 233.47 256.746 233.466 256.806 233.449C256.866 233.432 256.918 233.403 256.957 233.362C257.951 232.318 259.473 230.592 261.522 228.186C262.817 226.667 266.292 229.206 267.677 229.901C267.809 229.965 267.95 229.988 268.08 229.967C270.167 229.595 265.261 226.438 264.922 226.201C264.84 226.143 264.771 226.07 264.718 225.987C264.665 225.904 264.629 225.812 264.613 225.717C264.597 225.622 264.601 225.526 264.625 225.436C264.649 225.345 264.693 225.262 264.753 225.192L265.459 224.356C265.489 224.321 265.537 224.289 265.602 224.262C265.666 224.234 265.744 224.213 265.83 224.199C266.14 224.152 271.229 223.537 268.984 222.437C268.702 222.299 267.814 222.217 266.321 222.191C266.257 222.19 266.197 222.168 266.151 222.128C266.105 222.088 266.077 222.033 266.072 221.975C266.05 221.694 266.111 221.444 266.257 221.225C266.35 221.089 266.402 220.954 266.402 220.843C266.391 217.04 262.342 225.342 261.568 220.961C261.252 219.177 260.79 217.437 260.183 215.741C260.133 215.601 260.043 215.487 259.929 215.418C258.865 214.783 258.862 215.936 258.999 216.55C259.414 218.461 259.682 220.396 259.802 222.354C259.805 222.412 259.785 222.468 259.747 222.512C259.71 222.556 259.656 222.584 259.599 222.59Z" fill="#CF9F6F"/>
<path d="M288.477 252.101C287.239 252.854 285.842 253.557 284.284 254.208C283.628 254.484 281.79 256.31 284 255.616C286.284 254.901 288.56 254.382 290.83 254.061C290.922 254.049 291.016 254.06 291.102 254.094C291.189 254.127 291.266 254.182 291.325 254.253C291.384 254.324 291.423 254.408 291.44 254.499C291.456 254.589 291.449 254.682 291.418 254.768L290.145 258.306C290.124 258.361 290.121 258.424 290.134 258.487C290.148 258.551 290.179 258.613 290.224 258.669C291.094 259.748 292.566 256.903 293.097 256.373C293.703 255.768 294.283 255.779 294.837 256.406L297.016 258.882C297.096 258.972 297.209 259.035 297.339 259.064C297.883 259.189 298.209 258.957 298.317 258.369C298.324 258.343 298.309 258.293 298.274 258.225C298.239 258.157 298.186 258.075 298.123 257.99L296.84 256.229C296.332 255.532 296.57 255.169 297.555 255.138L301.291 255.025C301.362 255.022 301.433 255 301.498 254.961C301.562 254.921 301.619 254.865 301.662 254.797C302.002 254.276 301.814 253.972 301.1 253.884C299.231 253.654 297.357 253.476 295.477 253.352C294.784 253.307 294.577 252.983 294.859 252.379C295.672 250.635 296.619 248.971 297.701 247.389C297.753 247.312 297.791 247.234 297.811 247.163C297.831 247.093 297.831 247.033 297.813 246.99C297.672 246.658 297.434 246.418 297.1 246.27C297.046 246.247 296.982 246.245 296.918 246.265C296.854 246.285 296.792 246.325 296.742 246.38L293.325 250.121C292.838 250.652 292.448 250.594 292.154 249.945C291.2 247.857 290.107 245.657 288.875 243.345C288.365 242.39 287.8 242.308 287.179 243.1C287.136 243.154 287.11 243.221 287.103 243.293C287.095 243.365 287.107 243.44 287.137 243.51L289.273 248.531C289.664 249.447 289.425 249.646 288.557 249.128C287.926 248.755 284.604 246.367 284.211 247.936C284.193 248.007 284.193 248.079 284.21 248.145C284.227 248.212 284.261 248.269 284.307 248.311C285.605 249.454 286.988 250.48 288.456 251.39C288.518 251.428 288.57 251.481 288.606 251.543C288.643 251.606 288.663 251.676 288.665 251.748C288.667 251.819 288.651 251.889 288.618 251.95C288.585 252.012 288.537 252.064 288.477 252.101Z" fill="#FACB98"/>
<path d="M23.7698 37.3891L24.3287 39.3935C24.3466 39.4568 24.3911 39.5104 24.4535 39.5439C24.5159 39.5773 24.5917 39.5882 24.6658 39.5742C25.9058 39.3422 26.6468 37.5059 27.192 36.4643C27.2111 36.4278 27.2349 36.3938 27.2618 36.3646C27.2887 36.3354 27.318 36.3118 27.3476 36.2954C27.3773 36.279 27.4066 36.2701 27.4335 36.2695C27.4605 36.2689 27.4844 36.2764 27.5036 36.2917L28.9907 37.4528C29.1003 37.5397 29.2216 37.5898 29.336 37.5953C30.9103 37.6607 28.982 34.1389 28.768 33.5027C28.746 33.4363 28.7388 33.3685 28.7473 33.3061C28.7558 33.2437 28.7796 33.1891 28.8162 33.148L30.9385 30.7906C31.4159 30.2576 31.3081 29.9034 30.6153 29.7277C29.6481 29.4801 29.1165 29.6006 28.3966 30.3519C26.7237 32.1087 27.7794 28.9351 26.4004 28.4301C26.3094 28.3974 26.218 28.3831 26.1394 28.3893C26.0609 28.3955 25.9994 28.4219 25.9639 28.4647C25.3014 29.2333 24.4819 29.7091 23.5052 29.8922C23.4331 29.9061 23.3665 29.9379 23.3123 29.9844C23.2582 30.0308 23.2185 30.0902 23.1974 30.1562C22.9116 31.0575 22.9214 31.9477 23.2267 32.8268C23.2445 32.8806 23.2449 32.9388 23.2278 32.9937C23.2107 33.0486 23.177 33.0974 23.1313 33.1335C22.038 33.9821 20.2203 35.2784 20.7848 36.8762C20.9831 37.4387 21.4038 37.6363 22.0469 37.4692L23.5007 37.0896C23.5468 37.0773 23.601 37.1019 23.6514 37.158C23.7017 37.2141 23.7443 37.2971 23.7698 37.3891Z" stroke="#FBB5A0" stroke-width="2"/>
<path d="M23.5007 37.0897L22.0469 37.4694C21.4038 37.6365 20.9831 37.4388 20.7848 36.8764C20.2203 35.2785 22.038 33.9822 23.1313 33.1337C23.177 33.0976 23.2107 33.0487 23.2278 32.9939C23.2449 32.939 23.2445 32.8808 23.2267 32.827C22.9214 31.9479 22.9116 31.0576 23.1974 30.1563C23.2185 30.0903 23.2582 30.031 23.3123 29.9846C23.3665 29.9381 23.4331 29.9063 23.5052 29.8924C24.4819 29.7093 25.3014 29.2335 25.9639 28.4649C25.9994 28.4221 26.0609 28.3957 26.1394 28.3895C26.218 28.3833 26.3094 28.3975 26.4004 28.4302C27.7794 28.9353 26.7237 32.1089 28.3966 30.3521C29.1165 29.6008 29.6481 29.4803 30.6153 29.7279C31.3081 29.9035 31.4159 30.2578 30.9385 30.7907L28.8162 33.1482C28.7796 33.1893 28.7558 33.2439 28.7473 33.3063C28.7388 33.3686 28.746 33.4365 28.768 33.5028C28.982 34.1391 30.9103 37.6609 29.336 37.5955C29.2216 37.5899 29.1003 37.5399 28.9907 37.453L27.5036 36.2919C27.4844 36.2766 27.4605 36.269 27.4335 36.2697C27.4066 36.2703 27.3773 36.2791 27.3476 36.2956C27.318 36.312 27.2887 36.3356 27.2618 36.3648C27.2349 36.394 27.2111 36.428 27.192 36.4645C26.6468 37.5061 25.9058 39.3424 24.6658 39.5744C24.5917 39.5883 24.5159 39.5775 24.4535 39.5441C24.3911 39.5106 24.3466 39.4569 24.3287 39.3936L23.7698 37.3893C23.7443 37.2973 23.7017 37.2143 23.6514 37.1582C23.601 37.1021 23.5468 37.0775 23.5007 37.0897Z" fill="#F76A40"/>
<g filter="url(#filter0_d_31_3593)">
<path d="M93.1471 27.2882C92.8437 23.8887 91.9542 23.5997 90.4788 26.4213C90.1505 27.0527 88.9006 28.7504 86.7293 31.5144C86.6859 31.5696 86.6549 31.6323 86.6387 31.6981C86.6224 31.7639 86.6212 31.8311 86.6352 31.8948C87.0026 33.603 88.5009 32.9506 89.4541 32.2917C89.7764 32.0696 89.9322 32.1587 89.9213 32.5589C89.8993 33.3623 90.1232 34.0875 90.5931 34.7347C90.6591 34.825 90.734 34.9003 90.8056 34.9483C90.8771 34.9964 90.9411 35.0142 90.9869 34.999C91.8569 34.6985 92.4838 34.1285 92.8674 33.2889C92.8954 33.2262 92.9386 33.1718 92.9938 33.1297C93.0491 33.0876 93.1149 33.0588 93.1865 33.0456C93.2581 33.0323 93.3337 33.0349 93.4075 33.0531C93.4813 33.0713 93.5515 33.1046 93.613 33.1507C94.3059 33.6742 96.2083 35.6691 96.315 33.1981C96.3208 33.0273 96.2931 32.8788 96.2358 32.7745L94.8748 30.344C94.7698 30.1575 94.736 29.9398 94.7798 29.7324C94.8235 29.5251 94.9418 29.3426 95.112 29.2199C98.8079 26.5857 96.3277 24.8713 93.4512 27.4093C93.2675 27.573 93.1661 27.5326 93.1471 27.2882Z" stroke="#FBB5A0"/>
<path d="M93.1471 27.2884C93.1661 27.5328 93.2675 27.5732 93.4512 27.4095C96.3277 24.8715 98.8079 26.5859 95.112 29.2201C94.9418 29.3428 94.8235 29.5253 94.7798 29.7326C94.736 29.94 94.7698 30.1577 94.8748 30.3442L96.2358 32.7747C96.2931 32.879 96.3208 33.0274 96.315 33.1983C96.2083 35.6693 94.3059 33.6744 93.613 33.1509C93.5515 33.1048 93.4813 33.0714 93.4075 33.0532C93.3337 33.035 93.2581 33.0325 93.1865 33.0458C93.1149 33.059 93.0491 33.0878 92.9938 33.1299C92.9386 33.172 92.8954 33.2264 92.8674 33.2891C92.4838 34.1287 91.8569 34.6987 90.9869 34.9992C90.9411 35.0144 90.8771 34.9965 90.8056 34.9485C90.734 34.9005 90.6591 34.8252 90.5931 34.7349C90.1232 34.0877 89.8993 33.3625 89.9213 32.5591C89.9322 32.1589 89.7764 32.0698 89.4541 32.2918C88.5009 32.9508 87.0026 33.6032 86.6352 31.895C86.6212 31.8313 86.6224 31.7641 86.6387 31.6983C86.6549 31.6325 86.6859 31.5698 86.7293 31.5146C88.9006 28.7506 90.1505 27.0529 90.4788 26.4214C91.9542 23.5999 92.8437 23.8889 93.1471 27.2884Z" fill="#EA6D41" stroke="#FBB5A0"/>
</g>
<path d="M96.0348 76.6798C94.4366 77.2005 92.8267 80.4838 95.433 79.6338C95.683 79.5502 99.3488 78.0218 99.7813 78.6191C99.8636 78.7315 99.9001 78.8625 99.8827 78.9835C99.762 79.808 99.905 80.578 100.312 81.2937C100.353 81.3655 100.412 81.4259 100.482 81.4696C100.553 81.5133 100.633 81.5389 100.716 81.5443C100.799 81.5497 100.882 81.5346 100.958 81.5004C101.035 81.4661 101.101 81.4138 101.153 81.348C101.936 80.3476 102.23 79.2152 102.036 77.951C102.028 77.8985 102.037 77.8418 102.063 77.7871C102.089 77.7324 102.131 77.6817 102.184 77.6405C102.969 77.0321 103.537 76.2575 103.886 75.3168C103.902 75.273 103.896 75.2224 103.868 75.176C103.84 75.1295 103.792 75.0909 103.735 75.0684C103.059 74.8039 102.364 74.7141 101.653 74.7991C101.602 74.8051 101.546 74.7913 101.494 74.7595C101.441 74.7276 101.394 74.6791 101.358 74.6198C100.574 73.3359 99.6062 73.0647 98.4543 73.8062C97.5058 74.4165 96.2608 74.1095 95.8881 75.3438C95.8549 75.4612 95.865 75.584 95.9164 75.6884L96.288 76.4381C96.2965 76.4549 96.2965 76.4748 96.288 76.4965C96.2796 76.5181 96.2628 76.5411 96.2389 76.564C96.215 76.5868 96.1845 76.6089 96.1493 76.6288C96.1141 76.6488 96.0751 76.6661 96.0348 76.6798Z" stroke="#39372A" stroke-width="2"/>
<path d="M97.9672 76.1088C97.6694 77.4715 100.339 74.9771 98.2155 75.8334C98.1527 75.8579 98.0972 75.8958 98.0539 75.9439C98.0106 75.9919 97.9809 76.0486 97.9672 76.1088Z" stroke="#4E5257" stroke-width="2"/>
<path d="M96.288 76.4383L95.9164 75.6886C95.865 75.5841 95.8549 75.4613 95.8881 75.344C96.2608 74.1096 97.5058 74.4167 98.4543 73.8064C99.6062 73.0649 100.574 73.336 101.358 74.62C101.394 74.6793 101.441 74.7278 101.494 74.7597C101.546 74.7915 101.602 74.8053 101.653 74.7993C102.364 74.7143 103.059 74.8041 103.735 75.0686C103.792 75.091 103.84 75.1297 103.868 75.1761C103.896 75.2226 103.902 75.2732 103.886 75.317C103.537 76.2577 102.969 77.0323 102.184 77.6407C102.131 77.6819 102.089 77.7326 102.063 77.7873C102.037 77.842 102.028 77.8987 102.036 77.9511C102.23 79.2154 101.936 80.3477 101.153 81.3482C101.101 81.414 101.035 81.4663 100.958 81.5005C100.882 81.5348 100.799 81.5498 100.716 81.5445C100.633 81.5391 100.553 81.5135 100.482 81.4698C100.412 81.4261 100.353 81.3657 100.312 81.2939C99.905 80.5782 99.762 79.8081 99.8827 78.9837C99.9001 78.8626 99.8636 78.7316 99.7813 78.6193C99.3488 78.022 95.683 79.5504 95.433 79.634C92.8267 80.484 94.4366 77.2007 96.0348 76.68C96.0751 76.6663 96.1141 76.649 96.1493 76.629C96.1845 76.609 96.215 76.5869 96.2389 76.5641C96.2628 76.5413 96.2796 76.5183 96.288 76.4966C96.2965 76.475 96.2965 76.4551 96.288 76.4383ZM97.9672 76.109C97.6694 77.4717 100.339 74.9773 98.2155 75.8335C98.1527 75.8581 98.0972 75.896 98.0539 75.9441C98.0106 75.9921 97.9809 76.0487 97.9672 76.109Z" fill="#DDC5F7"/>
<path d="M98.2154 75.8336C100.339 74.9773 97.6692 77.4717 97.9671 76.1091C97.9807 76.0488 98.0105 75.9922 98.0538 75.9441C98.0971 75.8961 98.1526 75.8581 98.2154 75.8336Z" fill="#39372A"/>
<path d="M73.7516 51.9872C72.4442 51.6364 71.6179 52.8216 69.9603 52.261C69.851 52.2262 69.7007 52.2396 69.5398 52.2984C68.6284 52.6331 67.6805 52.7613 66.6962 52.683C66.5611 52.6722 66.4248 52.7171 66.317 52.8079C64.8848 54.0079 66.894 55.1412 67.8202 55.6792C67.8423 55.6923 67.8613 55.7101 67.8761 55.7311C67.8908 55.7521 67.9008 55.776 67.9055 55.801C67.9101 55.826 67.9093 55.8516 67.903 55.876C67.8967 55.9004 67.8851 55.9231 67.869 55.9424C67.1874 56.8043 65.8001 57.9296 66.2674 59.1431C66.3008 59.2301 66.3549 59.3076 66.4252 59.3691C66.4955 59.4305 66.58 59.4743 66.6717 59.4969C66.7635 59.5194 66.8598 59.52 66.9529 59.4987C67.0461 59.4773 67.1332 59.4346 67.2073 59.374L70.9546 56.3114C71.3115 56.0189 71.7029 55.9535 72.1287 56.1153C72.7954 56.3691 76.2634 58.3016 76.2754 56.5854C76.2819 55.8066 74.9574 54.5788 74.4245 54.0256C74.4059 54.0064 74.3913 53.9836 74.3816 53.9586C74.3719 53.9335 74.3673 53.9067 74.3681 53.8797C74.3688 53.8527 74.3749 53.8259 74.386 53.801C74.3971 53.7761 74.4129 53.7536 74.4326 53.7347C74.6776 53.4922 77.5908 51.2721 76.3108 51.0658C76.2546 51.0565 76.1934 51.0632 76.1318 51.0853C76.0703 51.1074 76.0102 51.1443 75.9563 51.1931C75.4707 51.634 74.8718 51.8719 74.1597 51.9068" stroke="#39372A" stroke-width="2"/>
<path d="M70.4787 54.7095C70.4858 54.6384 70.4643 54.5673 70.419 54.512C70.3736 54.4567 70.3082 54.4216 70.2371 54.4146C70.1659 54.4075 70.0948 54.429 70.0395 54.4743C69.9842 54.5196 69.9492 54.5851 69.9421 54.6562C69.935 54.7274 69.9565 54.7984 70.0018 54.8538C70.0472 54.9091 70.1126 54.9441 70.1838 54.9512C70.2549 54.9582 70.326 54.9368 70.3813 54.8914C70.4366 54.8461 70.4716 54.7807 70.4787 54.7095Z" stroke="#313439" stroke-width="2"/>
<path d="M73.9132 51.5401C74.3213 51.4598 74.124 52.5517 74.3213 51.4598C75.0334 51.4249 75.469 51.6341 75.9546 51.1932C76.0085 51.1443 76.0686 51.1074 76.1301 51.0853C76.1916 51.0632 76.2529 51.0565 76.3091 51.0658C77.5891 51.2721 74.6759 53.4923 74.4309 53.7347C74.4112 53.7536 74.3953 53.7762 74.3843 53.8011C74.3732 53.826 74.3671 53.8527 74.3664 53.8798C74.3656 53.9068 74.3702 53.9336 74.3799 53.9587C74.3896 53.9837 74.4042 54.0065 74.4228 54.0257C74.9557 54.5788 76.2802 55.8066 76.2737 56.5855C76.2617 58.3017 72.7937 56.3692 72.127 56.1154C71.7012 55.9536 71.3098 56.0189 70.9529 56.3114L67.2056 59.3741C67.1315 59.4347 67.0443 59.4774 66.9512 59.4987C66.8581 59.5201 66.7618 59.5195 66.67 59.4969C66.5783 59.4744 66.4938 59.4306 66.4235 59.3691C66.3532 59.3076 66.2991 59.2302 66.2656 59.1432C65.7984 57.9297 67.1857 56.8044 67.8673 55.9425C67.8834 55.9232 67.895 55.9005 67.9013 55.8761C67.9075 55.8517 67.9084 55.8261 67.9038 55.801C67.8991 55.776 67.8891 55.7522 67.8744 55.7311C67.8596 55.7101 67.8406 55.6924 67.8185 55.6792C66.8923 55.1412 64.8831 54.008 66.3153 52.808C66.4231 52.7172 66.5594 52.6723 66.6945 52.6831C67.6788 52.7614 68.6267 52.6332 69.538 52.2985C69.699 52.2397 69.8493 52.2263 69.9586 52.261C71.6162 52.8216 72.6058 51.1894 73.9132 51.5401ZM70.4783 54.7095C70.4854 54.6383 70.4639 54.5673 70.4186 54.512C70.3732 54.4566 70.3078 54.4216 70.2367 54.4145C70.1655 54.4075 70.0944 54.429 70.0391 54.4743C69.9838 54.5196 69.9488 54.585 69.9417 54.6562C69.9346 54.7274 69.9561 54.7984 70.0015 54.8537C70.0468 54.909 70.1122 54.9441 70.1834 54.9511C70.2545 54.9582 70.3256 54.9367 70.3809 54.8914C70.4362 54.8461 70.4712 54.7806 70.4783 54.7095Z" fill="#DDC5F7"/>
<path d="M70.1838 54.9514C70.332 54.9661 70.464 54.8579 70.4787 54.7097C70.4934 54.5615 70.3852 54.4295 70.2371 54.4148C70.0889 54.4001 69.9568 54.5082 69.9421 54.6564C69.9274 54.8046 70.0356 54.9366 70.1838 54.9514Z" fill="#39372A"/>
<path d="M86.925 50.575C88.0695 51.6505 90.3627 52.3793 92.005 53.6442C92.6026 54.1041 92.6145 54.6012 92.0406 55.1356C90.7788 56.3072 89.5645 57.4711 88.3976 58.6273C88.0615 58.9612 88.0466 59.3093 88.353 59.6718C88.7857 60.1837 89.3123 60.2827 89.9328 59.9687C91.3358 59.2552 92.7606 58.5843 94.207 57.956C94.8346 57.6852 95.3938 57.3517 95.332 58.4754C95.2924 59.1666 95.2227 61.1331 95.1228 64.3748C95.1206 64.4782 95.1568 64.5758 95.2235 64.6463C96.5457 66.0319 97.4143 64.8078 97.954 63.5728C98.6519 61.9675 98.979 60.867 99.9304 59.8751C99.945 59.8604 99.9623 59.8487 99.9814 59.8405C100 59.8324 100.021 59.8281 100.041 59.8278C100.062 59.8275 100.082 59.8313 100.101 59.8389C100.12 59.8466 100.137 59.8579 100.152 59.8722C102.211 61.8882 104.007 67.5292 105.903 67.1571C106.61 67.0189 106.881 66.3983 106.745 65.6969C106.303 63.3715 105.599 61.1539 105.322 58.7982C105.041 56.3954 106.364 56.147 108.277 55.6211C109.174 55.3739 111.375 55.2127 111.927 54.477C112.3 53.9848 112.243 53.5487 111.758 53.1685C110.187 51.9386 108.105 51.8378 106.232 51.1071C106.167 51.0818 106.115 51.032 106.086 50.9682C106.057 50.9044 106.053 50.8314 106.077 50.7648C106.816 48.6781 108.187 46.0315 108.45 43.9193C108.462 43.8153 108.444 43.7143 108.397 43.6308C107.551 42.1274 106.24 43.261 105.462 44.0428C104.155 45.3572 102.847 46.6685 101.538 47.9766C101.517 47.9986 101.491 48.015 101.461 48.0243C101.432 48.0337 101.401 48.0357 101.371 48.0302C101.34 48.0248 101.311 48.012 101.287 47.993C101.262 47.9739 101.243 47.9492 101.229 47.921C100.597 46.5447 98.8544 41.6841 97.1901 41.5811C96.3959 41.5334 96.049 42.08 96.1495 43.2208C96.3131 45.0631 96.4957 46.9436 96.6974 48.8624C96.7417 49.2942 96.5474 49.4949 96.1147 49.4644C93.4323 49.2696 90.613 48.5726 87.8853 48.7406C86.8455 48.8054 85.7688 49.4922 86.925 50.575Z" stroke="#FFDA9B" stroke-width="2"/>
<path d="M86.925 50.575C85.7688 49.4922 86.8455 48.8054 87.8853 48.7406C90.613 48.5726 93.4323 49.2696 96.1147 49.4644C96.5474 49.4949 96.7417 49.2942 96.6974 48.8624C96.4957 46.9436 96.3131 45.0631 96.1495 43.2208C96.049 42.08 96.3959 41.5334 97.1901 41.5811C98.8544 41.6841 100.597 46.5447 101.229 47.921C101.243 47.9492 101.262 47.9739 101.287 47.993C101.311 48.012 101.34 48.0248 101.371 48.0302C101.401 48.0357 101.432 48.0337 101.461 48.0243C101.491 48.015 101.517 47.9986 101.538 47.9766C102.847 46.6685 104.155 45.3572 105.462 44.0428C106.24 43.261 107.551 42.1274 108.397 43.6308C108.444 43.7143 108.462 43.8153 108.45 43.9193C108.187 46.0315 106.816 48.6781 106.077 50.7648C106.053 50.8314 106.057 50.9044 106.086 50.9682C106.115 51.032 106.167 51.0818 106.232 51.1071C108.105 51.8378 110.187 51.9386 111.758 53.1685C112.243 53.5487 112.3 53.9848 111.927 54.477C111.375 55.2127 109.174 55.3739 108.277 55.6211C106.364 56.147 105.041 56.3954 105.322 58.7982C105.599 61.1539 106.303 63.3715 106.745 65.6969C106.881 66.3983 106.61 67.0189 105.903 67.1571C104.007 67.5292 102.211 61.8882 100.152 59.8722C100.137 59.8579 100.12 59.8466 100.101 59.8389C100.082 59.8313 100.062 59.8275 100.041 59.8278C100.021 59.8281 100 59.8324 99.9814 59.8405C99.9623 59.8487 99.945 59.8604 99.9304 59.8751C98.979 60.867 98.6519 61.9675 97.954 63.5728C97.4143 64.8078 96.5457 66.0319 95.2235 64.6463C95.1568 64.5758 95.1206 64.4782 95.1228 64.3748C95.2227 61.1331 95.2924 59.1666 95.332 58.4754C95.3938 57.3517 94.8346 57.6852 94.207 57.956C92.7606 58.5843 91.3358 59.2552 89.9328 59.9687C89.3123 60.2827 88.7857 60.1837 88.353 59.6718C88.0466 59.3093 88.0615 58.9612 88.3976 58.6273C89.5645 57.4711 90.7788 56.3072 92.0406 55.1356C92.6145 54.6012 92.6026 54.1041 92.005 53.6442C90.3627 52.3793 88.0695 51.6505 86.925 50.575Z" fill="#FFB53A"/>
<path d="M32.3519 19.9599C36.4075 23.5371 40.3366 27.1205 44.1394 30.7099C44.5543 31.0989 44.6638 31.5602 44.4679 32.0937C42.1527 38.4551 39.9981 44.8729 38.004 51.347C37.7343 52.2334 37.6306 53.7933 39.2421 52.4856C41.2897 50.8221 46.5352 45.9351 54.9786 37.8246C55.7652 37.0671 56.6422 36.446 57.6098 35.9612C57.7339 35.8981 57.8899 35.8792 58.0531 35.9074C65.5512 37.2234 73.1082 37.775 80.7239 37.5621C81.6927 37.5341 81.9435 37.2142 81.4762 36.6024C81.1268 36.1484 80.7306 35.7425 80.2878 35.3848C76.3389 32.2034 72.2985 29.1775 68.1665 26.3071C67.9949 26.1863 67.8625 26.0181 67.7858 25.8233C67.7091 25.6284 67.6913 25.4156 67.7348 25.2112C68.8535 19.9517 69.9461 14.688 71.0128 9.42025C71.2883 8.05293 71.4076 6.67943 71.3707 5.29972C71.3517 4.61448 71.0099 4.4594 70.3452 4.83448C69.8779 5.09869 69.4706 5.43099 69.1234 5.83137C64.5244 11.1367 59.7107 16.5077 54.6824 21.9443C54.5865 22.0476 54.466 22.1247 54.332 22.1685C54.198 22.2122 54.0552 22.2212 53.9168 22.1944C47.0082 20.822 40.0606 19.4518 33.074 18.084C31.0216 17.6846 31.1742 18.9158 32.3519 19.9599Z" stroke="#55804A" stroke-width="2"/>
<path d="M32.3519 19.9602C31.1742 18.9161 31.0216 17.6849 33.074 18.0843C40.0606 19.4521 47.0082 20.8223 53.9168 22.1947C54.0552 22.2215 54.198 22.2125 54.332 22.1688C54.466 22.125 54.5865 22.0479 54.6824 21.9446C59.7107 16.508 64.5244 11.137 69.1234 5.83168C69.4706 5.43129 69.8779 5.099 70.3453 4.83478C71.0099 4.4597 71.3518 4.61478 71.3707 5.30003C71.4076 6.67973 71.2883 8.05324 71.0128 9.42056C69.9461 14.6883 68.8535 19.952 67.7348 25.2115C67.6914 25.4159 67.7091 25.6287 67.7858 25.8236C67.8626 26.0184 67.9949 26.1866 68.1665 26.3074C72.2985 29.1778 76.3389 32.2037 80.2878 35.3852C80.7306 35.7428 81.1268 36.1487 81.4762 36.6028C81.9435 37.2145 81.6927 37.5344 80.7239 37.5624C73.1082 37.7753 65.5512 37.2238 58.0531 35.9077C57.8899 35.8795 57.7339 35.8984 57.6098 35.9615C56.6422 36.4463 55.7652 37.0674 54.9786 37.8249C46.5352 45.9354 41.2897 50.8224 39.2421 52.4859C37.6306 53.7936 37.7343 52.2337 38.004 51.3473C39.9981 44.8732 42.1527 38.4554 44.4679 32.094C44.6638 31.5605 44.5543 31.0992 44.1394 30.7102C40.3366 27.1208 36.4075 23.5375 32.3519 19.9602Z" fill="#55804A"/>
<defs>
<filter id="filter0_d_31_3593" x="82.1255" y="24.0003" width="19.3457" height="19.5046" filterUnits="userSpaceOnUse" color-interpolation-filters="sRGB">
<feFlood flood-opacity="0" result="BackgroundImageFix"/>
<feColorMatrix in="SourceAlpha" type="matrix" values="0 0 0 0 0 0 0 0 0 0 0 0 0 0 0 0 0 0 127 0" result="hardAlpha"/>
<feOffset dy="4"/>
<feGaussianBlur stdDeviation="2"/>
<feComposite in2="hardAlpha" operator="out"/>
<feColorMatrix type="matrix" values="0 0 0 0 0 0 0 0 0 0 0 0 0 0 0 0 0 0 0.25 0"/>
<feBlend mode="normal" in2="BackgroundImageFix" result="effect1_dropShadow_31_3593"/>
<feBlend mode="normal" in="SourceGraphic" in2="effect1_dropShadow_31_3593" result="shape"/>
</filter>
</defs>
</svg>
