<svg width="475" height="472" viewBox="0 0 475 472" fill="none" xmlns="http://www.w3.org/2000/svg">
<path d="M237.5 0L252.432 148.02L314.616 12.8684L280.676 157.717L383.376 50.0791L304.243 176.059L436.327 107.6L320.576 201.059L467.733 179.197L327.907 230.009L474.189 257.113L325.441 259.77L454.996 332.903L313.445 287.117L412.234 398.354L293.219 309.088L350.538 446.375L266.956 323.302L276.591 471.761L237.5 328.217L198.409 471.761L208.044 323.302L124.462 446.375L181.781 309.088L62.7656 398.354L161.555 287.117L20.0038 332.903L149.559 259.77L0.811188 257.113L147.093 230.009L7.26744 179.197L154.424 201.059L38.673 107.6L170.757 176.059L91.6245 50.0791L194.324 157.717L160.384 12.8684L222.568 148.02L237.5 0Z" fill="#F9F5F0"/>
</svg>
