<svg width="164" height="301" viewBox="0 0 164 301" fill="none" xmlns="http://www.w3.org/2000/svg">
<path d="M9 125.786C28.2634 124.309 59.3285 126.707 45.2994 126.903C31.2703 127.099 23.3602 127.018 9 125.786Z" fill="url(#paint0_linear_22_148)" stroke="url(#paint1_linear_22_148)"/>
<path d="M1 133.918C23.9171 131.359 61.6257 131.453 44.7974 132.54C27.9691 133.627 18.4506 134.071 1 133.918Z" fill="url(#paint2_linear_22_148)" stroke="url(#paint3_linear_22_148)"/>
<path d="M4 141.94C25.4097 137.758 60.9447 135.055 45.1669 137.357C29.389 139.659 20.4525 140.795 4 141.94Z" fill="url(#paint4_linear_22_148)" stroke="url(#paint5_linear_22_148)"/>
<path d="M8.29761 148.189C29.4087 142.694 64.7094 137.805 49.1035 141.076C33.4977 144.346 24.6481 146.031 8.29761 148.189Z" fill="url(#paint6_linear_22_148)" stroke="url(#paint7_linear_22_148)"/>
<path d="M20.396 151.449C36.6936 146.864 64.0643 142.014 51.9948 144.885C39.9254 147.756 33.0765 149.273 20.396 151.449Z" fill="url(#paint8_linear_22_148)" stroke="url(#paint9_linear_22_148)"/>
<path d="M24.4924 156.073C39.4176 151.282 64.5761 145.952 53.506 149C42.4358 152.048 36.1504 153.671 24.4924 156.073Z" fill="url(#paint10_linear_22_148)" stroke="url(#paint11_linear_22_148)"/>
<path d="M17.8356 163.669C36.5392 156.563 68.2233 148.891 54.3218 153.369C40.4203 157.847 32.5212 160.22 17.8356 163.669Z" fill="url(#paint12_linear_22_148)" stroke="url(#paint13_linear_22_148)"/>
<path d="M21.1709 170.971C39.4294 162.789 70.6134 153.286 56.996 158.566C43.3787 163.845 35.631 166.674 21.1709 170.971Z" fill="url(#paint14_linear_22_148)" stroke="url(#paint15_linear_22_148)"/>
<path d="M35.8242 171.402C47.3335 165.72 67.0519 158.245 58.4569 162.073C49.8618 165.9 44.9691 167.991 35.8242 171.402Z" fill="url(#paint16_linear_22_148)" stroke="url(#paint17_linear_22_148)"/>
<path d="M36.9652 175.665C48.1658 169.397 67.472 160.914 59.086 165.18C50.7 169.446 45.9218 171.786 36.9652 175.665Z" fill="url(#paint18_linear_22_148)" stroke="url(#paint19_linear_22_148)"/>
<path d="M38.5803 181.797C49.128 174.483 67.5316 164.187 59.5934 169.238C51.6553 174.289 47.1236 177.077 38.5803 181.797Z" fill="url(#paint20_linear_22_148)" stroke="url(#paint21_linear_22_148)"/>
<path d="M41.3567 186.126C51.5016 178.262 69.3331 167.005 61.674 172.47C54.0149 177.934 49.6375 180.959 41.3567 186.126Z" fill="url(#paint22_linear_22_148)" stroke="url(#paint23_linear_22_148)"/>
<path d="M47.856 190.93C55.1796 182.682 68.6789 170.793 63.0345 176.54C57.3901 182.287 54.1399 185.471 47.856 190.93Z" fill="url(#paint24_linear_22_148)" stroke="url(#paint25_linear_22_148)"/>
<path d="M52.2277 196.292C58.1862 187.009 69.6825 173.175 64.9957 179.726C60.3089 186.277 57.5907 189.926 52.2277 196.292Z" fill="url(#paint26_linear_22_148)" stroke="url(#paint27_linear_22_148)"/>
<path d="M55.4109 201.413C60.5492 191.653 70.8132 176.881 66.7072 183.811C62.6011 190.741 60.2067 194.61 55.4109 201.413Z" fill="url(#paint28_linear_22_148)" stroke="url(#paint29_linear_22_148)"/>
<path d="M53.225 213.247C59.9989 199.903 72.8484 178.824 67.5608 188.461C62.2732 198.099 59.2146 203.515 53.225 213.247Z" fill="url(#paint30_linear_22_148)" stroke="url(#paint31_linear_22_148)"/>
<path d="M52.9267 226.587C60.0281 209.245 73.924 181.63 68.3024 194.195C62.6809 206.76 59.4133 213.831 52.9267 226.587Z" fill="url(#paint32_linear_22_148)" stroke="url(#paint33_linear_22_148)"/>
<path d="M55.9526 233.347C61.9576 216.623 74.0738 189.957 69.2529 202.081C64.4319 214.205 61.6163 221.028 55.9526 233.347Z" fill="url(#paint34_linear_22_148)" stroke="url(#paint35_linear_22_148)"/>
<path d="M63.0419 235.37C67.1789 221.037 76.2301 198.267 72.7793 208.642C69.3284 219.017 67.2874 224.853 63.0419 235.37Z" fill="url(#paint36_linear_22_148)" stroke="url(#paint37_linear_22_148)"/>
<path d="M100 300.044C97.1857 258.291 94.9246 188.879 96.5551 219.669C98.1855 250.459 99.0137 267.903 100 300.044Z" fill="url(#paint38_linear_22_148)" stroke="url(#paint39_linear_22_148)"/>
<path d="M143.611 233.275C134.192 224.969 120.091 209.905 126.75 216.261C133.409 222.617 137.12 226.268 143.611 233.275Z" fill="url(#paint40_linear_22_148)" stroke="url(#paint41_linear_22_148)"/>
<path d="M139.531 237.418C130.145 228.956 116.489 213.456 123.052 219.96C129.616 226.464 133.257 230.205 139.531 237.418Z" fill="url(#paint42_linear_22_148)" stroke="url(#paint43_linear_22_148)"/>
<path d="M137.955 243.352C128.236 233.593 114.496 215.841 121.218 223.319C127.941 230.797 131.654 235.094 137.955 243.352Z" fill="url(#paint44_linear_22_148)" stroke="url(#paint45_linear_22_148)"/>
<path d="M137.698 256.299C127.69 242.751 112.803 219.252 119.861 229.423C126.919 239.593 130.848 245.394 137.698 256.299Z" fill="url(#paint46_linear_22_148)" stroke="url(#paint47_linear_22_148)"/>
<path d="M123.91 246.19C119.156 240.169 112.643 229.479 115.893 234.045C119.143 238.61 120.929 241.223 123.91 246.19Z" fill="url(#paint48_linear_22_148)" stroke="url(#paint49_linear_22_148)"/>
<path d="M120.242 255.35C115.975 248.103 111.398 235.527 114.082 240.969C116.765 246.41 118.186 249.514 120.242 255.35Z" fill="url(#paint50_linear_22_148)" stroke="url(#paint51_linear_22_148)"/>
<path d="M152.601 231.069C140.422 222.578 121.518 207.023 130.252 213.549C138.986 220.076 143.882 223.83 152.601 231.069Z" fill="url(#paint52_linear_22_148)" stroke="url(#paint53_linear_22_148)"/>
<path d="M152.103 220.57C141.206 215.587 124.177 205.714 132.013 209.681C139.849 213.648 144.245 215.958 152.103 220.57Z" fill="url(#paint54_linear_22_148)" stroke="url(#paint55_linear_22_148)"/>
<path d="M113 288C104.751 251.787 94.9295 191.155 100.296 217.939C105.663 244.723 108.55 259.914 113 288Z" fill="url(#paint56_linear_22_148)" stroke="url(#paint57_linear_22_148)"/>
<path d="M106.21 217.605C103.822 213.35 100.717 205.995 102.319 209.185C103.921 212.374 104.794 214.192 106.21 217.605Z" fill="url(#paint58_linear_22_148)" stroke="url(#paint59_linear_22_148)"/>
<path d="M144.309 210.453C140.519 208.621 134.1 205.889 136.916 207.183C139.733 208.476 141.334 209.196 144.309 210.453Z" fill="url(#paint60_linear_22_148)" stroke="url(#paint61_linear_22_148)"/>
<path d="M109.13 212.424C107.205 210.088 104.39 205.978 105.739 207.742C107.087 209.507 107.836 210.515 109.13 212.424Z" fill="url(#paint62_linear_22_148)" stroke="url(#paint63_linear_22_148)"/>
<path d="M66.4456 251.548C70.4043 230.742 80.8778 197.796 77.2422 212.837C73.6065 227.878 71.3927 236.334 66.4456 251.548Z" fill="url(#paint64_linear_22_148)" stroke="url(#paint65_linear_22_148)"/>
<path d="M78.169 267.399C79.627 240.72 86.4615 197.422 84.5746 216.902C82.6877 236.382 81.4442 247.377 78.169 267.399Z" fill="url(#paint66_linear_22_148)" stroke="url(#paint67_linear_22_148)"/>
<path d="M89.817 282.865C88.668 249.195 91.4978 193.776 91.4727 218.504C91.4477 243.231 91.2461 257.218 89.817 282.865Z" fill="url(#paint68_linear_22_148)" stroke="url(#paint69_linear_22_148)"/>
<path d="M2 119.786C22.6173 118.575 55.9328 121.414 40.9053 121.414C25.8779 121.414 17.4021 121.222 2 119.786Z" fill="url(#paint70_linear_22_148)" stroke="url(#paint71_linear_22_148)"/>
<path d="M11 114C25.3301 113.297 48.5113 115.374 38.0618 115.295C27.6123 115.216 21.7176 115.043 11 114Z" fill="url(#paint72_linear_22_148)" stroke="url(#paint73_linear_22_148)"/>
<path d="M9 109.537C23.3301 108.834 46.5113 110.911 36.0618 110.832C25.6123 110.753 19.7176 110.58 9 109.537Z" fill="url(#paint74_linear_22_148)" stroke="url(#paint75_linear_22_148)"/>
<path d="M10 101.339C24.2611 102.91 46.8229 108.623 36.5171 106.894C26.2114 105.165 20.4181 104.063 10 101.339Z" fill="url(#paint76_linear_22_148)" stroke="url(#paint77_linear_22_148)"/>
<path d="M3 87.5413C21.3725 94.2504 50.5087 107.934 37.2191 102.52C23.9294 97.1074 16.4558 93.9405 3 87.5413Z" fill="url(#paint78_linear_22_148)" stroke="url(#paint79_linear_22_148)"/>
<path d="M10 75.9681C26.2258 86.8898 51.2274 107.165 39.6249 98.7207C28.0224 90.2768 21.5271 85.4091 10 75.9681Z" fill="url(#paint80_linear_22_148)" stroke="url(#paint81_linear_22_148)"/>
<path d="M7.34253 55.7087C25.9475 75.128 54.2546 109.341 41.0172 94.6652C27.7798 79.9895 20.384 71.5988 7.34253 55.7087Z" fill="url(#paint82_linear_22_148)" stroke="url(#paint83_linear_22_148)"/>
<path d="M16 51.3032C32.4277 72.596 56.9244 109.633 45.3277 93.6291C33.731 77.6253 27.2723 68.4936 16 51.3032Z" fill="url(#paint84_linear_22_148)" stroke="url(#paint85_linear_22_148)"/>
<path d="M25 42.6181C37.6565 66.3471 55.6504 106.943 46.8777 89.2331C38.105 71.5231 33.2554 61.4442 25 42.6181Z" fill="url(#paint86_linear_22_148)" stroke="url(#paint87_linear_22_148)"/>
<path d="M34.5298 46.388C43.3887 65.4771 54.9784 98.0804 49.023 83.8434C43.0675 69.6064 39.8176 61.5062 34.5298 46.388Z" fill="url(#paint88_linear_22_148)" stroke="url(#paint89_linear_22_148)"/>
<path d="M39.5665 39.0202C47.0944 58.6723 56.4191 91.9941 51.4548 77.382C46.4905 62.7698 43.8042 54.4656 39.5665 39.0202Z" fill="url(#paint90_linear_22_148)" stroke="url(#paint91_linear_22_148)"/>
<path d="M49 39.3092C53.6155 57.1351 58.0398 86.9838 55.234 73.7988C52.4282 60.6139 50.9672 53.1356 49 39.3092Z" fill="url(#paint92_linear_22_148)" stroke="url(#paint93_linear_22_148)"/>
<path d="M55 40.1689C59.0632 58.1287 62.5641 88.0998 60.1666 74.8345C57.7691 61.5693 56.5395 54.0494 55 40.1689Z" fill="url(#paint94_linear_22_148)" stroke="url(#paint95_linear_22_148)"/>
<path d="M59.1423 16.1588C63.2036 42.0514 66.7004 85.1702 64.3044 66.0623C61.9085 46.9545 60.6798 36.1261 59.1423 16.1588Z" fill="url(#paint96_linear_22_148)" stroke="url(#paint97_linear_22_148)"/>
<path d="M65.7847 29.769C68.8296 46.9369 70.6365 75.4048 68.9901 62.7579C67.3437 50.1109 66.5398 42.9488 65.7847 29.769Z" fill="url(#paint98_linear_22_148)" stroke="url(#paint99_linear_22_148)"/>
<path d="M72.2514 24C74.092 43.7033 73.9068 76.1939 73.1467 61.7126C72.3866 47.2314 72.0843 39.0376 72.2514 24Z" fill="url(#paint100_linear_22_148)" stroke="url(#paint101_linear_22_148)"/>
<path d="M78.2856 0.990906C79.8286 29.7807 78.2589 77.2276 77.882 56.0731C77.5051 34.9186 77.4552 22.95 78.2856 0.990906Z" fill="url(#paint102_linear_22_148)" stroke="url(#paint103_linear_22_148)"/>
<path d="M103.45 101.337L102.959 103.562C104.139 107.743 104.194 109.3 103.45 110.98C103.558 122.764 103.87 130.098 102.714 133.481C100.788 136.143 99.7635 137.647 98.3034 140.405C94.966 145.878 93.1023 148.083 90.4616 150.543C89.1667 151.195 89.2713 152.535 89.7265 155.241C95.8819 163.291 94.7646 165.81 91.6869 169.829C90.85 171.384 91.1086 173.507 91.6869 177.495C93.7193 180.689 94.8513 181.775 96.8331 180.214C99.0455 173.912 100.925 170.355 107.37 163.895C108.608 156.038 110.022 152.987 113.252 151.037C116.912 148.254 118.852 148.255 122.074 151.532C126.069 152.307 126.088 153.434 122.809 156.477C123.929 155.505 124.621 155.165 125.995 154.993C128.505 156.146 128.243 159.847 127.955 166.12C130.17 172.023 129.546 174.116 125.995 176.258C126.597 178.402 126.254 179.105 124.769 179.72C127.784 183.432 127.643 184.475 124.034 184.418C125.37 185.14 125.892 185.604 125.995 186.643C131.47 187.283 132.413 189.524 132.366 195.05C138.26 194.741 141.416 194.76 147.805 193.814C155.735 190.565 160.136 188.736 160.547 184.418C161.634 183.955 162.152 184.225 162.998 185.16C163.078 190.551 160.795 192.871 157.607 197.276C157.121 201.847 156.649 203.887 154.911 205.188C151.48 205.188 151.105 201.397 147.805 201.479C139.61 203.818 135.219 204.709 127.955 205.188C123.032 212.417 120.313 216.362 116.192 221.508C115.719 223.801 114.805 226.003 112.762 231.151L112.761 231.183C112.659 235.579 112.609 237.706 111.046 237.827C110.093 238.48 109.377 237.614 107.125 229.42C105.774 227.162 104.817 225.885 104.43 222.497C105.176 220.826 106.278 220.005 111.046 219.282C112.556 208.974 117 201.479 114.477 202.963C111.954 204.446 105.041 205.015 98.3034 205.93C96.343 207.084 91.4909 209.392 87.766 209.392C75.6099 205.023 72.7499 199.909 73.7979 186.643V184.912C67.6704 173.179 64.5232 165.407 64.7309 156.477C62.9316 152.918 61.2079 149.466 59.0946 140.158C57.3237 139.271 56.5829 136.477 54.1935 130.514C52.7468 122.383 51.9396 119.121 50.5177 119.14C48.5566 118.836 47.2442 117.479 44.8814 114.937C44.5071 113.461 44.1013 112.469 44.8814 111.969C44.0567 110.092 43.8085 109.249 44.1462 108.508C44.3458 107.349 45.6714 109.166 47.577 111.475C44.4459 106.684 43.1726 104.505 44.8814 104.799C45.9983 105.137 47.1643 107.115 49.0473 109.991C46.9993 106.163 45.0582 103.202 46.8418 103.315C48.2449 104.046 49.8732 107.086 52.9682 111.475V111.228C51.6449 108.079 51.1848 106.698 52.2331 106.777C54.5383 108.362 54.868 111.497 55.743 116.42C59.5553 123.377 60.7078 126.73 63.2605 132.987C69.1419 140.652 70.8572 147.575 73.3078 146.586C75.7583 145.597 77.5651 141.264 73.7979 139.91C66.4571 139.237 62.5449 132.081 55.743 113.453C55.2995 111.751 55.0381 110.13 54.9529 108.508C54.7552 104.743 55.5064 100.968 57.1341 96.1444C57.6538 93.7367 57.7887 92.3842 57.6243 89.9628C57.5379 86.9509 57.2154 85.275 56.399 82.2976C58.7877 84.5529 59.5789 86.8184 59.5847 93.4245C60.3213 88.9337 61.3596 86.4923 64.4858 82.2976C68.4159 77.5682 69.4598 74.7487 69.3869 69.4398C70.7852 72.1182 71.0811 73.749 70.8572 76.8577C72.4178 72.8885 72.531 70.4956 71.5924 65.9781C74.832 70.4258 75.2022 73.5467 73.0627 80.3195C77.2435 74.0749 78.1407 70.4971 77.2287 64C80.4038 70.3753 80.1012 73.948 76.7386 80.3195C82.9619 75.634 85.7539 74.8451 89.4814 76.8577C69.8827 85.8774 89.9628 120.624 89.4814 119.882C89 119.14 77.7472 123.897 75.7583 132.987C79.3463 127.531 82.0081 125.227 87.766 122.602C89.2015 122.29 90.0064 122.283 91.4419 122.602C92.1622 123.169 92.4801 123.494 92.9122 124.085C93.5501 125.572 93.7202 126.438 93.6474 128.042C93.3622 130.479 93.1649 131.613 92.4221 133.481C92.3995 134.085 92.4949 134.314 92.9122 134.47C93.7112 133.845 94.0349 133.332 94.3825 132.245C94.3214 130.702 94.3828 129.835 94.6276 128.289C96.297 123.488 97.0993 120.396 98.3034 114.195C98.4923 112.544 98.486 111.622 98.0583 109.991C97.1878 109.13 96.704 108.464 95.8528 106.777C95.6705 105.178 95.6819 104.195 95.8528 102.326C95.8462 100.633 95.8979 99.6616 96.0979 97.8752L96.343 96.8862L96.8331 96.3916H97.5682L97.8133 96.8862V97.8752V100.595C97.9686 99.6308 98.0878 99.0664 98.5485 97.8752L98.7935 97.1334C98.9822 96.9375 99.088 96.8277 99.2836 96.6389L99.5287 96.3916C99.8179 96.1509 99.9786 96.1158 100.264 96.1444L100.509 96.3916V97.3807C100.466 98.3466 100.407 98.8882 100.264 99.8533L100.509 99.1116L100.999 98.1225L101.734 96.8862H102.469L102.959 97.3807L102.714 99.1116L101.979 100.842L102.714 99.6061H102.959H103.205L103.45 99.8533V100.595V101.337Z" fill="#F9F5F0"/>
<path d="M101.244 102.326L101.979 100.842M101.979 100.842L102.714 99.6061H102.959H103.205L103.45 99.8533V100.595V101.337L102.959 103.562C104.139 107.743 104.194 109.3 103.45 110.98C103.558 122.764 103.87 130.098 102.714 133.481C100.788 136.143 99.7635 137.647 98.3034 140.405C94.966 145.878 93.1023 148.083 90.4616 150.543C89.1667 151.195 89.2713 152.535 89.7265 155.241C95.8819 163.291 94.7646 165.81 91.6869 169.829C90.85 171.384 91.1086 173.507 91.6869 177.495C93.7193 180.689 94.8513 181.775 96.8331 180.214C99.0455 173.912 100.925 170.355 107.37 163.895C108.608 156.038 110.022 152.987 113.252 151.037C116.912 148.254 118.852 148.255 122.074 151.532C126.069 152.307 126.088 153.434 122.809 156.477C123.929 155.505 124.621 155.165 125.995 154.993C128.505 156.146 128.243 159.847 127.955 166.12C130.17 172.023 129.546 174.116 125.995 176.258C126.597 178.402 126.254 179.105 124.769 179.72C127.784 183.432 127.643 184.475 124.034 184.418C125.37 185.14 125.892 185.604 125.995 186.643C131.47 187.283 132.413 189.524 132.366 195.05C138.26 194.741 141.416 194.76 147.805 193.814C155.735 190.565 160.136 188.736 160.547 184.418C161.634 183.955 162.152 184.225 162.998 185.16C163.078 190.551 160.795 192.871 157.607 197.276C157.121 201.847 156.649 203.887 154.911 205.188C151.48 205.188 151.105 201.397 147.805 201.479C139.61 203.818 135.219 204.709 127.955 205.188C123.032 212.417 120.313 216.362 116.192 221.508C115.719 223.801 114.805 226.003 112.762 231.151C112.659 235.568 112.613 237.706 111.046 237.827C110.093 238.48 109.377 237.614 107.125 229.42C105.774 227.162 104.817 225.885 104.43 222.497C105.176 220.826 106.278 220.005 111.046 219.282C112.556 208.974 117 201.479 114.477 202.963C111.954 204.446 105.041 205.015 98.3034 205.93C96.343 207.084 91.4909 209.392 87.766 209.392C75.6099 205.023 72.7499 199.909 73.7979 186.643V184.912C67.6704 173.179 64.5232 165.407 64.7309 156.477C62.9316 152.918 61.2079 149.466 59.0946 140.158C57.3237 139.271 56.5829 136.477 54.1935 130.514C52.7468 122.383 51.9396 119.121 50.5177 119.14C48.5566 118.836 47.2442 117.479 44.8814 114.937C44.5071 113.461 44.1013 112.469 44.8814 111.969M101.979 100.842L102.714 99.1116L102.959 97.3807L102.469 96.8862H101.734L100.999 98.1225L100.509 99.1116L100.264 99.8533M100.264 99.8533L99.5287 101.831V102.079C99.8158 101.21 99.7737 100.842 100.264 99.8533ZM100.264 99.8533C100.407 98.8882 100.466 98.3466 100.509 97.3807V96.3916L100.264 96.1444C99.9786 96.1158 99.8179 96.1509 99.5287 96.3916L99.2836 96.6389C99.088 96.8277 98.9822 96.9375 98.7935 97.1334L98.5485 97.8752C98.0878 99.0664 97.9686 99.6308 97.8133 100.595V97.8752V96.8862L97.5682 96.3916H96.8331L96.343 96.8862L96.0979 97.8752C95.8979 99.6616 95.8462 100.633 95.8528 102.326C95.6819 104.195 95.6705 105.178 95.8528 106.777C96.704 108.464 97.1878 109.13 98.0583 109.991C98.486 111.622 98.4923 112.544 98.3034 114.195C97.0993 120.396 96.297 123.488 94.6276 128.289C94.3828 129.835 94.3214 130.702 94.3825 132.245C94.0349 133.332 93.7112 133.845 92.9122 134.47C92.4949 134.314 92.3995 134.085 92.4221 133.481C93.1649 131.613 93.3622 130.479 93.6474 128.042C93.7202 126.438 93.5501 125.572 92.9122 124.085C92.4801 123.494 92.1622 123.169 91.4419 122.602C90.0064 122.283 89.2015 122.29 87.766 122.602C82.0081 125.227 79.3463 127.531 75.7583 132.987C77.7472 123.897 89 119.14 89.4814 119.882C89.9628 120.624 69.8827 85.8774 89.4814 76.8577C85.7539 74.8451 82.9619 75.634 76.7386 80.3195C80.1012 73.948 80.4038 70.3753 77.2287 64C78.1407 70.4971 77.2435 74.0748 73.0627 80.3195C75.2022 73.5467 74.832 70.4258 71.5924 65.9781C72.531 70.4956 72.4178 72.8885 70.8572 76.8577C71.0811 73.749 70.7852 72.1182 69.3869 69.4398C69.4598 74.7487 68.4159 77.5682 64.4858 82.2976C61.3596 86.4923 60.3213 88.9337 59.5847 93.4245C59.5789 86.8184 58.7877 84.5529 56.399 82.2976C57.2154 85.275 57.5379 86.9509 57.6243 89.9628C57.7887 92.3842 57.6538 93.7367 57.1341 96.1444C55.5064 100.968 54.7552 104.743 54.9529 108.508C55.0381 110.13 55.2995 111.751 55.743 113.453C62.5449 132.081 66.4571 139.237 73.7979 139.91C77.5651 141.264 75.7583 145.597 73.3078 146.586C70.8572 147.575 69.1419 140.652 63.2605 132.987C60.7078 126.73 59.5553 123.377 55.743 116.42C54.868 111.497 54.5383 108.362 52.2331 106.777C51.1848 106.698 51.6449 108.079 52.9682 111.228V111.475C49.8732 107.086 48.2449 104.046 46.8418 103.315C45.0582 103.202 46.9993 106.163 49.0473 109.991C47.1643 107.115 45.9983 105.137 44.8814 104.799C43.1726 104.505 44.4459 106.684 47.577 111.475C45.6714 109.166 44.3458 107.349 44.1462 108.508C43.8085 109.249 44.0567 110.092 44.8814 111.969M95.7303 180.214C95.7303 180.214 95 181.5 95.6078 180.214M44.8814 111.969L46.1067 113.947" stroke="#55804A"/>
<defs>
<linearGradient id="paint0_linear_22_148" x1="29.5866" y1="122.777" x2="28.2557" y2="129.563" gradientUnits="userSpaceOnUse">
<stop offset="0.49" stop-color="#F9F5F0"/>
<stop offset="0.725" stop-color="#AFC0A5"/>
<stop offset="1" stop-color="#55804A"/>
</linearGradient>
<linearGradient id="paint1_linear_22_148" x1="29.5866" y1="122.777" x2="28.2557" y2="129.563" gradientUnits="userSpaceOnUse">
<stop offset="0.485" stop-color="#F9F5F0"/>
<stop offset="0.745" stop-color="#A6BA9C"/>
<stop offset="1" stop-color="#55804A"/>
</linearGradient>
<linearGradient id="paint2_linear_22_148" x1="25.2664" y1="129.92" x2="24.7336" y2="135.998" gradientUnits="userSpaceOnUse">
<stop offset="0.49" stop-color="#F9F5F0"/>
<stop offset="0.725" stop-color="#AFC0A5"/>
<stop offset="1" stop-color="#55804A"/>
</linearGradient>
<linearGradient id="paint3_linear_22_148" x1="25.2664" y1="129.92" x2="24.7336" y2="135.998" gradientUnits="userSpaceOnUse">
<stop offset="0.485" stop-color="#F9F5F0"/>
<stop offset="0.745" stop-color="#A6BA9C"/>
<stop offset="1" stop-color="#55804A"/>
</linearGradient>
<linearGradient id="paint4_linear_22_148" x1="26.5784" y1="136.261" x2="26.5096" y2="142.201" gradientUnits="userSpaceOnUse">
<stop offset="0.49" stop-color="#F9F5F0"/>
<stop offset="0.725" stop-color="#AFC0A5"/>
<stop offset="1" stop-color="#55804A"/>
</linearGradient>
<linearGradient id="paint5_linear_22_148" x1="26.5784" y1="136.261" x2="26.5096" y2="142.201" gradientUnits="userSpaceOnUse">
<stop offset="0.485" stop-color="#F9F5F0"/>
<stop offset="0.745" stop-color="#A6BA9C"/>
<stop offset="1" stop-color="#55804A"/>
</linearGradient>
<linearGradient id="paint6_linear_22_148" x1="30.4828" y1="141.128" x2="30.7804" y2="147.061" gradientUnits="userSpaceOnUse">
<stop offset="0.49" stop-color="#F9F5F0"/>
<stop offset="0.725" stop-color="#AFC0A5"/>
<stop offset="1" stop-color="#55804A"/>
</linearGradient>
<linearGradient id="paint7_linear_22_148" x1="30.4828" y1="141.128" x2="30.7804" y2="147.061" gradientUnits="userSpaceOnUse">
<stop offset="0.485" stop-color="#F9F5F0"/>
<stop offset="0.745" stop-color="#A6BA9C"/>
<stop offset="1" stop-color="#55804A"/>
</linearGradient>
<linearGradient id="paint8_linear_22_148" x1="37.4872" y1="145.786" x2="37.8832" y2="149.663" gradientUnits="userSpaceOnUse">
<stop offset="0.49" stop-color="#F9F5F0"/>
<stop offset="0.725" stop-color="#AFC0A5"/>
<stop offset="1" stop-color="#55804A"/>
</linearGradient>
<linearGradient id="paint9_linear_22_148" x1="37.4872" y1="145.786" x2="37.8832" y2="149.663" gradientUnits="userSpaceOnUse">
<stop offset="0.485" stop-color="#F9F5F0"/>
<stop offset="0.745" stop-color="#A6BA9C"/>
<stop offset="1" stop-color="#55804A"/>
</linearGradient>
<linearGradient id="paint10_linear_22_148" x1="40.1166" y1="151.156" x2="40.609" y2="154.837" gradientUnits="userSpaceOnUse">
<stop offset="0.49" stop-color="#F9F5F0"/>
<stop offset="0.725" stop-color="#AFC0A5"/>
<stop offset="1" stop-color="#55804A"/>
</linearGradient>
<linearGradient id="paint11_linear_22_148" x1="40.1166" y1="151.156" x2="40.609" y2="154.837" gradientUnits="userSpaceOnUse">
<stop offset="0.485" stop-color="#F9F5F0"/>
<stop offset="0.745" stop-color="#A6BA9C"/>
<stop offset="1" stop-color="#55804A"/>
</linearGradient>
<linearGradient id="paint12_linear_22_148" x1="37.3684" y1="154.941" x2="38.204" y2="160.728" gradientUnits="userSpaceOnUse">
<stop offset="0.49" stop-color="#F9F5F0"/>
<stop offset="0.725" stop-color="#AFC0A5"/>
<stop offset="1" stop-color="#55804A"/>
</linearGradient>
<linearGradient id="paint13_linear_22_148" x1="37.3684" y1="154.941" x2="38.204" y2="160.728" gradientUnits="userSpaceOnUse">
<stop offset="0.485" stop-color="#F9F5F0"/>
<stop offset="0.745" stop-color="#A6BA9C"/>
<stop offset="1" stop-color="#55804A"/>
</linearGradient>
<linearGradient id="paint14_linear_22_148" x1="40.1628" y1="161.121" x2="41.3337" y2="166.85" gradientUnits="userSpaceOnUse">
<stop offset="0.49" stop-color="#F9F5F0"/>
<stop offset="0.725" stop-color="#AFC0A5"/>
<stop offset="1" stop-color="#55804A"/>
</linearGradient>
<linearGradient id="paint15_linear_22_148" x1="40.1628" y1="161.121" x2="41.3337" y2="166.85" gradientUnits="userSpaceOnUse">
<stop offset="0.485" stop-color="#F9F5F0"/>
<stop offset="0.745" stop-color="#A6BA9C"/>
<stop offset="1" stop-color="#55804A"/>
</linearGradient>
<linearGradient id="paint16_linear_22_148" x1="47.7773" y1="164.825" x2="48.6015" y2="167.578" gradientUnits="userSpaceOnUse">
<stop offset="0.49" stop-color="#F9F5F0"/>
<stop offset="0.725" stop-color="#AFC0A5"/>
<stop offset="1" stop-color="#55804A"/>
</linearGradient>
<linearGradient id="paint17_linear_22_148" x1="47.7773" y1="164.825" x2="48.6015" y2="167.578" gradientUnits="userSpaceOnUse">
<stop offset="0.485" stop-color="#F9F5F0"/>
<stop offset="0.745" stop-color="#A6BA9C"/>
<stop offset="1" stop-color="#55804A"/>
</linearGradient>
<linearGradient id="paint18_linear_22_148" x1="48.5628" y1="168.479" x2="49.528" y2="171.186" gradientUnits="userSpaceOnUse">
<stop offset="0.49" stop-color="#F9F5F0"/>
<stop offset="0.725" stop-color="#AFC0A5"/>
<stop offset="1" stop-color="#55804A"/>
</linearGradient>
<linearGradient id="paint19_linear_22_148" x1="48.5628" y1="168.479" x2="49.528" y2="171.186" gradientUnits="userSpaceOnUse">
<stop offset="0.485" stop-color="#F9F5F0"/>
<stop offset="0.745" stop-color="#A6BA9C"/>
<stop offset="1" stop-color="#55804A"/>
</linearGradient>
<linearGradient id="paint20_linear_22_148" x1="49.4352" y1="173.532" x2="50.6556" y2="176.134" gradientUnits="userSpaceOnUse">
<stop offset="0.49" stop-color="#F9F5F0"/>
<stop offset="0.725" stop-color="#AFC0A5"/>
<stop offset="1" stop-color="#55804A"/>
</linearGradient>
<linearGradient id="paint21_linear_22_148" x1="49.4352" y1="173.532" x2="50.6556" y2="176.134" gradientUnits="userSpaceOnUse">
<stop offset="0.485" stop-color="#F9F5F0"/>
<stop offset="0.745" stop-color="#A6BA9C"/>
<stop offset="1" stop-color="#55804A"/>
</linearGradient>
<linearGradient id="paint22_linear_22_148" x1="51.7578" y1="177.296" x2="53.1146" y2="179.83" gradientUnits="userSpaceOnUse">
<stop offset="0.49" stop-color="#F9F5F0"/>
<stop offset="0.725" stop-color="#AFC0A5"/>
<stop offset="1" stop-color="#55804A"/>
</linearGradient>
<linearGradient id="paint23_linear_22_148" x1="51.7578" y1="177.296" x2="53.1146" y2="179.83" gradientUnits="userSpaceOnUse">
<stop offset="0.485" stop-color="#F9F5F0"/>
<stop offset="0.745" stop-color="#A6BA9C"/>
<stop offset="1" stop-color="#55804A"/>
</linearGradient>
<linearGradient id="paint24_linear_22_148" x1="55.1769" y1="181.692" x2="57.0329" y2="184.237" gradientUnits="userSpaceOnUse">
<stop offset="0.49" stop-color="#F9F5F0"/>
<stop offset="0.725" stop-color="#AFC0A5"/>
<stop offset="1" stop-color="#55804A"/>
</linearGradient>
<linearGradient id="paint25_linear_22_148" x1="55.1769" y1="181.692" x2="57.0329" y2="184.237" gradientUnits="userSpaceOnUse">
<stop offset="0.485" stop-color="#F9F5F0"/>
<stop offset="0.745" stop-color="#A6BA9C"/>
<stop offset="1" stop-color="#55804A"/>
</linearGradient>
<linearGradient id="paint26_linear_22_148" x1="58.0303" y1="186.032" x2="60.2579" y2="188.259" gradientUnits="userSpaceOnUse">
<stop offset="0.49" stop-color="#F9F5F0"/>
<stop offset="0.725" stop-color="#AFC0A5"/>
<stop offset="1" stop-color="#55804A"/>
</linearGradient>
<linearGradient id="paint27_linear_22_148" x1="58.0303" y1="186.032" x2="60.2579" y2="188.259" gradientUnits="userSpaceOnUse">
<stop offset="0.485" stop-color="#F9F5F0"/>
<stop offset="0.745" stop-color="#A6BA9C"/>
<stop offset="1" stop-color="#55804A"/>
</linearGradient>
<linearGradient id="paint28_linear_22_148" x1="60.3099" y1="190.693" x2="62.7207" y2="192.72" gradientUnits="userSpaceOnUse">
<stop offset="0.49" stop-color="#F9F5F0"/>
<stop offset="0.725" stop-color="#AFC0A5"/>
<stop offset="1" stop-color="#55804A"/>
</linearGradient>
<linearGradient id="paint29_linear_22_148" x1="60.3099" y1="190.693" x2="62.7207" y2="192.72" gradientUnits="userSpaceOnUse">
<stop offset="0.485" stop-color="#F9F5F0"/>
<stop offset="0.745" stop-color="#A6BA9C"/>
<stop offset="1" stop-color="#55804A"/>
</linearGradient>
<linearGradient id="paint30_linear_22_148" x1="59.8875" y1="198.854" x2="62.1125" y2="200.393" gradientUnits="userSpaceOnUse">
<stop offset="0.49" stop-color="#F9F5F0"/>
<stop offset="0.725" stop-color="#AFC0A5"/>
<stop offset="1" stop-color="#55804A"/>
</linearGradient>
<linearGradient id="paint31_linear_22_148" x1="59.8875" y1="198.854" x2="62.1125" y2="200.393" gradientUnits="userSpaceOnUse">
<stop offset="0.485" stop-color="#F9F5F0"/>
<stop offset="0.745" stop-color="#A6BA9C"/>
<stop offset="1" stop-color="#55804A"/>
</linearGradient>
<linearGradient id="paint32_linear_22_148" x1="59.7842" y1="207.949" x2="62.7109" y2="209.638" gradientUnits="userSpaceOnUse">
<stop offset="0.49" stop-color="#F9F5F0"/>
<stop offset="0.725" stop-color="#AFC0A5"/>
<stop offset="1" stop-color="#55804A"/>
</linearGradient>
<linearGradient id="paint33_linear_22_148" x1="59.7842" y1="207.949" x2="62.7109" y2="209.638" gradientUnits="userSpaceOnUse">
<stop offset="0.485" stop-color="#F9F5F0"/>
<stop offset="0.745" stop-color="#A6BA9C"/>
<stop offset="1" stop-color="#55804A"/>
</linearGradient>
<linearGradient id="paint34_linear_22_148" x1="61.6418" y1="215.383" x2="64.6282" y2="216.964" gradientUnits="userSpaceOnUse">
<stop offset="0.49" stop-color="#F9F5F0"/>
<stop offset="0.725" stop-color="#AFC0A5"/>
<stop offset="1" stop-color="#55804A"/>
</linearGradient>
<linearGradient id="paint35_linear_22_148" x1="61.6418" y1="215.383" x2="64.6282" y2="216.964" gradientUnits="userSpaceOnUse">
<stop offset="0.485" stop-color="#F9F5F0"/>
<stop offset="0.745" stop-color="#A6BA9C"/>
<stop offset="1" stop-color="#55804A"/>
</linearGradient>
<linearGradient id="paint36_linear_22_148" x1="66.7505" y1="219.949" x2="69.7924" y2="221.421" gradientUnits="userSpaceOnUse">
<stop offset="0.49" stop-color="#F9F5F0"/>
<stop offset="0.725" stop-color="#AFC0A5"/>
<stop offset="1" stop-color="#55804A"/>
</linearGradient>
<linearGradient id="paint37_linear_22_148" x1="66.7505" y1="219.949" x2="69.7924" y2="221.421" gradientUnits="userSpaceOnUse">
<stop offset="0.485" stop-color="#F9F5F0"/>
<stop offset="0.745" stop-color="#A6BA9C"/>
<stop offset="1" stop-color="#55804A"/>
</linearGradient>
<linearGradient id="paint38_linear_22_148" x1="96.3104" y1="256.046" x2="99.6897" y2="256.022" gradientUnits="userSpaceOnUse">
<stop offset="0.49" stop-color="#F9F5F0"/>
<stop offset="0.725" stop-color="#AFC0A5"/>
<stop offset="1" stop-color="#55804A"/>
</linearGradient>
<linearGradient id="paint39_linear_22_148" x1="96.3104" y1="256.046" x2="99.6897" y2="256.022" gradientUnits="userSpaceOnUse">
<stop offset="0.485" stop-color="#F9F5F0"/>
<stop offset="0.745" stop-color="#A6BA9C"/>
<stop offset="1" stop-color="#55804A"/>
</linearGradient>
<linearGradient id="paint40_linear_22_148" x1="133.219" y1="224.899" x2="135.391" y2="223.137" gradientUnits="userSpaceOnUse">
<stop offset="0.49" stop-color="#F9F5F0"/>
<stop offset="0.725" stop-color="#AFC0A5"/>
<stop offset="1" stop-color="#55804A"/>
</linearGradient>
<linearGradient id="paint41_linear_22_148" x1="133.219" y1="224.899" x2="135.391" y2="223.137" gradientUnits="userSpaceOnUse">
<stop offset="0.485" stop-color="#F9F5F0"/>
<stop offset="0.745" stop-color="#A6BA9C"/>
<stop offset="1" stop-color="#55804A"/>
</linearGradient>
<linearGradient id="paint42_linear_22_148" x1="129.058" y1="228.93" x2="131.775" y2="226.922" gradientUnits="userSpaceOnUse">
<stop offset="0.49" stop-color="#F9F5F0"/>
<stop offset="0.725" stop-color="#AFC0A5"/>
<stop offset="1" stop-color="#55804A"/>
</linearGradient>
<linearGradient id="paint43_linear_22_148" x1="129.058" y1="228.93" x2="131.775" y2="226.922" gradientUnits="userSpaceOnUse">
<stop offset="0.485" stop-color="#F9F5F0"/>
<stop offset="0.745" stop-color="#A6BA9C"/>
<stop offset="1" stop-color="#55804A"/>
</linearGradient>
<linearGradient id="paint44_linear_22_148" x1="126.989" y1="233.525" x2="130.365" y2="231.384" gradientUnits="userSpaceOnUse">
<stop offset="0.49" stop-color="#F9F5F0"/>
<stop offset="0.725" stop-color="#AFC0A5"/>
<stop offset="1" stop-color="#55804A"/>
</linearGradient>
<linearGradient id="paint45_linear_22_148" x1="126.989" y1="233.525" x2="130.365" y2="231.384" gradientUnits="userSpaceOnUse">
<stop offset="0.485" stop-color="#F9F5F0"/>
<stop offset="0.745" stop-color="#A6BA9C"/>
<stop offset="1" stop-color="#55804A"/>
</linearGradient>
<linearGradient id="paint46_linear_22_148" x1="126.628" y1="242.315" x2="129.07" y2="240.942" gradientUnits="userSpaceOnUse">
<stop offset="0.49" stop-color="#F9F5F0"/>
<stop offset="0.725" stop-color="#AFC0A5"/>
<stop offset="1" stop-color="#55804A"/>
</linearGradient>
<linearGradient id="paint47_linear_22_148" x1="126.628" y1="242.315" x2="129.07" y2="240.942" gradientUnits="userSpaceOnUse">
<stop offset="0.485" stop-color="#F9F5F0"/>
<stop offset="0.745" stop-color="#A6BA9C"/>
<stop offset="1" stop-color="#55804A"/>
</linearGradient>
<linearGradient id="paint48_linear_22_148" x1="118.484" y1="240.048" x2="120.425" y2="239.095" gradientUnits="userSpaceOnUse">
<stop offset="0.49" stop-color="#F9F5F0"/>
<stop offset="0.725" stop-color="#AFC0A5"/>
<stop offset="1" stop-color="#55804A"/>
</linearGradient>
<linearGradient id="paint49_linear_22_148" x1="118.484" y1="240.048" x2="120.425" y2="239.095" gradientUnits="userSpaceOnUse">
<stop offset="0.485" stop-color="#F9F5F0"/>
<stop offset="0.745" stop-color="#A6BA9C"/>
<stop offset="1" stop-color="#55804A"/>
</linearGradient>
<linearGradient id="paint50_linear_22_148" x1="114.993" y1="247.871" x2="118.509" y2="247.129" gradientUnits="userSpaceOnUse">
<stop offset="0.49" stop-color="#F9F5F0"/>
<stop offset="0.725" stop-color="#AFC0A5"/>
<stop offset="1" stop-color="#55804A"/>
</linearGradient>
<linearGradient id="paint51_linear_22_148" x1="114.993" y1="247.871" x2="118.509" y2="247.129" gradientUnits="userSpaceOnUse">
<stop offset="0.485" stop-color="#F9F5F0"/>
<stop offset="0.745" stop-color="#A6BA9C"/>
<stop offset="1" stop-color="#55804A"/>
</linearGradient>
<linearGradient id="paint52_linear_22_148" x1="139.365" y1="222.553" x2="141.236" y2="220.535" gradientUnits="userSpaceOnUse">
<stop offset="0.49" stop-color="#F9F5F0"/>
<stop offset="0.725" stop-color="#AFC0A5"/>
<stop offset="1" stop-color="#55804A"/>
</linearGradient>
<linearGradient id="paint53_linear_22_148" x1="139.365" y1="222.553" x2="141.236" y2="220.535" gradientUnits="userSpaceOnUse">
<stop offset="0.485" stop-color="#F9F5F0"/>
<stop offset="0.745" stop-color="#A6BA9C"/>
<stop offset="1" stop-color="#55804A"/>
</linearGradient>
<linearGradient id="paint54_linear_22_148" x1="140.295" y1="215.795" x2="141.808" y2="213.569" gradientUnits="userSpaceOnUse">
<stop offset="0.49" stop-color="#F9F5F0"/>
<stop offset="0.725" stop-color="#AFC0A5"/>
<stop offset="1" stop-color="#55804A"/>
</linearGradient>
<linearGradient id="paint55_linear_22_148" x1="140.295" y1="215.795" x2="141.808" y2="213.569" gradientUnits="userSpaceOnUse">
<stop offset="0.485" stop-color="#F9F5F0"/>
<stop offset="0.745" stop-color="#A6BA9C"/>
<stop offset="1" stop-color="#55804A"/>
</linearGradient>
<linearGradient id="paint56_linear_22_148" x1="103.142" y1="249.969" x2="108.58" y2="249.347" gradientUnits="userSpaceOnUse">
<stop offset="0.49" stop-color="#F9F5F0"/>
<stop offset="0.725" stop-color="#AFC0A5"/>
<stop offset="1" stop-color="#55804A"/>
</linearGradient>
<linearGradient id="paint57_linear_22_148" x1="103.142" y1="249.969" x2="108.58" y2="249.347" gradientUnits="userSpaceOnUse">
<stop offset="0.485" stop-color="#F9F5F0"/>
<stop offset="0.745" stop-color="#A6BA9C"/>
<stop offset="1" stop-color="#55804A"/>
</linearGradient>
<linearGradient id="paint58_linear_22_148" x1="103.434" y1="213.205" x2="104.644" y2="212.81" gradientUnits="userSpaceOnUse">
<stop offset="0.49" stop-color="#F9F5F0"/>
<stop offset="0.725" stop-color="#AFC0A5"/>
<stop offset="1" stop-color="#55804A"/>
</linearGradient>
<linearGradient id="paint59_linear_22_148" x1="103.434" y1="213.205" x2="104.644" y2="212.81" gradientUnits="userSpaceOnUse">
<stop offset="0.485" stop-color="#F9F5F0"/>
<stop offset="0.745" stop-color="#A6BA9C"/>
<stop offset="1" stop-color="#55804A"/>
</linearGradient>
<linearGradient id="paint60_linear_22_148" x1="140.351" y1="208.429" x2="140.183" y2="208.867" gradientUnits="userSpaceOnUse">
<stop offset="0.49" stop-color="#F9F5F0"/>
<stop offset="0.725" stop-color="#AFC0A5"/>
<stop offset="1" stop-color="#55804A"/>
</linearGradient>
<linearGradient id="paint61_linear_22_148" x1="140.351" y1="208.429" x2="140.183" y2="208.867" gradientUnits="userSpaceOnUse">
<stop offset="0.485" stop-color="#F9F5F0"/>
<stop offset="0.745" stop-color="#A6BA9C"/>
<stop offset="1" stop-color="#55804A"/>
</linearGradient>
<linearGradient id="paint62_linear_22_148" x1="106.986" y1="210.03" x2="107.524" y2="209.712" gradientUnits="userSpaceOnUse">
<stop offset="0.49" stop-color="#F9F5F0"/>
<stop offset="0.725" stop-color="#AFC0A5"/>
<stop offset="1" stop-color="#55804A"/>
</linearGradient>
<linearGradient id="paint63_linear_22_148" x1="106.986" y1="210.03" x2="107.524" y2="209.712" gradientUnits="userSpaceOnUse">
<stop offset="0.485" stop-color="#F9F5F0"/>
<stop offset="0.745" stop-color="#A6BA9C"/>
<stop offset="1" stop-color="#55804A"/>
</linearGradient>
<linearGradient id="paint64_linear_22_148" x1="69.4515" y1="229.131" x2="74.8971" y2="231.417" gradientUnits="userSpaceOnUse">
<stop offset="0.49" stop-color="#F9F5F0"/>
<stop offset="0.725" stop-color="#AFC0A5"/>
<stop offset="1" stop-color="#55804A"/>
</linearGradient>
<linearGradient id="paint65_linear_22_148" x1="69.4515" y1="229.131" x2="74.8971" y2="231.417" gradientUnits="userSpaceOnUse">
<stop offset="0.485" stop-color="#F9F5F0"/>
<stop offset="0.745" stop-color="#A6BA9C"/>
<stop offset="1" stop-color="#55804A"/>
</linearGradient>
<linearGradient id="paint66_linear_22_148" x1="78.3846" y1="238.969" x2="84.5536" y2="240.43" gradientUnits="userSpaceOnUse">
<stop offset="0.49" stop-color="#F9F5F0"/>
<stop offset="0.725" stop-color="#AFC0A5"/>
<stop offset="1" stop-color="#55804A"/>
</linearGradient>
<linearGradient id="paint67_linear_22_148" x1="78.3846" y1="238.969" x2="84.5536" y2="240.43" gradientUnits="userSpaceOnUse">
<stop offset="0.485" stop-color="#F9F5F0"/>
<stop offset="0.745" stop-color="#A6BA9C"/>
<stop offset="1" stop-color="#55804A"/>
</linearGradient>
<linearGradient id="paint68_linear_22_148" x1="87.1868" y1="247.217" x2="93.8147" y2="247.977" gradientUnits="userSpaceOnUse">
<stop offset="0.49" stop-color="#F9F5F0"/>
<stop offset="0.725" stop-color="#AFC0A5"/>
<stop offset="1" stop-color="#55804A"/>
</linearGradient>
<linearGradient id="paint69_linear_22_148" x1="87.1868" y1="247.217" x2="93.8147" y2="247.977" gradientUnits="userSpaceOnUse">
<stop offset="0.485" stop-color="#F9F5F0"/>
<stop offset="0.745" stop-color="#A6BA9C"/>
<stop offset="1" stop-color="#55804A"/>
</linearGradient>
<linearGradient id="paint70_linear_22_148" x1="24.0136" y1="117.056" x2="22.6826" y2="123.842" gradientUnits="userSpaceOnUse">
<stop stop-color="#F9F5F0"/>
<stop offset="1" stop-color="#55804A"/>
</linearGradient>
<linearGradient id="paint71_linear_22_148" x1="24.0136" y1="117.056" x2="22.6826" y2="123.842" gradientUnits="userSpaceOnUse">
<stop stop-color="#F9F5F0"/>
<stop offset="1" stop-color="#55804A"/>
</linearGradient>
<linearGradient id="paint72_linear_22_148" x1="26.293" y1="112.288" x2="25.4032" y2="116.825" gradientUnits="userSpaceOnUse">
<stop stop-color="#F9F5F0"/>
<stop offset="1" stop-color="#55804A"/>
</linearGradient>
<linearGradient id="paint73_linear_22_148" x1="26.293" y1="112.288" x2="25.4032" y2="116.825" gradientUnits="userSpaceOnUse">
<stop stop-color="#F9F5F0"/>
<stop offset="1" stop-color="#55804A"/>
</linearGradient>
<linearGradient id="paint74_linear_22_148" x1="24.293" y1="107.825" x2="23.4032" y2="112.362" gradientUnits="userSpaceOnUse">
<stop stop-color="#F9F5F0"/>
<stop offset="1" stop-color="#55804A"/>
</linearGradient>
<linearGradient id="paint75_linear_22_148" x1="24.293" y1="107.825" x2="23.4032" y2="112.362" gradientUnits="userSpaceOnUse">
<stop stop-color="#F9F5F0"/>
<stop offset="1" stop-color="#55804A"/>
</linearGradient>
<linearGradient id="paint76_linear_22_148" x1="25.3714" y1="102.065" x2="23.7758" y2="106.405" gradientUnits="userSpaceOnUse">
<stop stop-color="#F9F5F0"/>
<stop offset="1" stop-color="#55804A"/>
</linearGradient>
<linearGradient id="paint77_linear_22_148" x1="25.3714" y1="102.065" x2="23.7758" y2="106.405" gradientUnits="userSpaceOnUse">
<stop stop-color="#F9F5F0"/>
<stop offset="1" stop-color="#55804A"/>
</linearGradient>
<linearGradient id="paint78_linear_22_148" x1="22.782" y1="93.8537" x2="20.8243" y2="97.395" gradientUnits="userSpaceOnUse">
<stop stop-color="#F9F5F0"/>
<stop offset="1" stop-color="#55804A"/>
</linearGradient>
<linearGradient id="paint79_linear_22_148" x1="22.782" y1="93.8537" x2="20.8243" y2="97.395" gradientUnits="userSpaceOnUse">
<stop stop-color="#F9F5F0"/>
<stop offset="1" stop-color="#55804A"/>
</linearGradient>
<linearGradient id="paint80_linear_22_148" x1="27.6893" y1="86.8429" x2="24.939" y2="89.811" gradientUnits="userSpaceOnUse">
<stop stop-color="#F9F5F0"/>
<stop offset="1" stop-color="#55804A"/>
</linearGradient>
<linearGradient id="paint81_linear_22_148" x1="27.6893" y1="86.8429" x2="24.939" y2="89.811" gradientUnits="userSpaceOnUse">
<stop stop-color="#F9F5F0"/>
<stop offset="1" stop-color="#55804A"/>
</linearGradient>
<linearGradient id="paint82_linear_22_148" x1="27.7334" y1="75.5946" x2="24.076" y2="78.3033" gradientUnits="userSpaceOnUse">
<stop stop-color="#F9F5F0"/>
<stop offset="1" stop-color="#55804A"/>
</linearGradient>
<linearGradient id="paint83_linear_22_148" x1="27.7334" y1="75.5946" x2="24.076" y2="78.3033" gradientUnits="userSpaceOnUse">
<stop stop-color="#F9F5F0"/>
<stop offset="1" stop-color="#55804A"/>
</linearGradient>
<linearGradient id="paint84_linear_22_148" x1="34.1537" y1="73.2505" x2="30.2282" y2="75.5536" gradientUnits="userSpaceOnUse">
<stop stop-color="#F9F5F0"/>
<stop offset="1" stop-color="#55804A"/>
</linearGradient>
<linearGradient id="paint85_linear_22_148" x1="34.1537" y1="73.2505" x2="30.2282" y2="75.5536" gradientUnits="userSpaceOnUse">
<stop stop-color="#F9F5F0"/>
<stop offset="1" stop-color="#55804A"/>
</linearGradient>
<linearGradient id="paint86_linear_22_148" x1="39.2496" y1="67.2796" x2="34.9956" y2="68.8976" gradientUnits="userSpaceOnUse">
<stop stop-color="#F9F5F0"/>
<stop offset="1" stop-color="#55804A"/>
</linearGradient>
<linearGradient id="paint87_linear_22_148" x1="39.2496" y1="67.2796" x2="34.9956" y2="68.8976" gradientUnits="userSpaceOnUse">
<stop stop-color="#F9F5F0"/>
<stop offset="1" stop-color="#55804A"/>
</linearGradient>
<linearGradient id="paint88_linear_22_148" x1="44.8048" y1="66.2437" x2="40.4216" y2="67.4688" gradientUnits="userSpaceOnUse">
<stop stop-color="#F9F5F0"/>
<stop offset="1" stop-color="#55804A"/>
</linearGradient>
<linearGradient id="paint89_linear_22_148" x1="44.8048" y1="66.2437" x2="40.4216" y2="67.4688" gradientUnits="userSpaceOnUse">
<stop stop-color="#F9F5F0"/>
<stop offset="1" stop-color="#55804A"/>
</linearGradient>
<linearGradient id="paint90_linear_22_148" x1="48.4546" y1="59.5343" x2="43.9976" y2="60.4556" gradientUnits="userSpaceOnUse">
<stop stop-color="#F9F5F0"/>
<stop offset="1" stop-color="#55804A"/>
</linearGradient>
<linearGradient id="paint91_linear_22_148" x1="48.4546" y1="59.5343" x2="43.9976" y2="60.4556" gradientUnits="userSpaceOnUse">
<stop stop-color="#F9F5F0"/>
<stop offset="1" stop-color="#55804A"/>
</linearGradient>
<linearGradient id="paint92_linear_22_148" x1="54.8366" y1="58.0297" x2="50.2959" y2="58.3389" gradientUnits="userSpaceOnUse">
<stop stop-color="#F9F5F0"/>
<stop offset="1" stop-color="#55804A"/>
</linearGradient>
<linearGradient id="paint93_linear_22_148" x1="54.8366" y1="58.0297" x2="50.2959" y2="58.3389" gradientUnits="userSpaceOnUse">
<stop stop-color="#F9F5F0"/>
<stop offset="1" stop-color="#55804A"/>
</linearGradient>
<linearGradient id="paint94_linear_22_148" x1="60.2561" y1="59.0606" x2="55.708" y2="59.2295" gradientUnits="userSpaceOnUse">
<stop stop-color="#F9F5F0"/>
<stop offset="1" stop-color="#55804A"/>
</linearGradient>
<linearGradient id="paint95_linear_22_148" x1="60.2561" y1="59.0606" x2="55.708" y2="59.2295" gradientUnits="userSpaceOnUse">
<stop stop-color="#F9F5F0"/>
<stop offset="1" stop-color="#55804A"/>
</linearGradient>
<linearGradient id="paint96_linear_22_148" x1="64.3968" y1="43.4219" x2="59.847" y2="43.539" gradientUnits="userSpaceOnUse">
<stop stop-color="#F9F5F0"/>
<stop offset="1" stop-color="#55804A"/>
</linearGradient>
<linearGradient id="paint97_linear_22_148" x1="64.3968" y1="43.4219" x2="59.847" y2="43.539" gradientUnits="userSpaceOnUse">
<stop stop-color="#F9F5F0"/>
<stop offset="1" stop-color="#55804A"/>
</linearGradient>
<linearGradient id="paint98_linear_22_148" x1="69.968" y1="47.8821" x2="65.4177" y2="47.7895" gradientUnits="userSpaceOnUse">
<stop stop-color="#F9F5F0"/>
<stop offset="1" stop-color="#55804A"/>
</linearGradient>
<linearGradient id="paint99_linear_22_148" x1="69.968" y1="47.8821" x2="65.4177" y2="47.7895" gradientUnits="userSpaceOnUse">
<stop stop-color="#F9F5F0"/>
<stop offset="1" stop-color="#55804A"/>
</linearGradient>
<linearGradient id="paint100_linear_22_148" x1="75.1627" y1="44.8424" x2="70.6257" y2="44.4823" gradientUnits="userSpaceOnUse">
<stop stop-color="#F9F5F0"/>
<stop offset="1" stop-color="#55804A"/>
</linearGradient>
<linearGradient id="paint101_linear_22_148" x1="75.1627" y1="44.8424" x2="70.6257" y2="44.4823" gradientUnits="userSpaceOnUse">
<stop stop-color="#F9F5F0"/>
<stop offset="1" stop-color="#55804A"/>
</linearGradient>
<linearGradient id="paint102_linear_22_148" x1="81.1498" y1="31.4532" x2="75.3683" y2="30.8891" gradientUnits="userSpaceOnUse">
<stop stop-color="#F9F5F0"/>
<stop offset="1" stop-color="#55804A"/>
</linearGradient>
<linearGradient id="paint103_linear_22_148" x1="81.1498" y1="31.4532" x2="75.3683" y2="30.8891" gradientUnits="userSpaceOnUse">
<stop stop-color="#F9F5F0"/>
<stop offset="1" stop-color="#55804A"/>
</linearGradient>
</defs>
</svg>
