<svg width="95" height="129" viewBox="0 0 95 129" fill="none" xmlns="http://www.w3.org/2000/svg">
<circle cx="54" cy="128" r="1" fill="#DDC5F7"/>
<circle cx="15.5" cy="36.5" r="0.5" fill="#DDC5F7"/>
<circle cx="29.5" cy="54.5" r="0.5" fill="#DDC5F7"/>
<circle cx="53.5" cy="42.5" r="0.5" fill="#DDC5F7"/>
<circle cx="63.5" cy="0.5" r="0.5" fill="#DDC5F7"/>
<circle cx="1.5" cy="20.5" r="1.5" fill="#DDC5F7"/>
<path d="M18.8895 66.1638C18.6905 64.8781 15.6923 64.2101 10.5579 63.0151L10.968 62.9619C15.2382 62.3072 18.6451 62.0511 19.0506 60.9741C19.605 60.1077 19.9221 55.2098 20.4834 49.5111C21.3324 54.9748 21.8995 58.9344 22.4514 61.4729C22.5184 62.9592 27.1688 63.1586 31.5434 64.0532C25.7429 64.6414 22.9231 65.0144 22.6405 66.1473C21.9951 68.259 21.3906 75.5795 20.4659 84.7548C20.0629 77.291 19.8584 73.0858 18.8895 66.1638Z" fill="#DDC5F7"/>
<path d="M90.1931 37.501C90.1372 37.1509 89.165 36.989 87.5004 36.6977L87.6344 36.6803C89.0302 36.4718 90.1419 36.3782 90.2815 36.081C90.4681 35.8402 90.6053 34.4989 90.8275 32.9368C91.0664 34.4249 91.2238 35.5036 91.3861 36.1939C91.3976 36.5998 92.9114 36.6222 94.3305 36.8365C92.4366 37.0374 91.5153 37.1589 91.4154 37.4706C91.1905 38.0525 90.943 40.0582 90.5783 42.5733C90.4986 40.5353 90.461 39.387 90.1931 37.501Z" fill="#DDC5F7"/>
<path d="M81.35 57.2229C81.2141 56.3315 79.3215 55.8444 76.0799 54.9748L76.3376 54.9414C79.0199 54.5237 81.1622 54.3746 81.4085 53.6325C81.7503 53.0375 81.9094 49.6503 82.2156 45.7109C82.7952 49.4993 83.1848 52.2444 83.5532 54.0059C83.6076 55.035 86.5363 55.2115 89.2972 55.8668C85.6511 56.226 83.8793 56.4607 83.7108 57.2425C83.322 58.6987 83.0021 63.7601 82.4959 70.1026C82.1805 64.9336 82.017 62.0216 81.35 57.2229Z" fill="#DDC5F7"/>
</svg>
