<svg width="305" height="313" viewBox="0 0 305 313" fill="none" xmlns="http://www.w3.org/2000/svg">
<path d="M281.258 231.771C279.325 269.477 249.113 303.647 212.079 310.997C175.046 318.347 134.514 298.798 116.469 265.633C114.478 261.973 112.705 258.134 110.931 254.296C106.354 244.387 101.777 234.481 93.4556 227.665C83.954 219.883 71.7341 217.801 59.3911 215.699C51.5532 214.364 43.6657 213.02 36.3931 210.203C18.8613 203.412 5.2488 187.323 1.45414 168.909C-4.69514 139.069 14.7828 108.603 40.7573 92.6781C66.7318 76.7537 97.9438 72.3187 128.219 68.9013C139.8 67.594 149.208 58.8664 155.927 49.3432C158.528 45.6564 160.868 41.7824 163.207 37.9113C166.909 31.7829 170.607 25.6618 175.329 20.302C195.322 -2.39359 232.553 -6.22336 258.018 10.0961C283.483 26.4155 295.672 59.973 288.9 89.4509C287.734 94.528 286.078 99.4717 284.422 104.416L284.422 104.417C282.837 109.149 281.252 113.882 280.096 118.733C277.625 129.101 277.153 139.83 276.872 150.485C276.536 163.189 276.457 175.926 277.647 188.578C278.061 192.979 278.628 197.375 279.195 201.77C280.484 211.757 281.772 221.739 281.258 231.771Z" fill="#DDC5F7"/>
<path d="M128.177 59.8954C142.024 53.0067 153.045 41.043 159.985 27.2216C160.895 25.4094 161.758 23.4839 161.726 21.4563C161.694 19.4287 160.514 17.281 158.553 16.7661C155.742 16.0281 153.325 18.7231 151.572 21.0411C139.531 36.9644 122.005 49.4649 102.229 52.1911C94.6334 53.2382 86.9219 52.8449 79.2648 52.4496L67.3049 51.8321C57.6721 51.3348 47.9055 50.8474 38.4765 52.88C29.0475 54.9126 19.8342 59.8012 14.6555 67.9387C13.0071 70.5288 11.7724 73.5812 12.2285 76.6173C12.6959 79.7287 14.9075 82.3694 17.5715 84.0433C20.2355 85.7171 23.3304 86.5546 26.3977 87.2552C28.6434 87.7682 30.937 88.2226 33.2349 88.0609C36.9917 87.7964 40.4008 85.9283 43.718 84.1106C43.939 83.9895 44.1596 83.8687 44.3798 83.7485C50.1775 80.5856 56.1851 77.7766 62.451 75.6895C71.5883 72.646 81.1962 71.1565 90.7803 69.6708C103.692 67.6693 116.56 65.6743 128.177 59.8954Z" fill="#DDC5F7"/>
<path d="M56.167 243.415L56.1751 243.415C56.7395 243.438 57.3035 243.461 57.8661 243.49C66.7641 243.953 75.5695 246.134 83.6544 249.879C86.737 251.306 89.8591 253.093 91.5904 256.016C93.7326 259.633 96.3042 262.995 99.2338 266.009C100.37 267.179 101.601 268.322 103.118 268.92C104.636 269.517 106.509 269.462 107.74 268.393C109.236 267.094 109.333 264.787 108.872 262.86C108.117 259.703 106.233 256.951 104.369 254.294C98.2508 245.572 91.8098 236.852 83.296 230.448C74.7822 224.045 63.7947 220.167 53.3735 222.379C49.7753 223.143 46.2091 224.7 43.8234 227.5C41.4378 230.3 40.4951 234.514 42.2132 237.766C43.5763 240.346 46.3396 241.934 49.1687 242.65C51.4489 243.226 53.8102 243.321 56.1665 243.415H56.167Z" fill="#DDC5F7"/>
<path d="M296.848 112.238C294.469 111.341 291.775 112.424 289.762 113.977C285.785 117.042 283.433 121.837 282.362 126.743C281.292 131.648 281.378 136.723 281.47 141.743L282.256 184.877C282.314 188.028 282.454 191.424 284.392 193.91C284.998 194.688 285.828 195.371 286.809 195.471C287.999 195.592 289.099 194.841 289.958 194.01C294.654 189.462 295.271 182.299 295.833 175.77L295.854 175.533C296.68 165.949 298.11 156.417 300.133 147.012C300.702 144.368 301.328 141.706 302.518 139.277C306.25 131.661 305.357 121.994 300.294 115.19C299.379 113.959 298.283 112.779 296.848 112.238Z" fill="#DDC5F7"/>
</svg>
