<svg width="75" height="74" viewBox="0 0 75 74" fill="none" xmlns="http://www.w3.org/2000/svg">
<path d="M51.7095 56.1157C50.5391 53.7689 47.7881 51.576 45.5071 49.4425C42.9392 46.9824 40.5011 44.501 38.1031 42.0767C36.969 40.8539 35.8858 39.7164 34.8275 38.5156C34.6317 38.3314 34.4545 38.1481 34.3122 37.9113C33.9972 37.5834 34.0758 37.8539 34.2417 37.8067C34.1877 37.8501 34.931 37.7663 34.931 37.7663C34.931 37.7663 34.3283 38.8135 34.2338 38.9837C32.8013 41.5915 31.3192 44.1417 29.7974 46.644C28.113 49.4512 26.4259 52.203 24.8526 54.988C24.4556 55.6588 22.8376 55.8108 21.799 55.586C20.5405 55.2587 20.2039 54.4882 20.5366 53.8419C22.1488 51.0864 23.9005 48.3193 25.634 45.5604C27.4709 42.8158 29.0986 39.9966 30.9966 37.1629C31.7851 35.9039 33.3951 34.8224 35.391 35.1393C37.4254 35.4764 38.4438 37.1996 39.528 38.3556C42.1098 41.1015 44.7755 43.8422 47.6222 46.656C49.2292 48.1868 50.858 49.7829 52.4925 51.3058C53.9447 52.7279 55.342 54.1749 56.1543 55.695C56.4878 56.401 56.0159 57.0681 54.8072 57.1847C53.6074 57.2925 52.0973 56.7874 51.7095 56.1157Z" fill="#FACB98"/>
<path d="M53.6761 46.6534C54.0299 46.2473 53.8675 45.9819 53.6871 45.5409C53.2488 44.7931 52.6126 44.0082 52.0535 43.273C50.9691 41.7307 49.7167 40.1894 48.5944 38.636C46.159 35.4465 43.7245 32.2754 41.2999 29.1139C40.092 27.5288 38.9764 25.9206 37.8452 24.3759C37.4829 23.8434 37.1879 23.3509 36.6989 22.9042C36.57 22.7508 36.4353 22.6707 36.1851 22.5207C36.1851 22.5207 35.8581 22.3302 36.0504 22.4406C36.0504 22.4406 36.1177 22.4807 36.1716 22.4373C35.8622 22.4132 35.8622 22.4132 36.1043 22.3972C36.3163 21.9567 36.1851 22.5207 36.2256 22.3939C36.239 22.4773 36.0005 22.567 35.9376 22.6192C35.7077 22.884 35.5411 23.106 35.3111 23.3709C34.6757 24.1313 34.0305 24.8821 33.4437 25.6817C32.3052 27.0435 31.1431 28.4961 30.0438 29.8965C27.5557 33.0789 25.3115 36.2823 23.6006 39.5021C23.2537 40.2397 21.6137 40.3263 20.3619 39.9441C18.9192 39.4791 18.4104 38.6267 18.7044 37.951C20.5687 34.8121 23.0118 31.6643 25.7986 28.4779C27.2059 26.8807 28.5846 25.273 30.1238 23.7006C31.4268 22.264 32.6345 20.2157 35.158 19.6657C39.9114 18.4872 42.2643 23.4297 43.8797 25.7059C46.6038 29.2589 49.4434 32.8819 52.3209 36.5159C53.9049 38.533 55.4407 40.5202 56.9373 42.4688C58.0707 44.0595 59.7492 45.9064 58.0179 47.7547C57.345 48.5134 56.1401 49.0901 54.9115 48.8009C53.6914 48.4938 52.9694 47.484 53.6761 46.6534Z" fill="#EDB477"/>
</svg>
